<svg width="14" height="14" viewBox="0 0 14 14" fill="none" xmlns="http://www.w3.org/2000/svg">
<path d="M12.6875 5.25002H11.375C11.375 5.13399 11.3289 5.02271 11.2469 4.94066C11.1648 4.85861 11.0535 4.81252 10.9375 4.81252H7.4375C7.32147 4.81252 7.21019 4.85861 7.12814 4.94066C7.04609 5.02271 7 5.13399 7 5.25002H3.5V2.84377C3.5 2.66972 3.56914 2.5028 3.69221 2.37973C3.81528 2.25666 3.9822 2.18752 4.15625 2.18752C4.31006 2.18689 4.45954 2.2384 4.58031 2.33365C4.70108 2.42889 4.78601 2.56225 4.82125 2.71197C4.84528 2.82472 4.91284 2.92343 5.00925 2.98664C5.10566 3.04985 5.22311 3.07245 5.33609 3.04954C5.44907 3.02662 5.54845 2.96004 5.61261 2.86427C5.67677 2.7685 5.70054 2.65127 5.67875 2.53807C5.60447 2.18993 5.41253 1.87801 5.13523 1.6548C4.85794 1.43159 4.51222 1.31072 4.15625 1.31252C3.75014 1.31252 3.36066 1.47385 3.07349 1.76101C2.78633 2.04818 2.625 2.43766 2.625 2.84377V5.25002H1.3125C1.08044 5.25002 0.857876 5.34221 0.693782 5.5063C0.529687 5.6704 0.4375 5.89296 0.4375 6.12502V7.87502C0.438369 8.68698 0.761303 9.46543 1.33544 10.0396C1.90959 10.6137 2.68804 10.9367 3.5 10.9375V11.8125C3.5 11.9286 3.54609 12.0398 3.62814 12.1219C3.71019 12.2039 3.82147 12.25 3.9375 12.25C4.05353 12.25 4.16481 12.2039 4.24686 12.1219C4.32891 12.0398 4.375 11.9286 4.375 11.8125V10.9375H9.625V11.8125C9.625 11.9286 9.67109 12.0398 9.75314 12.1219C9.83519 12.2039 9.94647 12.25 10.0625 12.25C10.1785 12.25 10.2898 12.2039 10.3719 12.1219C10.4539 12.0398 10.5 11.9286 10.5 11.8125V10.9375C11.312 10.9367 12.0904 10.6137 12.6646 10.0396C13.2387 9.46543 13.5616 8.68698 13.5625 7.87502V6.12502C13.5625 5.89296 13.4703 5.6704 13.3062 5.5063C13.1421 5.34221 12.9196 5.25002 12.6875 5.25002ZM10.5 5.68752V7.43752H7.875V5.68752H10.5ZM12.6875 7.87502C12.6875 8.16229 12.6309 8.44674 12.521 8.71214C12.4111 8.97754 12.2499 9.21869 12.0468 9.42182C11.8437 9.62494 11.6025 9.78607 11.3371 9.89601C11.0717 10.0059 10.7873 10.0625 10.5 10.0625H3.5C2.91984 10.0625 2.36344 9.83205 1.9532 9.42182C1.54297 9.01158 1.3125 8.45518 1.3125 7.87502V6.12502H7V7.87502C7 7.99105 7.04609 8.10233 7.12814 8.18438C7.21019 8.26643 7.32147 8.31252 7.4375 8.31252H10.9375C11.0535 8.31252 11.1648 8.26643 11.2469 8.18438C11.3289 8.10233 11.375 7.99105 11.375 7.87502V6.12502H12.6875V7.87502Z" fill="#F34A25"/>
</svg>
