<svg width="14" height="14" viewBox="0 0 14 14" fill="none" xmlns="http://www.w3.org/2000/svg">
<path d="M13.125 5.6875V4.8125H8.14538L7.82906 4.17944C7.79272 4.10671 7.73683 4.04555 7.66767 4.00281C7.59851 3.96008 7.5188 3.93746 7.4375 3.9375H3.9375C3.82147 3.9375 3.71019 3.98359 3.62814 4.06564C3.54609 4.14769 3.5 4.25897 3.5 4.375V6.5625H1.75V7.4375H9.90413L11.4791 8.75H1.3125C1.19647 8.75 1.08519 8.79609 1.00314 8.87814C0.921094 8.96019 0.875 9.07147 0.875 9.1875V10.0625C0.875695 10.6424 1.10639 11.1984 1.51647 11.6085C1.92656 12.0186 2.48255 12.2493 3.0625 12.25H10.9375C11.5174 12.2493 12.0734 12.0186 12.4835 11.6085C12.8936 11.1984 13.1243 10.6424 13.125 10.0625V9.1875C13.125 9.12331 13.1109 9.05989 13.0837 9.00175C13.0565 8.94361 13.0168 8.89217 12.9675 8.85106L10.3425 6.66356C10.2638 6.59825 10.1648 6.5625 10.0625 6.5625H9.02038L8.58288 5.6875H13.125ZM12.25 10.0625C12.2497 10.4105 12.1113 10.7441 11.8652 10.9902C11.6191 11.2363 11.2855 11.3747 10.9375 11.375H3.0625C2.71451 11.3747 2.38087 11.2363 2.13481 10.9902C1.88874 10.7441 1.75035 10.4105 1.75 10.0625V9.625H12.25V10.0625ZM4.375 6.5625V4.8125H7.16712L8.04212 6.5625H4.375Z" fill="#F34A25"/>
</svg>
