<svg width="14" height="14" viewBox="0 0 14 14" fill="none" xmlns="http://www.w3.org/2000/svg">
<path d="M12.6133 9.26186L10.9377 7.59936L11.2308 7.30623C11.3123 7.22426 11.358 7.11337 11.358 6.99779C11.358 6.88221 11.3123 6.77133 11.2308 6.68936L8.60579 4.06436C8.52382 3.98287 8.41293 3.93713 8.29735 3.93713C8.18177 3.93713 8.07089 3.98287 7.98891 4.06436L7.64329 4.40998L4.68579 1.43936C4.60382 1.35787 4.49293 1.31213 4.37735 1.31213C4.26177 1.31213 4.15089 1.35787 4.06891 1.43936L2.31891 3.18936L2.26641 3.25498L0.516415 5.87998C0.460244 5.96382 0.434786 6.0645 0.444354 6.16497C0.453922 6.26543 0.497928 6.3595 0.568915 6.43123L1.88141 7.74373C1.92209 7.78474 1.97047 7.81728 2.02379 7.8395C2.0771 7.86171 2.13428 7.87314 2.19204 7.87314C2.24979 7.87314 2.30698 7.86171 2.36029 7.8395C2.41361 7.81728 2.46199 7.78474 2.50266 7.74373L4.37516 5.86686L5.28954 6.78123L3.18954 8.87686C3.10805 8.95883 3.06232 9.06971 3.06232 9.18529C3.06232 9.30088 3.10805 9.41176 3.18954 9.49373L4.06454 10.3687C4.10506 10.4101 4.15338 10.443 4.2067 10.4655C4.26002 10.488 4.31728 10.4997 4.37516 10.5C4.45559 10.4994 4.53431 10.4767 4.60266 10.4344L6.49704 9.29686L7.56454 10.3687C7.64651 10.4502 7.7574 10.496 7.87298 10.496C7.98856 10.496 8.09944 10.4502 8.18142 10.3687L8.47454 10.0625L10.1327 11.7381C10.461 12.0665 10.9064 12.251 11.3708 12.251C11.8352 12.251 12.2805 12.0665 12.6089 11.7381C12.9373 11.4097 13.1218 10.9644 13.1218 10.5C13.1218 10.0356 12.9373 9.59023 12.6089 9.26186H12.6133ZM4.37516 4.62873L2.18766 6.81623L1.43954 6.06811L2.96641 3.77561L4.37516 2.36686L7.03954 5.03123L5.90641 6.15998L4.37516 4.62873ZM7.87516 9.44123L6.63266 8.19873L4.44516 9.51123L4.12141 9.18748L8.31266 4.99186L10.3208 6.99998L7.87516 9.44123ZM11.9964 11.1169C11.9152 11.1982 11.8186 11.2627 11.7124 11.3068C11.6062 11.3508 11.4923 11.3735 11.3774 11.3735C11.2624 11.3735 11.1485 11.3508 11.0423 11.3068C10.9361 11.2627 10.8396 11.1982 10.7583 11.1169L9.09579 9.45873L10.3339 8.22061L11.9964 9.87873C12.0778 9.96 12.1423 10.0565 12.1863 10.1627C12.2304 10.2689 12.253 10.3828 12.253 10.4978C12.253 10.6128 12.2304 10.7266 12.1863 10.8329C12.1423 10.9391 12.0778 11.0356 11.9964 11.1169Z" fill="#F34A25"/>
</svg>
