<svg width="14" height="14" viewBox="0 0 14 14" fill="none" xmlns="http://www.w3.org/2000/svg">
<path d="M10.9375 0.875C9.9679 0.876597 9.02136 1.17077 8.22166 1.71905C7.42196 2.26732 6.80634 3.04417 6.45531 3.948C6.17409 3.54012 5.79804 3.20663 5.35947 2.97618C4.9209 2.74573 4.43293 2.62522 3.9375 2.625H2.625V3.9375C2.62593 4.74944 2.94888 5.52786 3.52301 6.10199C4.09714 6.67612 4.87556 6.99907 5.6875 7H6.125V10.9594C5.12011 11.0576 4.18088 11.503 3.46894 12.2189L4.08756 12.8376C4.45353 12.4716 4.8961 12.1914 5.3834 12.017C5.8707 11.8427 6.39061 11.7786 6.90566 11.8293C7.42072 11.8801 7.91811 12.0444 8.362 12.3105C8.8059 12.5767 9.18526 12.9379 9.47275 13.3682L10.1994 12.8813C9.84078 12.3454 9.36786 11.8956 8.81467 11.5642C8.26147 11.2328 7.64174 11.028 7 10.9646V7H7.4375C8.71343 6.99861 9.9367 6.49113 10.8389 5.58892C11.7411 4.6867 12.2486 3.46343 12.25 2.1875V0.875H10.9375ZM5.6875 6.125C5.10755 6.12431 4.55156 5.89361 4.14147 5.48353C3.73139 5.07344 3.50069 4.51745 3.5 3.9375V3.5H3.9375C4.51748 3.50058 5.07355 3.73123 5.48366 4.14134C5.89377 4.55145 6.12442 5.10752 6.125 5.6875V6.125H5.6875ZM11.375 2.1875C11.3738 3.23143 10.9586 4.23228 10.2205 4.97045C9.48228 5.70863 8.48143 6.12384 7.4375 6.125H7V5.6875C7.00116 4.64357 7.41637 3.64272 8.15455 2.90455C8.89272 2.16637 9.89357 1.75116 10.9375 1.75H11.375V2.1875Z" fill="#F34A25"/>
</svg>
