<svg width="14" height="14" viewBox="0 0 14 14" fill="none" xmlns="http://www.w3.org/2000/svg">
<g clip-path="url(#clip0_309_370)">
<path d="M12.8671 9.48057L4.52398 1.1287C4.44271 1.04734 4.34621 0.982803 4.23999 0.938769C4.13376 0.894735 4.0199 0.87207 3.90491 0.87207C3.78992 0.87207 3.67606 0.894735 3.56984 0.938769C3.46362 0.982803 3.36711 1.04734 3.28585 1.1287L1.13335 3.28557C0.97038 3.44951 0.878906 3.67128 0.878906 3.90245C0.878906 4.13361 0.97038 4.35538 1.13335 4.51932L9.47647 12.8712C9.55823 12.9523 9.6552 13.0165 9.76181 13.06C9.86841 13.1035 9.98257 13.1256 10.0977 13.1249C10.3288 13.1251 10.5505 13.0339 10.7146 12.8712L12.8671 10.7143C13.0301 10.5504 13.1215 10.3286 13.1215 10.0974C13.1215 9.86628 13.0301 9.64451 12.8671 9.48057ZM10.0977 12.2499L1.75022 3.90245L3.90272 1.74995L5.56085 3.40807L4.57648 4.37495L5.19335 4.99182L6.17772 4.02495L7.9846 5.83182L7.00023 6.8162L7.62148 7.43745L8.60585 6.45307L10.4127 8.25995L9.42835 9.24432L10.0627 9.8612L11.0471 8.87682L12.2502 10.0974L10.0977 12.2499Z" fill="#F34A25"/>
</g>
<defs>
<clipPath id="clip0_309_370">
<rect width="14" height="14" fill="white"/>
</clipPath>
</defs>
</svg>
