<svg width="14" height="14" viewBox="0 0 14 14" fill="none" xmlns="http://www.w3.org/2000/svg">
<g clip-path="url(#clip0_309_382)">
<path d="M4.375 6.125C4.02888 6.125 3.69054 6.02237 3.40275 5.83007C3.11497 5.63778 2.89066 5.36447 2.75821 5.0447C2.62576 4.72493 2.5911 4.37306 2.65863 4.03359C2.72615 3.69413 2.89282 3.38231 3.13756 3.13756C3.38231 2.89282 3.69413 2.72615 4.03359 2.65863C4.37306 2.5911 4.72493 2.62576 5.0447 2.75821C5.36447 2.89066 5.63778 3.11497 5.83007 3.40275C6.02237 3.69054 6.125 4.02888 6.125 4.375C6.12442 4.83895 5.93986 5.28373 5.6118 5.6118C5.28373 5.93986 4.83895 6.12442 4.375 6.125ZM4.375 3.5C4.20198 3.49983 4.03279 3.55095 3.88882 3.64692C3.74485 3.74288 3.63256 3.87938 3.56615 4.03914C3.49974 4.19891 3.48219 4.37478 3.51571 4.54453C3.54923 4.71427 3.63232 4.87026 3.75448 4.99279C3.87664 5.11532 4.03239 5.19888 4.20203 5.23291C4.37167 5.26694 4.54759 5.24991 4.70756 5.18398C4.86753 5.11805 5.00436 5.00617 5.10075 4.86249C5.19715 4.71881 5.24878 4.54977 5.24913 4.37675C5.24936 4.14461 5.15742 3.92186 4.99352 3.75747C4.82961 3.59307 4.60715 3.50046 4.375 3.5Z" fill="#F34A25"/>
<path d="M7.28175 12.8691L1.13137 6.71737C0.967376 6.55343 0.875166 6.33108 0.875 6.09919V1.75C0.875 1.51794 0.967187 1.29538 1.13128 1.13128C1.29538 0.967187 1.51794 0.875 1.75 0.875H6.09919C6.33123 0.87505 6.55376 0.967269 6.71781 1.13137L12.8691 7.28175C13.0331 7.44584 13.1252 7.66836 13.1252 7.90038C13.1252 8.13239 13.0331 8.35491 12.8691 8.519L8.519 12.8691C8.43774 12.9504 8.34127 13.0148 8.23509 13.0588C8.1289 13.1028 8.01509 13.1255 7.90016 13.1255C7.78522 13.1255 7.67141 13.1028 7.56523 13.0588C7.45904 13.0148 7.36301 12.9504 7.28175 12.8691ZM1.75 1.75V6.09963L7.90037 12.25L12.25 7.90038L6.09962 1.75H1.75Z" fill="#F34A25"/>
</g>
<defs>
<clipPath id="clip0_309_382">
<rect width="14" height="14" fill="white"/>
</clipPath>
</defs>
</svg>
