<svg width="14" height="14" viewBox="0 0 14 14" fill="none" xmlns="http://www.w3.org/2000/svg">
<path d="M10.2082 2.26038C10.699 2.2604 11.1781 2.41052 11.5812 2.69059C11.9842 2.97065 12.292 3.36728 12.4632 3.82726C12.6344 4.28725 12.6609 4.78858 12.539 5.26403C12.4171 5.73947 12.1528 6.16628 11.7815 6.48721C11.9436 6.92413 12.0311 7.39021 12.0311 7.87496C12.0311 9.26913 11.306 10.511 10.1761 11.3248C10.011 11.4438 9.8378 11.5529 9.65697 11.6526L9.63538 11.6643C8.82568 12.1005 7.9196 12.3269 6.99988 12.3229C6.08017 12.3269 5.1741 12.1005 4.36438 11.6643C4.18667 11.5676 4.01487 11.4605 3.84988 11.3435L3.82363 11.3248C2.69372 10.511 1.96863 9.26913 1.96863 7.87496C1.96863 7.39079 2.05613 6.92413 2.2183 6.48721C1.95137 6.25619 1.73854 5.96927 1.5949 5.64679C1.45127 5.32432 1.38035 4.97419 1.38717 4.62124C1.39399 4.26828 1.47839 3.92116 1.63438 3.60447C1.79037 3.28779 2.01414 3.00931 2.2898 2.78878C2.56546 2.56825 2.88627 2.41108 3.22947 2.3284C3.57267 2.24573 3.92986 2.23959 4.2757 2.31041C4.62154 2.38123 4.94756 2.52728 5.23064 2.7382C5.51372 2.94912 5.74693 3.21974 5.91372 3.53088C6.27161 3.46154 6.63534 3.42676 6.99988 3.42704C7.37322 3.42704 7.73605 3.46263 8.08605 3.53088C8.29161 3.14681 8.59759 2.82576 8.97134 2.602C9.3451 2.37824 9.7726 2.26016 10.2082 2.26038ZM7.8883 9.56488C7.82413 9.68388 7.7133 9.78304 7.57738 9.85479C7.41638 9.93996 7.21572 9.98954 6.99988 9.98954C6.78405 9.98954 6.58338 9.93996 6.42238 9.85538C6.2926 9.79119 6.18465 9.69014 6.11205 9.56488C5.78241 9.68767 5.4816 9.87707 5.22839 10.1212C4.97518 10.3654 4.77498 10.6592 4.6403 10.9841C5.3607 11.3884 6.17382 11.5984 6.99988 11.5937C7.82595 11.5984 8.63906 11.3884 9.35947 10.9841C9.22518 10.6589 9.02512 10.365 8.77186 10.1208C8.51859 9.87652 8.21816 9.68727 7.8883 9.56488ZM6.99988 4.15621C4.59888 4.15621 2.6978 5.84788 2.6978 7.87496C2.6978 8.92438 3.2053 9.88163 4.02897 10.563C4.29379 9.99868 4.71385 9.52149 5.23998 9.18722C5.7661 8.85295 6.37655 8.67543 6.99988 8.67543C7.62322 8.67543 8.23366 8.85295 8.75979 9.18722C9.28592 9.52149 9.70597 9.99868 9.9708 10.563C10.7945 9.88163 11.302 8.92379 11.302 7.87496C11.302 5.84788 9.4003 4.15621 6.99988 4.15621ZM3.79155 2.98954C3.46654 2.98947 3.14852 3.08383 2.87615 3.26116C2.60378 3.43848 2.38881 3.69113 2.25737 3.98837C2.12592 4.28561 2.08368 4.61464 2.13578 4.93544C2.18787 5.25625 2.33206 5.555 2.5508 5.79538C3.11547 4.85388 4.04997 4.11421 5.18105 3.72629C5.02728 3.4993 4.82022 3.31345 4.57798 3.18501C4.33575 3.05657 4.06573 2.98946 3.79155 2.98954ZM10.2082 2.98954C9.63947 2.98954 9.12438 3.27538 8.81872 3.72629C9.95038 4.11421 10.8843 4.85388 11.449 5.79538C11.6677 5.555 11.8119 5.25625 11.864 4.93544C11.9161 4.61464 11.8738 4.28561 11.7424 3.98837C11.611 3.69113 11.396 3.43848 11.1236 3.26116C10.8512 3.08383 10.5332 2.98947 10.2082 2.98954Z" fill="#F34A25"/>
</svg>
