<svg width="14" height="14" viewBox="0 0 14 14" fill="none" xmlns="http://www.w3.org/2000/svg">
<path d="M2.49979 8L0.719791 10.55C0.639499 10.7064 0.601845 10.8811 0.610623 11.0567C0.619401 11.2323 0.674301 11.4024 0.769791 11.55C0.859861 11.6941 0.985173 11.8129 1.1339 11.8951C1.28262 11.9774 1.44985 12.0203 1.61979 12.02H12.3798C12.5497 12.0203 12.717 11.9774 12.8657 11.8951C13.0144 11.8129 13.1397 11.6941 13.2298 11.55C13.3176 11.398 13.3638 11.2255 13.3638 11.05C13.3638 10.8745 13.3176 10.702 13.2298 10.55L11.4998 8" stroke="#F34A25" stroke-linecap="round" stroke-linejoin="round"/>
<path d="M3.5 2C3.23478 2 2.98043 2.10536 2.79289 2.29289C2.60536 2.48043 2.5 2.73478 2.5 3V8H11.5V3C11.5 2.73478 11.3946 2.48043 11.2071 2.29289C11.0196 2.10536 10.7652 2 10.5 2H3.5Z" stroke="#F34A25" stroke-linecap="round" stroke-linejoin="round"/>
</svg>
