<svg width="14" height="14" viewBox="0 0 14 14" fill="none" xmlns="http://www.w3.org/2000/svg">
<g clip-path="url(#clip0_309_353)">
<path d="M11.741 11.468C11.7393 11.4633 11.7373 11.4587 11.735 11.4543L9.24779 6.15727L10.3689 4.39742C10.3711 4.39427 10.3731 4.39098 10.3749 4.38758C10.4565 4.25161 10.4995 4.09605 10.4995 3.9375C10.4995 3.77895 10.4565 3.62339 10.3749 3.48742C10.37 3.47867 10.364 3.46992 10.3585 3.46172L9.18709 1.78828V0.4375C9.18709 0.321468 9.141 0.210188 9.05895 0.128141C8.9769 0.0460936 8.86562 0 8.74959 0C8.63356 0 8.52228 0.0460936 8.44023 0.128141C8.35818 0.210188 8.31209 0.321468 8.31209 0.4375V1.77297L8.02443 2.13281C7.90147 2.2865 7.74552 2.41056 7.56812 2.49582C7.39072 2.58108 7.19641 2.62534 6.99959 2.62534C6.80277 2.62534 6.60846 2.58108 6.43106 2.49582C6.25366 2.41056 6.09771 2.2865 5.97475 2.13281L5.68709 1.77297V0.4375C5.68709 0.321468 5.641 0.210188 5.55895 0.128141C5.4769 0.0460936 5.36562 0 5.24959 0C5.13356 0 5.02228 0.0460936 4.94023 0.128141C4.85818 0.210188 4.81209 0.321468 4.81209 0.4375V1.78828L3.64068 3.46172C3.63522 3.46992 3.6292 3.47867 3.62428 3.48742C3.54273 3.62339 3.49965 3.77895 3.49965 3.9375C3.49965 4.09605 3.54273 4.25161 3.62428 4.38758C3.62608 4.39098 3.62809 4.39427 3.63029 4.39742L4.75139 6.15727L2.2642 11.4543C2.26187 11.4587 2.25986 11.4633 2.25818 11.468C2.20119 11.601 2.17809 11.7461 2.19097 11.8903C2.20384 12.0345 2.25228 12.1732 2.33195 12.2941C2.41161 12.4149 2.52002 12.5141 2.64744 12.5828C2.77487 12.6515 2.91734 12.6874 3.06209 12.6875H10.9371C11.0819 12.6875 11.2244 12.6516 11.3519 12.583C11.4794 12.5144 11.5879 12.4152 11.6676 12.2943C11.7474 12.1734 11.7958 12.0347 11.8087 11.8905C11.8216 11.7462 11.7986 11.6011 11.7415 11.468H11.741ZM4.37459 3.9375L5.27311 2.65617L5.29115 2.67914C5.49609 2.93542 5.75605 3.1423 6.05178 3.28448C6.34752 3.42666 6.67145 3.50048 6.99959 3.50048C7.32773 3.50048 7.65166 3.42666 7.9474 3.28448C8.24313 3.1423 8.5031 2.93542 8.70803 2.67914L8.72608 2.65617L9.62459 3.9375L8.51006 5.6875H5.48967L4.37459 3.9375ZM3.06209 11.8125L5.52686 6.5625H8.47123L10.9371 11.8125H3.06209Z" fill="#F34A25"/>
</g>
<defs>
<clipPath id="clip0_309_353">
<rect width="14" height="14" fill="white"/>
</clipPath>
</defs>
</svg>
