<svg width="14" height="14" viewBox="0 0 14 14" fill="none" xmlns="http://www.w3.org/2000/svg">
<g clip-path="url(#clip0_309_309)">
<path d="M2.7168 9.66602H4.3688" stroke="#F34A25" stroke-linecap="round" stroke-linejoin="round"/>
<path d="M3.54297 8.84009V10.4921" stroke="#F34A25" stroke-linecap="round" stroke-linejoin="round"/>
<path d="M10.3133 6.55591H3.78027V6.56091C3.24166 6.53104 2.70455 6.64177 2.22168 6.88224C1.73881 7.1227 1.32679 7.48463 1.02609 7.93248C0.725382 8.38032 0.546334 8.89867 0.506527 9.43664C0.46672 9.9746 0.567524 10.5137 0.799037 11.0009C1.03055 11.4881 1.38481 11.9067 1.82703 12.2157C2.26924 12.5246 2.78421 12.7132 3.32134 12.7629C3.85848 12.8126 4.39931 12.7218 4.89073 12.4993C5.38214 12.2768 5.80724 11.9303 6.12427 11.4939H7.79527C8.10804 11.9244 8.52604 12.2675 9.00928 12.4902C9.49252 12.713 10.0248 12.8081 10.5553 12.7663C11.0858 12.7246 11.5967 12.5474 12.0391 12.2518C12.4816 11.9561 12.8408 11.5519 13.0824 11.0778C13.3239 10.6037 13.4398 10.0755 13.4189 9.54378C13.398 9.01207 13.241 8.49461 12.963 8.04091C12.685 7.5872 12.2952 7.21242 11.8309 6.95242C11.3666 6.69242 10.8434 6.5559 10.3113 6.55591H10.3133Z" stroke="#F34A25" stroke-linecap="round" stroke-linejoin="round"/>
<path d="M9.36719 10.7419C9.30088 10.7419 9.2373 10.7156 9.19041 10.6687C9.14353 10.6218 9.11719 10.5582 9.11719 10.4919C9.11719 10.4256 9.14353 10.3621 9.19041 10.3152C9.2373 10.2683 9.30088 10.2419 9.36719 10.2419" stroke="#F34A25" stroke-linecap="round" stroke-linejoin="round"/>
<path d="M9.36719 10.7419C9.43349 10.7419 9.49708 10.7156 9.54396 10.6687C9.59085 10.6218 9.61719 10.5582 9.61719 10.4919C9.61719 10.4256 9.59085 10.3621 9.54396 10.3152C9.49708 10.2683 9.43349 10.2419 9.36719 10.2419" stroke="#F34A25" stroke-linecap="round" stroke-linejoin="round"/>
<path d="M11.0547 8.99194C10.9884 8.99194 10.9248 8.9656 10.8779 8.91872C10.831 8.87184 10.8047 8.80825 10.8047 8.74194C10.8047 8.67564 10.831 8.61205 10.8779 8.56517C10.9248 8.51828 10.9884 8.49194 11.0547 8.49194" stroke="#F34A25" stroke-linecap="round" stroke-linejoin="round"/>
<path d="M11.0547 8.99194C11.121 8.99194 11.1846 8.9656 11.2315 8.91872C11.2783 8.87184 11.3047 8.80825 11.3047 8.74194C11.3047 8.67564 11.2783 8.61205 11.2315 8.56517C11.1846 8.51828 11.121 8.49194 11.0547 8.49194" stroke="#F34A25" stroke-linecap="round" stroke-linejoin="round"/>
<path d="M3.19629 1.45C3.67229 1.135 5.09829 0.5 7.00029 0.5C8.90229 0.5 10.3283 1.134 10.8043 1.45" stroke="#F34A25" stroke-linecap="round" stroke-linejoin="round"/>
<path d="M5.09863 3.82803C5.41563 3.67003 6.24063 3.35303 7.00063 3.35303C7.76063 3.35303 8.58563 3.67003 8.90263 3.82803" stroke="#F34A25" stroke-linecap="round" stroke-linejoin="round"/>
</g>
<defs>
<clipPath id="clip0_309_309">
<rect width="14" height="14" fill="white"/>
</clipPath>
</defs>
</svg>
