<svg width="14" height="14" viewBox="0 0 14 14" fill="none" xmlns="http://www.w3.org/2000/svg">
<path d="M10.0625 5.29375V4.8125C10.0625 4.34837 9.87813 3.90325 9.54994 3.57506C9.22175 3.24687 8.77663 3.0625 8.3125 3.0625H7.4375V1.75H9.1875C9.30353 1.75 9.41481 1.79609 9.49686 1.87814C9.57891 1.96019 9.625 2.07147 9.625 2.1875C9.625 2.30353 9.67109 2.41481 9.75314 2.49686C9.83519 2.57891 9.94647 2.625 10.0625 2.625C10.1785 2.625 10.2898 2.57891 10.3719 2.49686C10.4539 2.41481 10.5 2.30353 10.5 2.1875C10.5 1.8394 10.3617 1.50556 10.1156 1.25942C9.86944 1.01328 9.5356 0.875 9.1875 0.875H5.6875C5.57147 0.875 5.46019 0.921094 5.37814 1.00314C5.29609 1.08519 5.25 1.19647 5.25 1.3125C5.25 1.42853 5.29609 1.53981 5.37814 1.62186C5.46019 1.70391 5.57147 1.75 5.6875 1.75H6.5625V3.0625H5.6875C5.22337 3.0625 4.77825 3.24687 4.45006 3.57506C4.12187 3.90325 3.9375 4.34837 3.9375 4.8125V5.29375C3.44373 5.39527 3.00007 5.66393 2.68129 6.05443C2.36251 6.44494 2.18812 6.9334 2.1875 7.4375V11.8125C2.1875 12.0446 2.27969 12.2671 2.44378 12.4312C2.60788 12.5953 2.83044 12.6875 3.0625 12.6875H10.9375C11.1696 12.6875 11.3921 12.5953 11.5562 12.4312C11.7203 12.2671 11.8125 12.0446 11.8125 11.8125V7.4375C11.8119 6.9334 11.6375 6.44494 11.3187 6.05443C10.9999 5.66393 10.5563 5.39527 10.0625 5.29375ZM5.6875 3.9375H8.3125C8.54456 3.9375 8.76712 4.02969 8.93122 4.19378C9.09531 4.35788 9.1875 4.58044 9.1875 4.8125V5.25H4.8125V4.8125C4.8125 4.58044 4.90469 4.35788 5.06878 4.19378C5.23288 4.02969 5.45544 3.9375 5.6875 3.9375ZM10.9375 11.8125H3.0625V7.4375C3.0625 7.0894 3.20078 6.75556 3.44692 6.50942C3.69306 6.26328 4.0269 6.125 4.375 6.125H9.625C9.9731 6.125 10.3069 6.26328 10.5531 6.50942C10.7992 6.75556 10.9375 7.0894 10.9375 7.4375V11.8125Z" fill="#F34A25"/>
</svg>
