<svg width="14" height="14" viewBox="0 0 14 14" fill="none" xmlns="http://www.w3.org/2000/svg">
<g clip-path="url(#clip0_309_324)">
<path d="M11.5 0.5H2.5C2.23478 0.5 1.98043 0.605357 1.79289 0.792893C1.60536 0.98043 1.5 1.23478 1.5 1.5V12.5C1.5 12.7652 1.60536 13.0196 1.79289 13.2071C1.98043 13.3946 2.23478 13.5 2.5 13.5H11.5C11.7652 13.5 12.0196 13.3946 12.2071 13.2071C12.3946 13.0196 12.5 12.7652 12.5 12.5V1.5C12.5 1.23478 12.3946 0.98043 12.2071 0.792893C12.0196 0.605357 11.7652 0.5 11.5 0.5Z" stroke="#F34A25" stroke-width="1.03238" stroke-linecap="round" stroke-linejoin="round"/>
<path d="M9.959 9H9.118C8.383 9 7.658 8.829 7 8.5C6.34238 8.17119 5.61724 8 4.882 8H4.042M10 8.5C10 8.89397 9.9224 9.28407 9.77164 9.64805C9.62087 10.012 9.3999 10.3427 9.12132 10.6213C8.84274 10.8999 8.51203 11.1209 8.14805 11.2716C7.78407 11.4224 7.39397 11.5 7 11.5C6.60603 11.5 6.21593 11.4224 5.85195 11.2716C5.48797 11.1209 5.15726 10.8999 4.87868 10.6213C4.6001 10.3427 4.37913 10.012 4.22836 9.64805C4.0776 9.28407 4 8.89397 4 8.5C4 7.70435 4.31607 6.94129 4.87868 6.37868C5.44129 5.81607 6.20435 5.5 7 5.5C7.79565 5.5 8.55871 5.81607 9.12132 6.37868C9.68393 6.94129 10 7.70435 10 8.5Z" stroke="#F34A25" stroke-width="1.03238" stroke-linecap="round" stroke-linejoin="round"/>
<path d="M1.5 3.5H12.5" stroke="#F34A25" stroke-width="1.03238" stroke-linecap="round" stroke-linejoin="round"/>
</g>
<defs>
<clipPath id="clip0_309_324">
<rect width="14" height="14" fill="white"/>
</clipPath>
</defs>
</svg>
