<svg width="14" height="10" viewBox="0 0 14 10" fill="none" xmlns="http://www.w3.org/2000/svg">
<path d="M11.3746 4.56266C11.3361 4.56266 11.2989 4.56703 11.2609 4.56834L10.6035 1.50099H12.2493V0.626224H10.0624C9.99718 0.626205 9.93276 0.640782 9.87388 0.66889C9.81499 0.696997 9.76315 0.737922 9.72213 0.788665C9.68112 0.839408 9.65198 0.898684 9.63684 0.96215C9.62171 1.02562 9.62097 1.09166 9.63467 1.15546L9.89622 2.37575H5.4205L4.98312 1.06361H6.12599V0.188843H3.06433V1.06361H4.06155L4.51687 2.42955L3.3928 4.67769C2.88265 4.52144 2.33699 4.52441 1.82856 4.68618C1.32014 4.84796 0.873102 5.16087 0.547048 5.58319C0.220994 6.00552 0.0314119 6.51719 0.00357522 7.05001C-0.0242615 7.58282 0.110969 8.11147 0.391241 8.56547C0.671512 9.01947 1.08351 9.37726 1.57231 9.59113C2.06111 9.80501 2.60349 9.86482 3.12714 9.76259C3.6508 9.66035 4.13085 9.40093 4.50331 9.01891C4.87577 8.63688 5.12294 8.1504 5.21187 7.62432H6.35343C6.48467 7.62466 6.61428 7.59533 6.73258 7.53852C6.85089 7.48172 6.95482 7.39891 7.03662 7.29629L10.1237 3.43684L10.4053 4.75073C9.80021 4.99328 9.30726 5.45272 9.02278 6.03929C8.73829 6.62587 8.68272 7.29744 8.86691 7.92279C9.05111 8.54815 9.46183 9.08237 10.0189 9.42109C10.5759 9.75981 11.2392 9.87869 11.8791 9.75451C12.5191 9.63032 13.0898 9.27199 13.4797 8.74953C13.8697 8.22707 14.0508 7.578 13.9877 6.92914C13.9246 6.28027 13.6219 5.67823 13.1387 5.24062C12.6555 4.80302 12.0265 4.56128 11.3746 4.56266ZM2.62694 8.93647C2.3814 8.93694 2.1385 8.88572 1.91406 8.78614C1.68961 8.68656 1.48864 8.54085 1.32421 8.35848C1.15979 8.17612 1.03559 7.96118 0.959702 7.72766C0.883813 7.49413 0.857931 7.24725 0.883739 7.00307C0.909547 6.75888 0.986466 6.52286 1.1095 6.31036C1.23252 6.09786 1.39891 5.91363 1.59782 5.76967C1.79674 5.62571 2.02373 5.52523 2.26403 5.47476C2.50434 5.4243 2.75257 5.42499 2.9926 5.47678L2.23593 6.99143L2.23986 6.99318C2.20808 7.05291 2.19085 7.1193 2.18956 7.18694C2.1889 7.28536 2.22168 7.38108 2.28253 7.45843C2.34338 7.53578 2.4287 7.59017 2.52451 7.61268C2.62032 7.6352 2.72093 7.62451 2.80987 7.58236C2.8988 7.54021 2.97079 7.46911 3.01403 7.3807L3.0184 7.38245L3.77157 5.8748C4.04136 6.10733 4.2334 6.41696 4.3218 6.76198C4.41021 7.107 4.39074 7.47083 4.26601 7.80445C4.14129 8.13806 3.9173 8.42543 3.62424 8.62784C3.33117 8.83024 2.98311 8.93796 2.62694 8.93647ZM5.21187 6.74956C5.09733 6.07657 4.72502 5.47472 4.17396 5.07177L4.90789 3.60304L5.95673 6.74956H5.21187ZM6.72433 6.28594L5.71223 3.25051H9.15224L6.72433 6.28594ZM11.3746 8.93647C10.9807 8.93772 10.5981 8.80565 10.2889 8.56176C9.97963 8.31787 9.76204 7.97652 9.67149 7.59324C9.58095 7.20996 9.62277 6.80731 9.79016 6.45083C9.95755 6.09434 10.2407 5.80499 10.5934 5.62987L10.9468 7.27879L10.9556 7.27704C10.9749 7.37427 11.0271 7.46187 11.1034 7.52512C11.1797 7.58838 11.2755 7.62341 11.3746 7.62432C11.4906 7.62432 11.6018 7.57824 11.6838 7.49622C11.7659 7.41419 11.812 7.30294 11.812 7.18694C11.8092 7.15632 11.803 7.1261 11.7936 7.09684L11.8023 7.09509L11.4489 5.44485C11.9066 5.46251 12.3389 5.65921 12.6529 5.99259C12.9669 6.32596 13.1374 6.76934 13.1277 7.2272C13.1179 7.68507 12.9287 8.12078 12.6008 8.44049C12.2729 8.7602 11.8325 8.93831 11.3746 8.93647Z" fill="#F34A25"/>
</svg>
