<svg width="14" height="14" viewBox="0 0 14 14" fill="none" xmlns="http://www.w3.org/2000/svg">
<g clip-path="url(#clip0_309_366)">
<path d="M3.18461 13.125H10.2222C10.973 13.125 11.5811 12.516 11.5811 11.7653V6.04975C12.8122 5.96138 13.5376 4.58325 12.8717 3.50787L12.4911 2.89363C12.3418 2.6523 12.1332 2.45313 11.8853 2.31501C11.6374 2.17688 11.3583 2.10438 11.0745 2.10438H10.0455V1.68175C10.0456 1.57585 10.0248 1.47096 9.98439 1.37309C9.94394 1.27521 9.8846 1.18627 9.80975 1.11134C9.73491 1.03642 9.64603 0.976981 9.5482 0.936427C9.45037 0.895873 9.34551 0.875 9.23961 0.875C8.73231 0.875 8.2458 1.07652 7.88709 1.43523C7.52838 1.79394 7.32686 2.28046 7.32686 2.78775V5.35675C6.36786 5.46438 5.63811 5.92725 5.10261 6.57125C4.50061 7.294 4.14886 8.23287 3.93886 9.12975C3.75839 9.93884 3.65584 10.7634 3.63261 11.592C3.62386 11.8475 3.62386 12.0715 3.62561 12.25H3.18548C2.90546 12.25 2.63152 12.1682 2.39737 12.0147C2.16321 11.8611 1.97903 11.6424 1.86748 11.3856C1.75593 11.1287 1.72186 10.8449 1.76948 10.569C1.81709 10.293 1.94431 10.037 2.13548 9.83238L2.83286 9.08425C3.32402 8.5575 3.59159 7.86068 3.57918 7.14057C3.56678 6.42046 3.27538 5.73327 2.76636 5.22375L2.08211 4.53862C2.04175 4.49684 1.99347 4.46351 1.9401 4.44058C1.88672 4.41765 1.82931 4.40558 1.77122 4.40508C1.71313 4.40457 1.65552 4.41564 1.60175 4.43764C1.54798 4.45964 1.49914 4.49212 1.45806 4.5332C1.41698 4.57428 1.38449 4.62313 1.3625 4.6769C1.3405 4.73066 1.32943 4.78827 1.32993 4.84636C1.33044 4.90445 1.34251 4.96186 1.36544 5.01524C1.38837 5.06862 1.42169 5.11689 1.46348 5.15725L2.14861 5.84237C2.49753 6.19141 2.69729 6.66229 2.70578 7.15574C2.71427 7.6492 2.53082 8.12667 2.19411 8.4875L1.49586 9.23563C1.1889 9.56497 0.984752 9.97675 0.908454 10.4205C0.832155 10.8641 0.887025 11.3205 1.06633 11.7334C1.24564 12.1464 1.54159 12.498 1.91787 12.7452C2.29415 12.9924 2.7344 13.1244 3.18461 13.125ZM9.17048 1.75262V2.54188C9.17048 2.65791 9.21657 2.76919 9.29862 2.85123C9.38067 2.93328 9.49195 2.97937 9.60798 2.97937H11.0745C11.3484 2.97937 11.603 3.12113 11.7482 3.35475L12.1289 3.969C12.2035 4.089 12.2447 4.22679 12.2481 4.36808C12.2515 4.50936 12.2171 4.64898 12.1483 4.77246C12.0796 4.89593 11.979 4.99876 11.8571 5.07027C11.7352 5.14178 11.5964 5.17936 11.4551 5.17913H11.1445C11.0284 5.17913 10.9172 5.22522 10.8351 5.30727C10.7531 5.38931 10.707 5.50059 10.707 5.61663V11.7653C10.707 11.8938 10.6559 12.0171 10.565 12.108C10.4741 12.1989 10.3508 12.25 10.2222 12.25H9.73836V11.7653C9.73847 11.4656 9.67955 11.1689 9.56497 10.892C9.45038 10.6152 9.28237 10.3636 9.07054 10.1517C8.85871 9.93977 8.6072 9.77167 8.33038 9.65697C8.05357 9.54228 7.75687 9.48325 7.45723 9.48325H6.68898C6.57295 9.48325 6.46167 9.52934 6.37962 9.61139C6.29757 9.69344 6.25148 9.80472 6.25148 9.92075C6.25148 10.0368 6.29757 10.1481 6.37962 10.2301C6.46167 10.3122 6.57295 10.3583 6.68898 10.3583H7.45723C8.23336 10.3583 8.86336 10.9882 8.86336 11.7653V12.25H4.50061C4.49798 12.0811 4.49886 11.8676 4.50673 11.6209C4.52773 10.9891 4.59861 10.1553 4.79111 9.32837C4.98536 8.49538 5.29598 7.70525 5.77461 7.13125C6.23923 6.573 6.86836 6.20812 7.76436 6.20812C7.88039 6.20812 7.99167 6.16203 8.07371 6.07998C8.15576 5.99794 8.20185 5.88666 8.20185 5.77062V2.78775C8.20185 2.23825 8.62973 1.78763 9.17048 1.75262Z" fill="#F34A25"/>
</g>
<defs>
<clipPath id="clip0_309_366">
<rect width="14" height="14" fill="white"/>
</clipPath>
</defs>
</svg>
