<svg width="26" height="21" viewBox="0 0 26 21" fill="none" xmlns="http://www.w3.org/2000/svg">
<g clip-path="url(#clip0_959_3968)">
<path d="M26.0006 10.4004C25.9348 10.6938 25.8764 10.9885 25.8011 11.2791C25.5501 12.2486 25.0603 13.0854 24.3683 13.8056C24.0189 14.1694 23.5453 14.1972 23.2217 13.878C22.911 13.5718 22.9286 13.105 23.2638 12.748C24.8791 11.0264 24.8825 8.5332 23.2705 6.79743C22.8065 6.29743 22.9652 5.62399 23.5867 5.46138C23.8669 5.38821 24.1098 5.47426 24.3058 5.67141C25.2109 6.57995 25.7557 7.67141 25.947 8.93903C25.9592 9.021 25.9823 9.10163 26.0006 9.18293V10.3997V10.4004Z" fill="#F34A25"/>
<path d="M18.1302 19.5346C18.1302 19.8083 18.1363 20.0366 18.1288 20.2642C18.1145 20.6863 17.795 20.9966 17.3812 21C16.9578 21.0041 16.6227 20.6863 16.6084 20.2595C16.6009 20.0318 16.607 19.8042 16.607 19.5556H9.39044C9.39044 19.7439 9.39044 19.935 9.39044 20.126C9.38908 20.6633 9.09192 21.0014 8.62244 21C8.15432 20.9987 7.86733 20.6653 7.8653 20.1192C7.86462 19.935 7.8653 19.7514 7.8653 19.5339C7.6923 19.5339 7.54236 19.5379 7.3931 19.5332C6.96433 19.5203 6.66717 19.2283 6.64274 18.7995C6.63935 18.7405 6.64003 18.6809 6.64003 18.622C6.64003 12.7229 6.64003 6.82385 6.63867 0.924124C6.63867 0.682932 6.65428 0.451225 6.82728 0.260845C7.00367 0.0643684 7.22553 -0.000672277 7.48605 5.22949e-06C9.01797 0.00474778 10.5499 0.00203775 12.0818 0.00203775C14.206 0.00203775 16.3302 0.00203775 18.4544 0.00203775C19.0766 0.00203775 19.3575 0.277106 19.3581 0.891604C19.3588 6.80759 19.3588 12.7236 19.3581 18.6403C19.3581 19.2602 19.0813 19.5325 18.4592 19.5346C18.3601 19.5346 18.2611 19.5346 18.1308 19.5346H18.1302ZM13.0059 3.18564C11.5533 3.18158 10.3626 4.35028 10.3552 5.78727C10.347 7.26085 11.5255 8.458 12.9916 8.46613C14.4381 8.47426 15.6409 7.27711 15.6423 5.82724C15.6443 4.3645 14.472 3.18971 13.0059 3.18496V3.18564ZM13.0059 16.355C14.4815 16.3496 15.6504 15.166 15.6423 13.6863C15.6348 12.2527 14.432 11.0678 12.9916 11.0759C11.5214 11.0847 10.3477 12.2758 10.3552 13.7507C10.3626 15.187 11.5567 16.3604 13.0059 16.355Z" fill="#F34A25"/>
<path d="M2.36134e-06 9.27639C0.0169635 8.1917 0.561754 6.84279 1.64862 5.71542C1.98649 5.36515 2.45529 5.34414 2.77619 5.65783C3.08082 5.95593 3.072 6.42409 2.75584 6.76894C1.10587 8.56704 1.10722 10.9735 2.75788 12.7703C3.07335 13.1138 3.08014 13.584 2.77416 13.8814C2.45393 14.1924 1.98649 14.1673 1.64591 13.8211C0.582107 12.7425 -0.00135453 11.2994 2.36134e-06 9.27639Z" fill="#F34A25"/>
<path d="M4.47042 7.19653C4.87952 7.22228 5.11494 7.36185 5.2486 7.64979C5.39311 7.96076 5.30084 8.22567 5.11562 8.4987C4.92498 8.77987 4.72145 9.07594 4.63054 9.39572C4.4616 9.98854 4.6475 10.5285 5.05863 10.9852C5.24249 11.1891 5.36529 11.4147 5.31034 11.6952C5.25267 11.9892 5.08713 12.2053 4.79065 12.2941C4.49078 12.3842 4.22618 12.3151 3.99958 12.0956C2.73225 10.8707 2.73157 8.66401 3.99958 7.44247C4.0179 7.42485 4.0335 7.40114 4.05521 7.39098C4.21804 7.31306 4.38222 7.23786 4.4711 7.19653H4.47042Z" fill="#F34A25"/>
<path d="M22.9563 9.78383C22.938 10.6605 22.6388 11.4275 22.0255 12.0657C21.7032 12.4004 21.2303 12.422 20.9155 12.1273C20.6028 11.8346 20.5953 11.3943 20.8972 11.0359C21.6055 10.1944 21.6062 9.33735 20.8993 8.50673C20.5899 8.14358 20.6035 7.68898 20.9318 7.39765C21.2514 7.11445 21.7039 7.13816 22.0228 7.46879C22.6435 8.11242 22.9441 8.88816 22.9577 9.7845L22.9563 9.78383Z" fill="#F34A25"/>
<path d="M14.1247 5.81102C14.1281 6.43974 13.6376 6.94313 13.0148 6.94923C12.3784 6.956 11.8736 6.45465 11.875 5.81644C11.8757 5.19652 12.3804 4.68839 12.9971 4.68568C13.6125 4.68297 14.1213 5.19178 14.1247 5.81102Z" fill="#F34A25"/>
<path d="M14.1241 13.7174C14.1241 14.3387 13.6234 14.8475 13.0067 14.8536C12.3934 14.859 11.8798 14.3502 11.875 13.7323C11.8696 13.0968 12.3751 12.584 13.0053 12.5867C13.6254 12.5894 14.1241 13.0935 14.1248 13.7174H14.1241Z" fill="#F34A25"/>
</g>
<defs>
<clipPath id="clip0_959_3968">
<rect width="26" height="21" fill="white"/>
</clipPath>
</defs>
</svg>
