<svg width="22" height="24" viewBox="0 0 22 24" fill="none" xmlns="http://www.w3.org/2000/svg">
<path d="M11.0097 1.99992C12.945 1.99992 14.8802 1.99992 16.8154 1.99992C18.4309 2.00045 19.7277 3.11064 19.9725 4.70306C19.9903 4.8189 19.9961 4.93788 19.9956 5.05477C19.9935 6.00928 20.0149 6.96432 19.9788 7.91778C19.9264 9.29005 18.7522 10.5512 17.3899 10.7436C17.1902 10.7719 16.9868 10.7855 16.785 10.7855C12.9277 10.7881 9.07032 10.7876 5.21297 10.7871C3.5781 10.7871 2.3159 9.72668 2.03075 8.11224C2.01503 8.02261 2.00926 7.92983 2.00926 7.83915C2.01083 6.81965 1.97834 5.79804 2.02656 4.78063C2.08998 3.46078 3.28718 2.22846 4.61909 2.04238C4.81251 2.01565 5.00907 2.00202 5.20406 2.00202C7.13929 1.99888 9.07452 1.99992 11.0097 1.99992ZM10.9998 4.09607C9.73549 4.09607 8.7076 5.12239 8.70341 6.38826C8.69921 7.64993 9.72239 8.67992 10.9903 8.6904C12.2562 8.70088 13.3019 7.65674 13.2967 6.38773C13.2914 5.12082 12.2636 4.09502 10.9998 4.09555V4.09607Z" fill="#F34A25"/>
<path d="M10.9982 13.7257C9.48179 13.7257 7.96485 13.7257 6.44843 13.7257C6.17691 13.7257 5.96253 13.6161 5.83725 13.3745C5.72718 13.1627 5.74185 12.9431 5.8729 12.7413C5.9966 12.5515 6.18058 12.464 6.4044 12.4603C6.61354 12.4572 6.82321 12.4525 7.03183 12.4614C7.14662 12.4661 7.19432 12.4215 7.21948 12.3156C7.26037 12.1448 7.3196 11.9781 7.35786 11.8067C7.38984 11.6641 7.45431 11.6127 7.60999 11.6138C9.34865 11.6206 11.0878 11.618 12.8265 11.618C13.3559 11.618 13.8853 11.6216 14.4147 11.6154C14.539 11.6138 14.6045 11.6437 14.6328 11.7737C14.6726 11.9582 14.7392 12.1364 14.7827 12.3204C14.8089 12.431 14.8639 12.4656 14.9735 12.4614C15.1695 12.4535 15.3656 12.4556 15.5616 12.4603C15.9652 12.4703 16.2362 12.7303 16.232 13.0977C16.2278 13.4604 15.9448 13.7246 15.548 13.7251C14.0316 13.7272 12.5146 13.7257 10.9982 13.7257Z" fill="#F34A25"/>
<path d="M12.0536 6.40243C12.0473 6.97273 11.5646 7.44972 10.9964 7.44658C10.4198 7.44343 9.93493 6.94862 9.94751 6.37465C9.96009 5.80436 10.4481 5.33104 11.0142 5.34047C11.585 5.35043 12.0599 5.83529 12.0531 6.40243H12.0536Z" fill="#F34A25"/>
<path d="M13.3217 16.3224V21.2356C13.2795 21.238 11.2045 21.2417 11.1688 21.2417C9.90469 21.2417 8.6396 21.2652 7.37638 21.2342C6.21113 21.2061 5.27227 20.4594 5.05338 19.2857C4.88698 18.3937 5.1054 17.6067 5.76818 16.9693C6.14926 16.6023 6.62033 16.4101 7.14249 16.3496C7.34404 16.3262 7.54841 16.3238 7.75183 16.3234C8.87724 16.321 10.0031 16.3224 11.1285 16.3224C11.1768 16.3224 13.265 16.3224 13.3222 16.3224H13.3217ZM6.91 18.7926C6.88563 19.3588 7.40216 19.8763 7.98385 19.873C8.59929 19.8698 9.09052 19.3903 9.09052 18.7842C9.09052 18.1856 8.60445 17.7019 8.01244 17.6902C7.35529 17.6771 6.89125 18.2452 6.91 18.7926Z" fill="#F34A25"/>
<path d="M14.0063 16.3229H15.0914V17.13H17.0001V20.4284H15.098V21.2361H14.0059V16.3229H14.0063ZM16.1723 18.4978V17.969H15.645V18.4978H16.1723ZM16.1793 19.0705H15.6464V19.5946H16.1793C16.1793 19.4572 16.1793 19.3279 16.1793 19.1985C16.1793 19.1587 16.1793 19.1188 16.1793 19.0705Z" fill="#F34A25"/>
<path d="M7.44727 18.7772C7.44821 18.4763 7.70085 18.2288 8.00271 18.2326C8.29519 18.2363 8.54643 18.4894 8.5469 18.781C8.5469 19.0782 8.29144 19.3332 7.99333 19.3327C7.69335 19.3322 7.44633 19.0805 7.44727 18.7777V18.7772Z" fill="#F34A25"/>
</svg>
