<svg width="27" height="27" viewBox="0 0 27 27" fill="none" xmlns="http://www.w3.org/2000/svg">
<path d="M23.3993 20.5556C22.3326 21.0889 20.9104 20.7334 20.1993 19.6667L18.2437 17.1778H8.64375L6.6882 19.6667C5.79931 20.9111 4.19931 21.0889 2.95486 20.2C2.06597 19.4889 1.71042 18.4223 1.88819 17.5334L3.13264 10.9556C3.48819 8.82225 5.44375 7.22225 7.57708 7.22225H12.5549V4.55558C12.5549 3.13336 13.6215 1.88892 15.0438 1.88892H20.5549C21.0882 1.88892 21.4438 2.24447 21.4438 2.7778C21.4438 3.31114 21.0882 3.66669 20.5549 3.66669H15.2215C14.6882 3.66669 14.3326 4.02225 14.3326 4.37781V7.22225H19.3104C21.4438 7.22225 23.3993 8.82225 23.7549 10.9556L24.9993 17.5334C25.1771 18.7778 24.6438 20.0223 23.3993 20.5556ZM10.7771 11.6667C10.7771 10.2445 9.53264 9.00003 8.11042 9.00003C6.68819 9.00003 5.44375 10.2445 5.44375 11.6667C5.44375 13.0889 6.68819 14.3334 8.11042 14.3334C9.53264 14.3334 10.7771 13.0889 10.7771 11.6667ZM21.4438 11.6667C21.4438 11.1334 21.0882 10.7778 20.5549 10.7778H19.666V9.88892C19.666 9.35558 19.3104 9.00003 18.7771 9.00003C18.2437 9.00003 17.8882 9.35558 17.8882 9.88892V10.7778H16.9993C16.466 10.7778 16.1104 11.1334 16.1104 11.6667C16.1104 12.2 16.466 12.5556 16.9993 12.5556H17.8882V13.4445C17.8882 13.9778 18.2437 14.3334 18.7771 14.3334C19.3104 14.3334 19.666 13.9778 19.666 13.4445V12.5556H20.5549C21.0882 12.5556 21.4438 12.2 21.4438 11.6667Z" fill="#F34A25"/>
</svg>
