<svg width="24" height="24" viewBox="0 0 24 24" fill="none" xmlns="http://www.w3.org/2000/svg">
<g clip-path="url(#clip0_959_4106)">
<path d="M24.0002 6.51854V23.4916C24.0002 23.9332 23.5106 24.01 23.0786 24.01C15.6481 24.01 8.21757 24.01 0.787048 24.01C0.268639 24.01 -0.00976562 23.7412 -0.00976562 23.2228C-0.000165465 17.7507 -0.000165465 12.2882 -0.000165465 6.82575C-0.000165465 6.29774 0.278239 6.01934 0.806248 6.01934C5.40472 6.01934 10.0128 6.01934 14.6113 6.01934C14.6689 6.01934 14.7361 6.02894 14.7937 6.03854C14.8033 6.05774 14.8129 6.08654 14.8321 6.10574C14.7649 6.15374 14.6881 6.20174 14.6305 6.25934C13.8241 7.05615 13.0273 7.85297 12.2304 8.65938C11.5296 9.36979 11.04 10.1954 10.7712 11.1554C10.752 11.2322 10.7232 11.309 10.6848 11.405C10.5792 11.3378 10.4928 11.2802 10.416 11.2322C9.41759 10.5794 8.34237 10.1186 7.14235 10.0034C6.08634 9.9074 5.08792 10.0994 4.2143 10.733C2.96628 11.645 2.70708 13.2579 3.60949 14.4483C4.0031 14.9667 4.53111 15.3315 5.11672 15.6099C6.40314 16.2243 7.78556 16.3875 9.18719 16.4547C9.9648 16.4931 10.752 16.5123 11.52 16.6083C12.3648 16.7139 13.1809 16.9539 13.9009 17.4435C14.2273 17.6643 14.4961 17.9235 14.6497 18.2883C14.8609 18.8067 14.6689 19.2772 14.1409 19.4692C13.9393 19.546 13.7185 19.5748 13.4977 19.5844C13.0945 19.6132 12.7872 19.9108 12.7968 20.2852C12.7968 20.6692 13.1233 20.986 13.5361 20.9764C13.6705 20.9764 13.8049 20.9572 13.9297 20.9476C14.9473 20.8612 15.8305 20.1604 16.0513 19.2388C16.2625 18.3651 16.0033 17.5971 15.4177 16.9443C14.6017 16.0131 13.4977 15.5907 12.3264 15.3123C11.3376 15.0819 10.3296 15.0627 9.32159 15.0435C8.32317 15.0243 7.32476 14.9187 6.36474 14.6115C5.76953 14.4195 5.20312 14.1603 4.77111 13.6707C4.28151 13.1139 4.32951 12.4418 4.89592 11.9522C5.00152 11.8658 5.11672 11.7794 5.24152 11.7122C5.95193 11.3186 6.70075 11.2994 7.46876 11.453C8.66878 11.693 9.6768 12.3266 10.5888 13.1235C10.8768 13.3731 11.184 13.4691 11.5488 13.4403C13.0849 13.3155 14.3809 12.7106 15.4753 11.6162C17.2897 9.7922 19.1138 7.97777 20.9186 6.16334C21.0338 6.04814 21.149 6.00014 21.3026 6.00014C21.869 6.00014 22.445 6.01934 23.0114 6.00014C23.4434 5.98094 23.9714 6.06734 23.9714 6.50895L24.0002 6.51854ZM19.5938 15.0243C19.5938 15.7539 19.5938 16.4739 19.5938 17.2035C19.5938 17.6547 19.8722 17.9619 20.2754 17.9619C20.6978 17.9619 20.9858 17.6739 20.9954 17.2131C20.9954 15.7443 20.9954 14.2755 20.9954 12.8066C20.9954 12.365 20.6882 12.0482 20.3042 12.0482C19.901 12.0482 19.6034 12.365 19.6034 12.8258C19.6034 13.5555 19.6034 14.2947 19.6034 15.0243H19.5938Z" fill="#F34A25"/>
<path d="M24.0005 1.02717C23.8277 1.23838 23.6645 1.46878 23.4725 1.66078C20.4773 4.66563 17.482 7.66088 14.4772 10.6561C13.8628 11.2705 13.1428 11.7026 12.2979 11.9138C12.2211 11.933 12.1347 11.9426 12.0195 11.9618C12.1443 11.2225 12.4323 10.5985 12.8643 10.0417C13.0083 9.85932 13.162 9.68652 13.3348 9.51371C16.3876 6.45126 19.4501 3.38881 22.5125 0.335962C22.6469 0.20156 22.8197 0.105558 22.9637 -0.00964355C23.1077 -0.00964355 23.2421 -0.00964355 23.3861 -0.00964355C23.6837 0.105558 23.8853 0.307162 23.9909 0.595167V1.01757L24.0005 1.02717Z" fill="#F34A25"/>
</g>
<defs>
<clipPath id="clip0_959_4106">
<rect width="24.0004" height="24.01" fill="white"/>
</clipPath>
</defs>
</svg>
