<svg width="31" height="28" viewBox="0 0 31 28" fill="none" xmlns="http://www.w3.org/2000/svg">
<path d="M23 2.94995H7.88889C7.38792 2.94995 6.90748 3.12906 6.55324 3.44787C6.19901 3.76668 6 4.19908 6 4.64995V23.35C6 23.8008 6.19901 24.2332 6.55324 24.552C6.90748 24.8708 7.38792 25.05 7.88889 25.05H23C23.501 25.05 23.9814 24.8708 24.3356 24.552C24.6899 24.2332 24.8889 23.8008 24.8889 23.35V4.64995C24.8889 4.19908 24.6899 3.76668 24.3356 3.44787C23.9814 3.12906 23.501 2.94995 23 2.94995ZM15.4444 20.8C15.1643 20.8 14.8904 20.7252 14.6574 20.5851C14.4244 20.445 14.2428 20.2458 14.1356 20.0129C14.0284 19.7799 14.0003 19.5235 14.055 19.2762C14.1097 19.0289 14.2446 18.8017 14.4427 18.6234C14.6408 18.4451 14.8933 18.3236 15.1681 18.2745C15.4429 18.2253 15.7277 18.2505 15.9866 18.347C16.2454 18.4435 16.4667 18.6069 16.6224 18.8166C16.778 19.0263 16.8611 19.2728 16.8611 19.525C16.8611 19.8631 16.7119 20.1874 16.4462 20.4265C16.1805 20.6656 15.8202 20.8 15.4444 20.8ZM19.2222 12.3H11.6667C11.4162 12.3 11.176 12.2104 10.9988 12.051C10.8217 11.8916 10.7222 11.6754 10.7222 11.45C10.7222 11.2245 10.8217 11.0083 10.9988 10.8489C11.176 10.6895 11.4162 10.6 11.6667 10.6H19.2222C19.4727 10.6 19.7129 10.6895 19.89 10.8489C20.0672 11.0083 20.1667 11.2245 20.1667 11.45C20.1667 11.6754 20.0672 11.8916 19.89 12.051C19.7129 12.2104 19.4727 12.3 19.2222 12.3ZM19.2222 8.89995H11.6667C11.4162 8.89995 11.176 8.8104 10.9988 8.65099C10.8217 8.49159 10.7222 8.27539 10.7222 8.04995C10.7222 7.82452 10.8217 7.60832 10.9988 7.44891C11.176 7.28951 11.4162 7.19995 11.6667 7.19995H19.2222C19.4727 7.19995 19.7129 7.28951 19.89 7.44891C20.0672 7.60832 20.1667 7.82452 20.1667 8.04995C20.1667 8.27539 20.0672 8.49159 19.89 8.65099C19.7129 8.8104 19.4727 8.89995 19.2222 8.89995Z" fill="#F34A25"/>
</svg>
