<svg width="25" height="22" viewBox="0 0 25 22" fill="none" xmlns="http://www.w3.org/2000/svg">
<g clip-path="url(#clip0_959_3896)">
<path d="M20.4109 21.01C20.4109 20.89 20.4109 20.8 20.4109 20.7C20.4109 17.48 20.4109 14.26 20.4109 11.04C20.4109 9.62999 20.1609 8.26999 19.4809 7.01999C18.5309 5.25999 17.1309 3.98999 15.2509 3.27999C14.3609 2.93999 13.4409 2.76999 12.5009 2.76999C11.1809 2.76999 9.92089 3.07999 8.76089 3.72999C7.08089 4.66999 5.88089 6.02999 5.17089 7.81999C4.85089 8.62999 4.66089 9.46999 4.65089 10.34C4.64089 11.04 4.61089 11.74 4.60089 12.43C4.60089 15.18 4.60089 17.93 4.60089 20.68V20.99C4.52089 20.99 4.45089 21.01 4.38089 21.01C3.79089 21.01 3.19089 21 2.60089 21.01C1.19089 21.04 0.040887 19.81 0.020887 18.45C0.000887034 16.66 -0.00911297 14.87 0.020887 13.08C0.040887 11.92 0.590887 11.06 1.69089 10.61C1.82089 10.56 1.87089 10.49 1.88089 10.34C1.95089 8.05999 2.69089 5.99999 4.08089 4.19999C5.48089 2.37999 7.27089 1.12999 9.47089 0.449988C10.7309 0.0599875 12.0209 -0.0700125 13.3309 0.0299875C15.4409 0.199988 17.3409 0.929988 19.0009 2.23999C21.1009 3.90999 22.4509 6.03999 22.9509 8.68999C23.0509 9.23999 23.0909 9.79999 23.1409 10.35C23.1509 10.47 23.1709 10.54 23.2909 10.58C24.3609 11 24.9909 11.92 25.0009 13.08C25.0009 14.85 25.0009 16.63 25.0009 18.4C25.0009 19.66 24.0809 20.76 22.8509 20.98C22.6009 21.03 22.3309 21 22.0709 21C21.5309 21 20.9809 21 20.4209 21L20.4109 21.01Z" fill="#F34A25"/>
<path d="M5.4707 15.8099C5.4707 14.4099 5.4707 12.9999 5.4707 11.5999C5.4707 11.0399 5.8407 10.6299 6.3607 10.6199C6.8807 10.6099 7.2707 10.9899 7.3107 11.5499C7.3107 11.5899 7.3107 11.6299 7.3107 11.6699C7.3107 14.4299 7.3107 17.1999 7.3107 19.9599C7.3107 20.4799 7.0907 20.8299 6.6707 20.9699C6.0807 21.1699 5.4707 20.7499 5.4707 20.1299C5.4707 18.6899 5.4707 17.2599 5.4707 15.8199V15.8099Z" fill="#F34A25"/>
<path d="M19.5295 15.8C19.5295 17.24 19.5295 18.68 19.5295 20.12C19.5295 20.59 19.1595 20.97 18.6995 21C18.1895 21.03 17.7895 20.71 17.7195 20.23C17.6995 20.09 17.6895 19.94 17.6895 19.79C17.6895 17.1 17.6895 14.41 17.6895 11.72C17.6895 11.13 17.8895 10.81 18.3495 10.65C18.8995 10.46 19.5195 10.88 19.5295 11.46C19.5395 12.34 19.5295 13.22 19.5295 14.09C19.5295 14.66 19.5295 15.23 19.5295 15.8Z" fill="#F34A25"/>
</g>
<defs>
<clipPath id="clip0_959_3896">
<rect width="25" height="21.02" fill="white"/>
</clipPath>
</defs>
</svg>
