<svg width="30" height="32" viewBox="0 0 30 32" fill="none" xmlns="http://www.w3.org/2000/svg">
<g clip-path="url(#clip0_959_4186)">
<path d="M13.1709 20.2714C12.8833 19.8251 12.5957 19.3788 12.308 18.9325C11.2638 17.3123 10.2157 15.686 9.17152 14.0658C8.71838 13.3627 8.80572 12.545 9.37321 11.9888C10.0206 11.3553 11.1696 11.4195 11.7172 12.1483C12.0967 12.6565 12.4211 13.2003 12.7701 13.7282C13.1444 14.3091 13.5187 14.8899 13.8931 15.4707C13.8931 15.4707 13.9031 15.4729 13.9372 15.4855C13.8221 14.9712 13.8421 14.4651 14.1912 14.067C14.3946 13.8321 14.6627 13.5901 14.9506 13.4998C16.0598 13.1397 16.6955 13.777 17.2004 14.6544C17.1912 14.5998 17.1819 14.5452 17.1727 14.4906C17.0311 13.7338 17.3995 13.0031 18.0823 12.6929C18.7711 12.3788 19.5729 12.5889 20.0351 13.2256C20.278 13.5622 20.4843 13.9226 20.7473 14.2636C20.7403 14.1989 20.7332 14.1342 20.72 14.0735C20.5902 13.3351 20.9587 12.6044 21.6148 12.32C22.2831 12.0277 23.1194 12.2243 23.5461 12.8059C23.8525 13.2142 24.1122 13.6439 24.388 14.0719C24.9633 14.9645 25.5853 15.8357 26.0995 16.7677C27.4142 19.1567 27.2547 21.5007 25.7129 23.7405C25.3372 24.2855 24.8741 24.7484 24.3216 25.1131C23.229 25.8345 22.1561 26.5866 21.0184 27.2247C18.8325 28.4517 16.6267 28.359 14.4755 27.0889C13.6498 26.5999 12.9987 25.9119 12.4725 25.1088C11.7435 23.9777 11.0289 22.8287 10.2816 21.7095C9.68014 20.8165 10.1505 20.1499 10.9316 19.8715C11.7411 19.5834 12.479 19.7482 13.1609 20.2692L13.1709 20.2714Z" fill="#F34A25"/>
<path d="M4.34041 16.4779C2.57325 13.6016 3.01524 9.95062 5.45206 7.63593C8.24512 4.9878 12.7275 5.16225 15.318 8.02705C15.9508 8.72687 16.4267 9.5191 16.7337 10.4116C16.863 10.7869 16.7436 11.0715 16.4251 11.1816C16.129 11.2859 15.853 11.1263 15.7215 10.7611C15.3541 9.73448 14.7766 8.85191 13.9175 8.17682C12.0418 6.70313 9.96863 6.38649 7.78855 7.36752C4.89735 8.66839 3.6123 11.9109 4.75502 14.8521C5.06754 15.6458 5.53902 16.3371 6.1594 16.9237C6.42585 17.176 6.4677 17.4692 6.29665 17.7006C6.0968 17.9679 5.73499 18.0107 5.49083 17.7527C5.09572 17.341 4.72724 16.9035 4.34653 16.4739L4.34041 16.4779Z" fill="#F34A25"/>
<path d="M7.58405 14.5013C7.65103 14.6052 7.73025 14.7012 7.79723 14.8052C7.97061 15.0742 7.94602 15.3583 7.71723 15.5404C7.47404 15.7404 7.22404 15.7284 6.98165 15.4866C6.57648 15.0727 6.31588 14.5744 6.13869 14.0309C5.51854 12.1288 6.30187 10.0144 7.97327 9.04974C9.79534 7.99659 11.9734 8.31485 13.3579 9.84548C13.6118 10.1319 13.8101 10.48 14.0067 10.8119C14.1836 11.1132 14.0905 11.3983 13.8096 11.5533C13.541 11.7005 13.2499 11.6112 13.0791 11.3059C12.7944 10.7971 12.4482 10.3539 11.961 10.0276C10.7967 9.25495 9.20776 9.32714 8.16909 10.2129C7.04048 11.1739 6.68347 12.728 7.29681 14.0287C7.37698 14.1934 7.47549 14.3462 7.56788 14.503L7.58405 14.5013Z" fill="#F34A25"/>
</g>
<defs>
<clipPath id="clip0_959_4186">
<rect width="18.184" height="25.0576" fill="white" transform="translate(0.578125 10.6399) rotate(-32.8013)"/>
</clipPath>
</defs>
</svg>
