<svg width="17" height="22" viewBox="0 0 17 22" fill="none" xmlns="http://www.w3.org/2000/svg">
<g clip-path="url(#clip0_897_1020)">
<path d="M2.42857 0C1.08906 0 0 1.19116 0 2.65625V18.5938C0 20.0588 1.08906 21.25 2.42857 21.25H14.5714C15.9109 21.25 17 20.0588 17 18.5938V2.65625C17 1.19116 15.9109 0 14.5714 0H2.42857ZM6.67857 17.9297H10.3214C10.6554 17.9297 10.9286 18.2285 10.9286 18.5938C10.9286 18.959 10.6554 19.2578 10.3214 19.2578H6.67857C6.34464 19.2578 6.07143 18.959 6.07143 18.5938C6.07143 18.2285 6.34464 17.9297 6.67857 17.9297Z" fill="#F34A25"/>
</g>
<defs>
<clipPath id="clip0_897_1020">
<rect width="17" height="21.25" fill="white"/>
</clipPath>
</defs>
</svg>
