<svg width="30" height="21" viewBox="0 0 30 21" fill="none" xmlns="http://www.w3.org/2000/svg">
<g clip-path="url(#clip0_959_3914)">
<path d="M12.3264 3.6865C12.6886 2.35836 13.7258 1.85749 14.9059 1.53012C15.0475 1.4908 15.1935 1.46573 15.3346 1.42494C15.9701 1.23963 16.4081 0.843447 16.5919 0.200516C16.6371 0.0422412 16.7055 -0.00789561 16.8618 0.00144359C17.0712 0.013732 17.2815 0.00439282 17.5209 0.00439282C17.3946 0.791344 17.0731 1.43231 16.4258 1.84815C16.1023 2.05607 15.7244 2.19763 15.3527 2.30528C14.8003 2.46552 14.2478 2.61101 13.7838 2.96984C13.5513 3.14974 13.3502 3.35815 13.2495 3.6865C13.3763 3.6865 13.4716 3.6865 13.567 3.6865C17.0928 3.6865 20.6186 3.6865 24.1439 3.6865C24.2422 3.6865 24.3405 3.68404 24.4383 3.68846C25.0493 3.71501 25.4996 4.17017 25.501 4.78164C25.505 6.53152 25.5 8.28139 25.5064 10.0313C25.5069 10.192 25.445 10.2411 25.3069 10.3036C24.8846 10.4943 24.4757 10.714 24.0628 10.9244C24.0082 10.9524 23.9601 10.9937 23.8814 11.0483C23.876 10.9357 23.8691 10.8575 23.8691 10.7794C23.8681 9.98604 23.8696 9.19319 23.8681 8.39985C23.8672 8.0253 23.7379 7.88914 23.3737 7.88619C22.8502 7.88226 22.3267 7.88177 21.8032 7.88619C21.4567 7.88914 21.3239 8.01891 21.322 8.35856C21.3156 9.3554 21.3121 10.3527 21.3097 11.3496C21.3087 11.675 21.4385 11.8126 21.7698 11.818C22.2259 11.8254 22.6826 11.82 23.1357 11.82C22.9386 12.285 22.7489 12.7318 22.5484 13.2056C22.311 13.2056 22.0421 13.2022 21.7727 13.2066C21.466 13.2115 21.323 13.3536 21.321 13.6608C21.3171 14.2083 21.3171 14.7564 21.321 15.3045C21.3235 15.6092 21.4675 15.7493 21.7766 15.7552C22.0116 15.7596 22.2471 15.7562 22.5105 15.7562V17.3837C22.4353 17.3871 22.3483 17.395 22.2608 17.395C15.2422 17.3955 8.22349 17.3955 1.20483 17.395C0.436559 17.395 0.00302328 16.9634 0.00302328 16.1951C-0.000417484 12.4246 -0.000417484 8.65496 0.00056559 4.88585C0.00056559 4.12348 0.441474 3.68699 1.20827 3.68699C4.8078 3.68601 8.40684 3.68699 12.0064 3.68699H12.3264V3.6865ZM12.7309 15.7552C13.6471 15.7552 14.5633 15.7562 15.4791 15.7552C15.863 15.7547 15.9937 15.6254 15.9957 15.2381C15.9986 14.723 16.0001 14.2079 15.9952 13.6927C15.9917 13.3393 15.8531 13.2061 15.4982 13.2056C13.6658 13.2046 11.8338 13.2041 10.0014 13.2056C9.64895 13.2056 9.51279 13.3432 9.51083 13.6976C9.50788 14.2128 9.50837 14.7279 9.51083 15.243C9.5123 15.6259 9.64305 15.7542 10.0314 15.7552C10.9314 15.7567 11.8309 15.7552 12.7309 15.7552ZM15.9957 10.5434C15.9957 10.2657 16.0026 9.98751 15.9937 9.70979C15.9844 9.41291 15.8433 9.27528 15.5503 9.27282C15.0028 9.26839 14.4547 9.26889 13.9071 9.27282C13.594 9.27478 13.4539 9.41094 13.452 9.71864C13.449 10.2893 13.451 10.8595 13.4554 11.4302C13.4574 11.6764 13.5817 11.8121 13.8319 11.816C14.4041 11.8249 14.9767 11.8278 15.5489 11.8175C15.8576 11.8121 15.9863 11.6681 15.9942 11.3525C16.0011 11.0832 15.9957 10.8133 15.9962 10.5434H15.9957ZM18.65 9.27233C18.65 9.26839 18.65 9.26446 18.65 9.26053C18.3806 9.26053 18.1113 9.25758 17.8419 9.26151C17.5185 9.26594 17.3759 9.40357 17.3749 9.72405C17.3735 10.279 17.3779 10.8339 17.3862 11.3889C17.3902 11.6651 17.5327 11.815 17.8109 11.8195C18.358 11.8278 18.9051 11.8293 19.4522 11.8205C19.7948 11.815 19.9191 11.6887 19.9285 11.3368C19.9427 10.7985 19.9467 10.2593 19.9432 9.7211C19.9412 9.41586 19.7938 9.28019 19.4826 9.27429C19.2049 9.26938 18.9272 9.27331 18.6495 9.27331L18.65 9.27233ZM4.18699 14.4787C4.18699 14.201 4.19043 13.9237 4.18601 13.646C4.18109 13.3565 4.03707 13.2095 3.74608 13.2071C3.19064 13.2022 2.6357 13.2017 2.08026 13.2071C1.79124 13.21 1.64525 13.3585 1.64279 13.6495C1.63837 14.2044 1.63837 14.7594 1.64279 15.3143C1.64525 15.6019 1.7932 15.7508 2.0837 15.7537C2.63865 15.7591 3.19408 15.7591 3.74952 15.7537C4.03904 15.7508 4.18109 15.6028 4.18601 15.3109C4.19043 15.0336 4.18699 14.7559 4.18699 14.4782V14.4787ZM2.93406 9.27233C2.65634 9.27233 2.37862 9.26987 2.1014 9.27282C1.79025 9.27626 1.64525 9.4134 1.64279 9.71668C1.63837 10.2716 1.63837 10.8266 1.64279 11.3815C1.64525 11.6587 1.78829 11.8141 2.06256 11.8185C2.63373 11.8273 3.20588 11.8278 3.77705 11.8175C4.03904 11.8131 4.18207 11.6578 4.18502 11.3953C4.19043 10.8325 4.18994 10.2692 4.18551 9.70586C4.18306 9.41635 4.03756 9.27724 3.74215 9.27282C3.47278 9.26889 3.20342 9.27184 2.93406 9.27184V9.27233ZM6.84031 9.27233C6.57094 9.27233 6.30158 9.26938 6.03222 9.27282C5.72501 9.27675 5.57902 9.41586 5.57607 9.72012C5.57116 10.2667 5.57165 10.8133 5.57607 11.3599C5.57853 11.6651 5.72255 11.816 6.02485 11.82C6.57144 11.8268 7.11852 11.8264 7.66511 11.82C7.97133 11.8165 8.11683 11.6686 8.11879 11.3673C8.12224 10.8123 8.12174 10.2579 8.11683 9.70291C8.11437 9.41291 7.97084 9.27675 7.67297 9.27233C7.39574 9.26839 7.11802 9.27134 6.84031 9.27134V9.27233ZM8.11929 14.4772C8.11929 14.1995 8.12273 13.9223 8.1183 13.6446C8.11388 13.3541 7.97232 13.2095 7.67887 13.2071C7.12392 13.2022 6.56849 13.2022 6.01305 13.2071C5.73484 13.2095 5.5805 13.3555 5.57706 13.6269C5.56968 14.198 5.56968 14.7697 5.57706 15.3408C5.5805 15.6009 5.73337 15.7498 5.99535 15.7528C6.56701 15.7596 7.13867 15.7601 7.70984 15.7528C7.97232 15.7493 8.11191 15.5989 8.11732 15.334C8.12273 15.0484 8.11879 14.7628 8.11879 14.4772H8.11929ZM12.0649 10.538C12.0609 10.538 12.0565 10.538 12.0526 10.538C12.0526 10.2525 12.0526 9.96736 12.0526 9.68178C12.0526 9.46354 11.9454 9.29346 11.7336 9.28609C11.1142 9.26495 10.4939 9.26938 9.87407 9.28019C9.65632 9.28412 9.5241 9.43453 9.52017 9.64737C9.50935 10.2431 9.50984 10.8389 9.51968 11.4346C9.52312 11.6617 9.66615 11.8082 9.89177 11.8136C10.4792 11.8273 11.067 11.8313 11.6544 11.8175C11.9253 11.8111 12.0614 11.641 12.0649 11.3707C12.0683 11.0935 12.0658 10.8158 12.0658 10.538H12.0649ZM17.3853 14.4826C17.3853 14.7598 17.3813 15.0376 17.3862 15.3148C17.3912 15.6063 17.5322 15.7508 17.8252 15.7537C18.3801 15.7591 18.9356 15.7591 19.4905 15.7537C19.7707 15.7508 19.9245 15.6112 19.929 15.3354C19.9388 14.7643 19.9388 14.1931 19.929 13.6219C19.924 13.356 19.7722 13.211 19.5112 13.2081C18.9395 13.2017 18.3683 13.2012 17.7967 13.2081C17.5347 13.2115 17.3931 13.3609 17.3872 13.6254C17.3808 13.911 17.3857 14.1965 17.3853 14.4821V14.4826ZM2.91784 5.33561C2.64012 5.33561 2.36289 5.33167 2.08518 5.33659C1.78976 5.342 1.64525 5.48012 1.64279 5.77062C1.63788 6.32507 1.63837 6.88001 1.64279 7.43496C1.64525 7.72939 1.78583 7.87243 2.07878 7.87489C2.63373 7.8798 3.18868 7.8798 3.74362 7.87489C4.04051 7.87243 4.18306 7.73234 4.18502 7.44086C4.18945 6.88641 4.18945 6.33146 4.18502 5.77651C4.18306 5.48307 4.04248 5.342 3.75001 5.3361C3.47278 5.33069 3.19507 5.33511 2.91784 5.33511V5.33561ZM18.6515 7.87636C18.9287 7.87636 19.2064 7.88029 19.4836 7.87538C19.779 7.87046 19.9255 7.73578 19.9299 7.44283C19.9383 6.88837 19.9378 6.33343 19.9299 5.77897C19.926 5.48208 19.782 5.34003 19.4915 5.33757C18.9365 5.33216 18.3816 5.33266 17.8267 5.33757C17.5293 5.34003 17.3882 5.47815 17.3857 5.77062C17.3808 6.32507 17.3813 6.88002 17.3857 7.43447C17.3882 7.73136 17.5258 7.86997 17.8188 7.87587C18.096 7.88177 18.3737 7.87685 18.651 7.87685L18.6515 7.87636ZM8.11879 6.61164C8.11879 6.32556 8.12322 6.039 8.11732 5.75292C8.11191 5.48602 7.97428 5.34101 7.70738 5.33757C7.13474 5.33069 6.5621 5.33118 5.98946 5.33757C5.72599 5.34052 5.58001 5.487 5.57656 5.7539C5.56968 6.31819 5.56968 6.88247 5.57656 7.44676C5.57951 7.72693 5.72501 7.87145 6.00322 7.87439C6.5675 7.88029 7.13228 7.88029 7.69656 7.87439C7.97723 7.87145 8.11388 7.72743 8.1183 7.44577C8.12273 7.16756 8.11929 6.88985 8.11879 6.61164ZM12.0521 6.59935C12.0521 6.32114 12.0555 6.04342 12.0511 5.76521C12.0467 5.48208 11.912 5.34052 11.6303 5.33757C11.0661 5.33167 10.5013 5.33167 9.93699 5.33757C9.66714 5.34052 9.51771 5.47815 9.51378 5.74211C9.50493 6.31426 9.50542 6.8869 9.51279 7.45905C9.51624 7.72792 9.66075 7.87095 9.92569 7.87439C10.4983 7.88078 11.071 7.88128 11.6436 7.87439C11.912 7.87095 12.0457 7.72792 12.0511 7.45855C12.0565 7.17248 12.0521 6.88641 12.0526 6.59984L12.0521 6.59935ZM14.7182 7.87636C14.988 7.87636 15.2579 7.87931 15.5282 7.87587C15.8453 7.87194 15.9883 7.74463 15.9927 7.43594C16.0011 6.88002 16.0011 6.32409 15.9922 5.76816C15.9873 5.47324 15.8418 5.33954 15.5435 5.33708C14.9954 5.33266 14.4473 5.33266 13.8993 5.33708C13.5891 5.33954 13.453 5.47668 13.4505 5.78929C13.4466 6.33687 13.4461 6.88493 13.4505 7.43299C13.453 7.74119 13.5921 7.87194 13.9081 7.87636C14.178 7.8798 14.4478 7.87734 14.7182 7.87685V7.87636ZM22.6128 5.33511C22.4417 5.33511 22.2702 5.33511 22.0991 5.33511C21.3436 5.33511 21.3077 5.371 21.3171 6.11617C21.3215 6.46614 21.4537 6.60131 21.8086 6.60475C22.2328 6.60869 22.6575 6.59099 23.0807 6.60918C23.9497 6.64604 23.8735 6.37865 23.8637 5.74653C23.8593 5.48454 23.7074 5.34347 23.4449 5.33708C23.1677 5.3302 22.8905 5.33561 22.6132 5.33511H22.6128Z" fill="#F34A25"/>
<path d="M29.812 17.8408C29.3298 19.5376 27.7043 20.5738 25.9967 20.3241C24.35 20.0832 23.0544 18.5585 23.046 16.8494C23.0435 16.3426 23.0494 15.8363 23.043 15.3296C23.0411 15.1895 23.075 15.1128 23.2215 15.0636C25.4236 14.3195 27.6222 14.3632 29.8159 15.0912C29.8862 15.1148 29.9845 15.2519 29.989 15.3301C30.0067 15.6397 29.9958 15.9317 29.9958 16.2423C30.0155 16.2448 29.957 17.3306 29.812 17.8408Z" fill="#F34A25"/>
<path d="M23.0665 14.7496C22.8395 12.5411 24.4335 10.5873 26.3338 10.7303C26.3338 10.9947 26.3358 11.2621 26.3313 11.529C26.3308 11.5639 26.3087 11.6165 26.2812 11.6303C26.063 11.7419 26.0698 11.9375 26.0743 12.1385C26.0792 12.3509 26.0551 12.5662 26.0826 12.7751C26.1003 12.9058 26.1893 13.0277 26.2483 13.1526C26.2743 13.2076 26.3289 13.2588 26.3303 13.3133C26.3392 13.5817 26.3343 13.8501 26.3343 14.1455C25.2111 14.1868 24.1312 14.3755 23.0661 14.7491L23.0665 14.7496Z" fill="#F34A25"/>
<path d="M26.7058 14.0673C26.7058 13.8481 26.7043 13.5719 26.7077 13.2961C26.7077 13.2597 26.7264 13.2037 26.7529 13.1914C27.01 13.0695 26.9776 12.84 26.9751 12.6197C26.9732 12.432 26.9682 12.2437 26.9766 12.056C26.984 11.8805 26.952 11.7335 26.7829 11.6401C26.7475 11.6204 26.7102 11.5664 26.7092 11.5271C26.7028 11.2602 26.7058 10.9932 26.7058 10.7288C28.635 10.6251 30.2143 12.5814 29.9612 14.6872C28.8887 14.4832 27.8142 14.2782 26.7053 14.0673H26.7058Z" fill="#F34A25"/>
</g>
<defs>
<clipPath id="clip0_959_3914">
<rect width="30" height="20.3609" fill="white"/>
</clipPath>
</defs>
</svg>
