<svg width="18" height="26" viewBox="0 0 18 26" fill="none" xmlns="http://www.w3.org/2000/svg">
<g clip-path="url(#clip0_959_4158)">
<path d="M9.55531 -2.14763e-06C9.74251 0.0359979 9.93691 0.0647979 10.1241 0.115198C12.1329 0.662398 13.4001 1.9512 13.8969 3.9744C13.9833 4.3416 13.9977 4.7304 13.9977 5.1048C14.0049 7.6896 14.0121 10.2816 13.9977 12.8664C13.9905 15.0264 12.9753 16.5888 11.0529 17.5392C9.19531 18.4536 6.79051 17.9496 5.37211 16.4304C4.42891 15.4224 3.98251 14.2344 3.98251 12.8664C3.98251 10.2816 3.99691 7.6896 3.98251 5.1048C3.96811 2.5344 5.71771 0.784798 7.43131 0.237598C7.75531 0.136798 8.10091 0.0719979 8.43211 -0.00720215C8.80651 -0.00720215 9.17371 -0.00720215 9.54811 -0.00720215L9.55531 -2.14763e-06Z" fill="#F34A25"/>
<path d="M7.97758 23.976V21.9672C7.35838 21.816 6.73918 21.7008 6.14878 21.5136C4.46398 20.988 3.10318 19.9728 1.98718 18.6192C1.02238 17.4456 0.388783 16.1136 0.143983 14.6232C0.0215826 13.8888 0.0359826 13.1256 0.00718262 12.3768C-0.0144174 11.8872 -0.00721738 11.3976 0.0143826 10.908C0.0359826 10.3896 0.482383 10.0008 1.01518 10.0008C1.52638 10.0008 1.97278 10.404 1.98718 10.9152C2.01598 11.7504 2.00158 12.5856 2.03038 13.428C2.10238 15.228 2.84398 16.7328 4.11118 17.9856C5.24158 19.1016 6.59518 19.7856 8.18638 19.9368C10.4904 20.16 12.4632 19.4688 14.076 17.7768C15.1344 16.6608 15.7896 15.3504 15.9264 13.8168C16.0056 12.9096 15.9768 11.9952 15.984 11.0808C15.984 10.7136 16.0992 10.4184 16.3872 10.1952C16.6896 9.9648 17.028 9.9288 17.3664 10.0728C17.6904 10.2168 17.9568 10.4688 17.9568 10.836C17.9784 12.2544 18.0792 13.6728 17.748 15.0768C17.4312 16.4304 16.812 17.64 15.9192 18.7056C14.5728 20.3184 12.888 21.3696 10.8216 21.7944C10.5552 21.852 10.2888 21.8808 10.008 21.924V23.976C10.116 23.976 10.2096 23.976 10.3104 23.976C11.4768 23.976 12.6432 23.976 13.8096 23.976C14.1696 23.976 14.4936 24.0552 14.7384 24.3432C14.9976 24.6528 15.048 25.0056 14.8968 25.3656C14.7384 25.74 14.436 25.9776 14.0112 25.9776C13.0896 25.9848 12.168 25.9776 11.2464 25.9776C8.83438 25.9776 6.42958 25.9776 4.01758 25.9776C3.29038 25.9776 2.79358 25.2936 3.05278 24.6384C3.19678 24.2784 3.46318 24.0264 3.85918 23.9976C4.30558 23.9688 4.75198 23.976 5.20558 23.976C6.11998 23.976 7.02718 23.976 7.96318 23.976H7.97758Z" fill="#F34A25"/>
</g>
<defs>
<clipPath id="clip0_959_4158">
<rect width="18" height="25.9776" fill="white"/>
</clipPath>
</defs>
</svg>
