<svg width="26" height="22" viewBox="0 0 26 22" fill="none" xmlns="http://www.w3.org/2000/svg">
<g clip-path="url(#clip0_959_3881)">
<path d="M4.27213 14.664C4.31935 14.664 4.36774 14.664 4.41614 14.664C10.0973 14.664 15.7772 14.664 21.4583 14.664C21.7003 14.664 21.7015 14.664 21.7109 14.4241C21.7156 14.2977 21.7109 14.1701 21.7109 14.0425C21.7109 10.6031 21.7109 7.16364 21.7121 3.7254C21.7121 3.54462 21.7251 3.36267 21.744 3.18308C21.7758 2.88415 22.0603 2.6443 22.3566 2.65612C22.667 2.66911 22.9468 2.94914 22.9468 3.2587C22.9479 4.93646 22.9468 6.61423 22.9468 8.29199C22.9468 10.3136 22.9468 12.334 22.9468 14.3556C22.9468 14.664 22.9468 14.6616 23.2596 14.6651C23.6904 14.6699 24.1212 14.684 24.5521 14.6864C25.0868 14.6888 25.7832 15.224 25.9425 15.888C25.9626 15.9731 25.9756 16.0617 25.9768 16.1491C25.9874 17.4441 26.0051 18.739 25.9992 20.034C25.998 20.3613 26.0216 20.6992 25.8528 21.0123C25.579 21.518 25.2048 21.8807 24.6146 21.9658C24.4694 21.9871 24.3231 22 24.1767 22C16.7663 22.0012 9.35481 22.0012 1.94445 22C1.76385 22 1.58325 21.98 1.40266 21.9729C0.812472 21.9504 0.0995288 21.2959 0.0169029 20.6378C-0.000802653 20.4972 0.000377718 20.3542 0.000377718 20.2124C0.000377718 18.8832 -0.00198302 17.5528 0.0050992 16.2236C0.0086403 15.6115 0.334422 15.1838 0.83726 14.8766C1.0993 14.7171 1.39085 14.6628 1.69539 14.6651C2.06838 14.6675 2.4402 14.6651 2.8132 14.6651C3.00914 14.6651 3.03629 14.6356 3.03629 14.4454C3.03629 12.3352 3.03629 10.2262 3.03629 8.11595C3.03629 6.75247 3.03511 5.3878 3.03629 4.02432C3.03629 3.74548 3.04927 3.46546 3.06226 3.18662C3.07524 2.91014 3.34673 2.66202 3.63356 2.65494C3.92511 2.64785 4.21784 2.89242 4.24145 3.1689C4.25797 3.36858 4.27095 3.56944 4.27095 3.7703C4.27213 7.24871 4.27213 10.7271 4.27213 14.2055C4.27213 14.3509 4.27213 14.4974 4.27213 14.6651V14.664ZM2.88756 18.3598C2.87458 18.986 3.33256 19.3109 3.9015 19.3097C4.41142 19.3085 4.89891 18.7969 4.82927 18.2428C4.76199 17.7076 4.39607 17.3661 3.84366 17.3555C3.3243 17.346 2.84625 17.7277 2.88874 18.3598H2.88756ZM22.3105 17.5788C21.7806 17.5528 21.5645 17.9214 21.5539 18.3031C21.5409 18.7686 21.8998 19.1148 22.3825 19.136C22.7768 19.1526 23.1132 18.7863 23.1002 18.296C23.0896 17.8942 22.7544 17.5776 22.3105 17.5788ZM20.2496 18.283C20.239 18.2014 20.2626 18.0668 20.2059 18.0065C19.9935 17.782 19.8023 17.4831 19.4186 17.5823C19.2522 17.6249 19.0504 17.6627 18.9453 17.7773C18.8155 17.9202 18.7694 18.14 18.6892 18.3267C18.6821 18.342 18.6915 18.3657 18.6963 18.3846C18.7482 18.6032 18.8367 18.7946 19.0173 18.9458C19.447 19.3038 20.1257 19.0781 20.2213 18.5949C20.2402 18.4992 20.239 18.4011 20.2496 18.2818V18.283ZM17.4167 18.3255C17.4167 17.899 17.0721 17.5811 16.6094 17.58C16.0983 17.5788 15.907 17.9368 15.8716 18.361C15.8386 18.7639 16.3261 19.1561 16.6991 19.1278C17.0933 19.0982 17.412 18.8347 17.4167 18.3255Z" fill="#F34A25"/>
<path d="M12.756 0C14.7815 0.0271751 16.4541 0.539957 17.9378 1.62105C18.2884 1.87744 18.6177 2.16574 18.9423 2.45521C19.1548 2.64544 19.1477 2.94554 18.9565 3.15231C18.7582 3.36735 18.4902 3.38625 18.2601 3.20312C17.854 2.88056 17.4621 2.53792 17.0384 2.24017C16.3762 1.77465 15.6408 1.45446 14.8559 1.25832C14.2669 1.11063 13.6625 1.02438 13.057 1.03029C11.9687 1.04092 10.9099 1.21697 9.90658 1.67895C9.11101 2.04522 8.43702 2.571 7.79726 3.15349C7.57653 3.35435 7.35108 3.38389 7.14097 3.25156C6.87657 3.08378 6.82936 2.70097 7.05127 2.47057C7.58951 1.91289 8.20921 1.46273 8.88556 1.08582C9.75785 0.600215 10.6809 0.262299 11.6701 0.121697C12.095 0.0614393 12.5235 0.0259936 12.756 0Z" fill="#F34A25"/>
<path d="M12.9695 2.32765C14.4131 2.3312 15.6962 2.79554 16.8281 3.68168C16.9969 3.81401 17.1563 3.96288 17.3003 4.12239C17.5104 4.35633 17.4998 4.61508 17.2956 4.81713C17.0843 5.02626 16.8234 5.03689 16.5909 4.81713C16.199 4.44731 15.7505 4.16374 15.2842 3.89908C14.8286 3.64151 14.3293 3.52926 13.8276 3.42411C13.2764 3.30714 12.7228 3.33667 12.1669 3.41347C11.3784 3.52217 10.669 3.81992 10.0327 4.29017C9.81319 4.45203 9.60545 4.63281 9.40243 4.81594C9.17934 5.0168 8.89605 5.02507 8.6942 4.82303C8.49354 4.62217 8.49 4.32679 8.69893 4.11294C9.48859 3.30241 10.4388 2.76836 11.5365 2.51315C12.0051 2.40445 12.4891 2.35837 12.966 2.28394C12.9671 2.2993 12.9695 2.31347 12.9707 2.32883L12.9695 2.32765Z" fill="#F34A25"/>
<path d="M12.7803 4.64816C14.0173 4.65407 14.8967 5.00971 15.6261 5.7269C15.9295 6.02464 15.8492 6.43463 15.4644 6.57641C15.252 6.65439 15.0785 6.55987 14.9085 6.43699C14.6748 6.26922 14.4458 6.08726 14.1908 5.95729C13.2808 5.49414 11.9965 5.58275 11.1903 6.34247C11.0711 6.45472 10.9106 6.54569 10.7524 6.59059C10.5482 6.64967 10.3357 6.52206 10.2366 6.33656C10.1327 6.14279 10.1658 5.9313 10.3405 5.74226C10.6379 5.42206 10.9979 5.18812 11.3898 5.00144C11.8962 4.76041 12.4297 4.6328 12.7791 4.6458L12.7803 4.64816Z" fill="#F34A25"/>
<path d="M12.9938 6.89185C13.6171 6.89185 14.1541 7.40108 14.153 7.99657C14.1506 8.75747 13.6419 9.20763 12.9938 9.20763C12.3364 9.20763 11.8619 8.77047 11.8536 8.03438C11.8465 7.3869 12.347 6.89185 12.9938 6.89185Z" fill="#F34A25"/>
</g>
<defs>
<clipPath id="clip0_959_3881">
<rect width="26" height="22" fill="white"/>
</clipPath>
</defs>
</svg>
