<svg width="20" height="21" viewBox="0 0 20 21" fill="none" xmlns="http://www.w3.org/2000/svg">
<g clip-path="url(#clip0_959_3954)">
<path d="M11.7641 0C11.8813 0.0333509 11.9991 0.0641363 12.1156 0.100309C12.5099 0.222425 12.848 0.435614 13.1389 0.728332C13.6223 1.215 14.1076 1.69936 14.5941 2.1832C15.0915 2.67808 15.3383 3.27403 15.3326 3.97619C15.3296 4.36742 15.3321 4.75891 15.3321 5.16605H4.66602C4.66602 5.10166 4.66602 5.03265 4.66602 4.96364C4.66602 3.76839 4.66602 2.57289 4.66602 1.37765C4.66602 0.659578 4.93 0.282969 5.60266 0.0361729C5.61908 0.0302723 5.63088 0.0125707 5.64499 0.000256545C7.68452 0.000256545 9.72431 0.000256545 11.7638 0.000256545L11.7641 0Z" fill="#F34A25"/>
<path d="M16.6393 16.8466V12.5992H3.36536V16.864C3.23734 16.864 3.13524 16.864 3.03313 16.864C2.45796 16.864 1.88278 16.8661 1.30761 16.8635C0.52951 16.8599 0.00256622 16.3376 0.00179658 15.5585C-0.00076887 13.0094 0.00256622 10.4607 7.65034e-07 7.91163C-0.00076887 7.142 0.57928 6.62609 1.19807 6.62044C1.2699 6.61967 1.34173 6.61429 1.41356 6.61429C7.13888 6.61403 12.8642 6.61582 18.5895 6.61121C19.1526 6.61069 19.6083 6.78566 19.8615 7.31081C19.9464 7.4868 19.9926 7.69921 19.9931 7.89522C20.0015 10.4571 20.0013 13.0192 19.9972 15.5813C19.9959 16.3343 19.4613 16.8592 18.7075 16.8633C18.0474 16.8669 17.3873 16.8633 16.7273 16.8625C16.7083 16.8625 16.6893 16.8558 16.6393 16.8466ZM3.19014 10.8717C3.89692 10.8693 4.47158 10.2931 4.47081 9.58867C4.46979 8.88291 3.89538 8.31031 3.18732 8.30902C2.46899 8.30774 1.88638 8.89215 1.89895 9.6015C1.91152 10.3162 2.47874 10.8742 3.1904 10.8719L3.19014 10.8717Z" fill="#F34A25"/>
<path d="M4.58959 13.8188H15.4081C15.4117 13.8863 15.4181 13.9548 15.4181 14.0231C15.4186 15.8004 15.4191 17.5777 15.4181 19.3551C15.4178 19.8613 15.1954 20.0819 14.6903 20.0819C11.5538 20.0819 8.4175 20.0819 5.28098 20.0819C4.82484 20.0819 4.58086 19.8533 4.58009 19.4054C4.57676 17.5888 4.57856 15.7724 4.57907 13.9558C4.57907 13.9171 4.58471 13.8784 4.58933 13.8188H4.58959ZM9.98832 17.567C10.8316 17.567 11.6746 17.5677 12.5179 17.5657C12.6151 17.5657 12.7144 17.5582 12.8093 17.5382C13.0399 17.4898 13.2223 17.2973 13.2593 17.0749C13.3029 16.8114 13.2316 16.5811 12.994 16.4538C12.8585 16.3812 12.6856 16.3489 12.5297 16.3484C10.8434 16.3412 9.15712 16.3438 7.47084 16.3443C7.39901 16.3443 7.32667 16.3445 7.25535 16.3517C6.9947 16.3779 6.76945 16.5988 6.7343 16.8587C6.67889 17.2691 6.95981 17.5641 7.41979 17.5659C8.27588 17.5695 9.13223 17.567 9.98858 17.567H9.98832Z" fill="#F34A25"/>
</g>
<defs>
<clipPath id="clip0_959_3954">
<rect width="20" height="20.0821" fill="white"/>
</clipPath>
</defs>
</svg>
