<svg width="22" height="22" viewBox="0 0 22 22" fill="none" xmlns="http://www.w3.org/2000/svg">
<g clip-path="url(#clip0_959_4171)">
<path d="M0 12.76C0 11.5808 0 10.4104 0 9.23118C0.132 8.92318 0.22 8.57998 0.4136 8.29838C0.836 7.69118 1.4696 7.47998 2.1824 7.47998C7.964 7.47998 13.7544 7.47998 19.536 7.47998C19.7472 7.47998 19.9672 7.48878 20.1784 7.50638C21.1728 7.58558 21.9648 8.40398 21.9824 9.40718C22 10.4632 22.0088 11.5104 21.9824 12.5664C21.9648 13.3056 21.5952 13.8688 20.9528 14.2384C20.6008 14.4408 20.2136 14.4936 19.8176 14.4936C17.1248 14.4936 14.432 14.4936 11.7392 14.4936C8.5536 14.4936 5.368 14.4936 2.1824 14.4936C1.4608 14.4936 0.8272 14.2824 0.4136 13.6752C0.22 13.4112 0.132 13.068 0 12.76ZM15.9808 11C15.9808 10.4456 15.5408 10.0056 14.9864 10.0144C14.4496 10.0144 14.0008 10.4544 14.0008 11C14.0008 11.5456 14.4408 12.0032 14.9864 12.0032C15.5408 12.0032 15.9808 11.5632 15.9808 11.0088V11ZM17.0016 11C17.0016 11.5544 17.4416 11.9944 17.9872 11.9944C18.5328 11.9944 18.9816 11.5456 18.9816 11C18.9816 10.4632 18.5328 10.0144 17.996 10.0144C17.4416 10.0144 16.9928 10.4456 16.9928 11H17.0016ZM3.0008 11C3.0008 11.3168 3.0008 11.6336 3.0008 11.9416C3.0008 12.276 3.2032 12.5048 3.4936 12.5048C3.7752 12.5048 3.9864 12.276 3.9864 11.9416C3.9864 11.3168 3.9864 10.7008 3.9864 10.076C3.9864 9.74158 3.7752 9.51278 3.4936 9.51278C3.2032 9.51278 3.0008 9.74158 3.0008 10.076C3.0008 10.384 3.0008 10.692 3.0008 11ZM6.996 10.9912C6.996 11.308 6.996 11.6248 6.996 11.9328C6.996 12.276 7.216 12.5136 7.5064 12.5048C7.7968 12.496 7.9904 12.276 7.9904 11.9328C7.9904 11.3168 7.9904 10.7008 7.9904 10.0848C7.9904 9.75038 7.7968 9.52158 7.5064 9.51278C7.216 9.50398 7.0048 9.74158 6.996 10.0848C6.996 10.384 6.996 10.6832 6.996 10.9824V10.9912ZM5.016 10.9912C5.016 11.352 5.016 11.704 5.016 12.0648C5.016 12.276 5.148 12.4168 5.3592 12.4784C5.7112 12.5752 5.984 12.3464 5.984 11.9416C5.984 11.3256 5.984 10.7096 5.984 10.0936C5.984 9.99678 5.9664 9.89118 5.9312 9.80318C5.8432 9.60078 5.632 9.50398 5.4208 9.53918C5.1832 9.58318 5.0248 9.72398 5.016 9.97038C4.9984 10.3136 5.016 10.6568 5.016 11V10.9912Z" fill="#F34A25"/>
<path d="M0 5.28C0 4.092 0 2.904 0 1.716C0.0088 1.6808 0.0352 1.6544 0.0352 1.6192C0.132 1.1352 0.3784 0.748 0.7568 0.4312C1.0384 0.2024 1.3728 0.0968 1.716 0C7.9024 0 14.0888 0 20.2752 0C20.3016 0.0088 20.328 0.0264 20.3544 0.0352C21.3576 0.2464 21.9912 1.0296 21.9912 2.0504C21.9912 3.0184 22.0088 3.9864 21.9912 4.9456C21.9912 5.2536 21.9208 5.5792 21.7888 5.852C21.4104 6.644 20.7504 6.996 19.888 6.996C14.2648 6.996 8.6328 6.996 3.0096 6.996C2.684 6.996 2.3672 6.996 2.0416 6.996C1.3816 6.9872 0.8184 6.7496 0.4312 6.204C0.2376 5.9312 0.1408 5.588 0 5.28ZM15.9808 3.4848C15.9808 2.948 15.5408 2.508 14.9952 2.4992C14.4584 2.4992 13.992 2.948 13.992 3.4936C13.992 4.0392 14.4408 4.488 14.9864 4.488C15.5408 4.488 15.972 4.0392 15.972 3.4848H15.9808ZM17.0016 3.5024C17.0016 4.048 17.4416 4.4792 17.9872 4.488C18.5328 4.488 18.9904 4.0392 18.9904 3.4936C18.9904 2.948 18.5328 2.4904 17.9872 2.4992C17.4416 2.4992 17.0016 2.948 17.0016 3.5024ZM3.9952 3.4936C3.9952 3.1856 3.9952 2.8776 3.9952 2.5696C3.9952 2.2176 3.7928 1.9976 3.4848 2.0064C3.1856 2.0064 3.0008 2.2264 3.0008 2.5696C3.0008 3.1856 3.0008 3.8016 3.0008 4.4176C3.0008 4.7608 3.1944 4.972 3.4848 4.9808C3.784 4.9808 3.9864 4.7608 3.9952 4.4176C3.9952 4.1096 3.9952 3.8016 3.9952 3.4936ZM7.9904 3.4936C7.9904 3.1768 7.9904 2.8688 7.9904 2.552C7.9904 2.2264 7.7968 2.0152 7.5064 2.0064C7.2072 2.0064 7.0048 2.2088 6.996 2.5432C6.996 3.168 6.996 3.8016 6.996 4.4264C6.996 4.7608 7.2072 4.9808 7.4976 4.972C7.788 4.972 7.9816 4.752 7.9816 4.4088C7.9816 4.1008 7.9816 3.7928 7.9816 3.4848L7.9904 3.4936ZM5.9752 3.4936C5.9752 3.1328 5.9928 2.7808 5.9752 2.42C5.9576 2.112 5.632 1.9272 5.3416 2.024C5.1304 2.0944 5.0072 2.2792 5.0072 2.5608C5.0072 3.1768 5.0072 3.7928 5.0072 4.4C5.0072 4.4968 5.0248 4.6024 5.06 4.6904C5.148 4.884 5.3592 4.9984 5.5704 4.9632C5.7816 4.928 5.9576 4.7696 5.9664 4.5496C5.984 4.1976 5.9664 3.8368 5.9664 3.476L5.9752 3.4936Z" fill="#F34A25"/>
<path d="M0 20.2752C0 19.0872 0 17.8992 0 16.7112C0.0616 16.5264 0.1056 16.324 0.1936 16.148C0.5808 15.3736 1.232 14.9952 2.0944 14.9952C8.0256 14.9952 13.9656 14.9952 19.8968 14.9952C19.9408 14.9952 19.9848 14.9952 20.0288 14.9952C21.1376 15.0392 21.9824 15.8928 21.9912 17.0016C21.9912 17.996 22.0088 18.9904 21.9912 19.9848C21.9912 20.2752 21.9208 20.592 21.7888 20.8472C21.4192 21.6216 20.7592 21.9824 19.9056 21.9824C13.9744 21.9824 8.0344 21.9824 2.1032 21.9824C2.0504 21.9824 2.0064 21.9824 1.9536 21.9824C1.3552 21.956 0.8712 21.7184 0.4752 21.2608C0.2112 20.9792 0.1056 20.6272 0 20.2752ZM15.9808 18.4888C15.9808 17.9344 15.5232 17.4944 14.9776 17.5032C14.432 17.512 14.0008 17.952 14.0008 18.4888C14.0008 19.0344 14.4584 19.492 14.9952 19.4832C15.5408 19.4832 15.9808 19.0344 15.9808 18.48V18.4888ZM17.0016 18.4888C17.0016 19.0432 17.4328 19.492 17.9872 19.492C18.524 19.492 18.9904 19.0432 18.9904 18.4976C18.9904 17.952 18.5416 17.5032 17.9872 17.5032C17.4416 17.5032 17.0104 17.9432 17.0016 18.48V18.4888ZM3.0008 18.4888C3.0008 18.7968 3.0008 19.1048 3.0008 19.4128V19.4304C3.0096 19.7648 3.2032 19.9848 3.5024 19.976C3.784 19.976 3.9864 19.7648 3.9952 19.4392C3.9952 18.8144 3.9952 18.1808 3.9952 17.556C3.9952 17.2216 3.784 17.0016 3.4936 17.0104C3.2032 17.0104 3.0096 17.2304 3.0008 17.5736C3.0008 17.8816 3.0008 18.1896 3.0008 18.4976V18.4888ZM6.996 18.5152C6.996 18.8144 6.996 19.1136 6.996 19.4128C6.996 19.7648 7.1984 19.9848 7.4976 19.976C7.7968 19.976 7.9816 19.756 7.9816 19.4128C7.9816 18.7968 7.9816 18.1808 7.9816 17.5648C7.9816 17.2216 7.7968 17.0016 7.4976 17.0016C7.1984 17.0016 6.996 17.2128 6.9872 17.5648C6.9872 17.8816 6.9872 18.1896 6.9872 18.5064L6.996 18.5152ZM5.9752 18.5152C5.9752 18.1544 5.9928 17.7848 5.9752 17.424C5.9488 17.0984 5.588 16.9224 5.2976 17.0632C5.0776 17.1688 5.0072 17.3624 5.0072 17.5912C5.0072 18.1984 5.0072 18.8056 5.0072 19.4128C5.0072 19.5184 5.0248 19.6328 5.0688 19.7208C5.1568 19.9232 5.368 20.0112 5.588 19.9848C5.7992 19.9496 5.9664 19.7912 5.9752 19.5624C5.9928 19.2104 5.9752 18.8672 5.9752 18.5152Z" fill="#F34A25"/>
</g>
<defs>
<clipPath id="clip0_959_4171">
<rect width="22" height="21.9912" fill="white"/>
</clipPath>
</defs>
</svg>
