<svg width="25" height="24" viewBox="0 0 25 24" fill="none" xmlns="http://www.w3.org/2000/svg">
<g id="Layer_1" clip-path="url(#clip0_1331_2199)">
<path id="Vector" d="M0.199219 14.1584V1.88408C0.20802 1.87176 0.223276 1.86061 0.225623 1.84712C0.398128 0.772771 1.37331 -0.00409107 2.57733 1.62096e-05C9.02752 0.0223129 15.4771 0.0211394 21.9273 0.00177647C23.2434 -0.00233081 24.2022 1.02332 24.1969 2.27075C24.1804 6.15096 24.191 10.0312 24.191 13.9114C24.191 13.9853 24.191 14.0598 24.191 14.1431C24.1493 14.1291 24.1317 14.1285 24.1235 14.1191C24.0754 14.068 24.0273 14.0164 23.9833 13.9618C23.4124 13.256 22.7306 12.6815 21.9379 12.2385C20.4939 11.4312 18.9542 11.173 17.3307 11.4687C15.6449 11.7756 14.2684 12.6211 13.1806 13.9384C13.0515 14.095 12.92 14.1631 12.7094 14.1631C8.53934 14.1566 4.36987 14.1584 0.199806 14.159L0.199219 14.1584ZM11.54 7.8191C11.54 7.16311 11.5318 6.50712 11.5429 5.85171C11.55 5.45976 11.3869 5.18986 11.0548 4.99095C9.97747 4.3461 8.90195 3.69891 7.83406 3.03823C7.48729 2.82406 7.17983 2.82524 6.83306 3.03823C5.75109 3.70537 4.66324 4.36312 3.56895 5.00855C3.24095 5.20218 3.10189 5.46563 3.10248 5.83235C3.10482 7.15196 3.10717 8.47098 3.1013 9.79059C3.09954 10.155 3.24565 10.409 3.55956 10.5962C4.65796 11.2504 5.75226 11.9123 6.84362 12.5794C7.1722 12.7801 7.47673 12.7778 7.80472 12.5771C8.8955 11.9099 9.99038 11.2487 11.0888 10.5939C11.4033 10.4067 11.547 10.1497 11.5423 9.7859C11.5341 9.1305 11.54 8.4745 11.54 7.81851V7.8191ZM17.847 5.72615C18.2912 5.72615 18.7354 5.7285 19.1795 5.72556C19.646 5.72204 19.9758 5.42456 19.9717 5.01735C19.9676 4.61718 19.6442 4.32205 19.1924 4.32029C18.3041 4.31618 17.4158 4.31618 16.5274 4.32029C16.0791 4.32263 15.7547 4.62892 15.7588 5.02791C15.7629 5.42808 16.0862 5.72087 16.5386 5.72498C16.9751 5.72908 17.4111 5.72615 17.8476 5.72615H17.847ZM17.8658 8.53729C18.31 8.53729 18.7541 8.54081 19.1983 8.53611C19.6484 8.53142 19.9722 8.23217 19.9717 7.8326C19.9711 7.43243 19.6472 7.13318 19.1966 7.13142C18.3082 7.12732 17.4199 7.1238 16.5315 7.13612C16.376 7.13847 16.2053 7.18834 16.0709 7.26638C15.8092 7.41893 15.7101 7.7305 15.7916 8.01742C15.8808 8.33075 16.1343 8.52849 16.4863 8.53435C16.9458 8.54257 17.4058 8.53611 17.8652 8.5367L17.8658 8.53729Z" fill="#F34A25"/>
<path id="Vector_2" d="M18.0053 23.997C17.733 23.9383 17.4567 23.8938 17.1885 23.8192C14.9682 23.1967 13.5759 21.7503 13.0636 19.5166C12.3783 16.5276 14.439 13.4378 17.4508 12.8581C20.4644 12.2784 23.2978 14.1026 24.0459 17.1044C24.6573 19.5571 23.377 22.2896 21.1045 23.3933C20.5178 23.6784 19.9081 23.8767 19.2592 23.9524C19.2146 23.9577 19.1723 23.9818 19.1295 23.997H18.0047H18.0053ZM20.6733 18.4076C20.6562 17.3051 19.8829 16.3158 18.6061 16.2789C17.5195 16.2478 16.5126 17.0416 16.4721 18.3307C16.4375 19.4385 17.2548 20.4436 18.541 20.4712C19.6564 20.4953 20.6023 19.6726 20.6733 18.4082V18.4076Z" fill="#F34A25"/>
<path id="Vector_3" d="M0.199219 15.5636H12.1444C11.7506 16.4672 11.5635 17.3908 11.5441 18.3736C11.4356 18.3736 11.3446 18.3736 11.2531 18.3736C8.33984 18.3736 5.42661 18.3571 2.51396 18.3818C1.41556 18.3912 0.408103 17.6865 0.225623 16.5846C0.223276 16.5711 0.20802 16.5599 0.199219 16.5476C0.199219 16.2196 0.199219 15.8916 0.199219 15.5636Z" fill="#F34A25"/>
<path id="Vector_4" d="M6.43095 23.9971C5.9281 23.7095 5.82366 23.4449 5.96741 22.8247C6.18158 21.9012 6.99658 21.2252 7.94653 21.1906C8.19532 21.1812 8.44469 21.1894 8.71987 21.1894V19.7959H11.6824C11.7458 20.0271 11.8009 20.2688 11.879 20.5035C12.3231 21.8413 13.0965 22.9515 14.1978 23.8328C14.2559 23.8791 14.2999 23.9419 14.351 23.9971H6.43095Z" fill="#F34A25"/>
<path id="Vector_5" d="M5.16211 5.68159C5.8844 5.24564 6.5621 4.83491 7.24391 4.42946C7.28675 4.40423 7.36889 4.39895 7.40938 4.42359C8.09001 4.83021 8.76654 5.2427 9.46771 5.6681C9.39965 5.71856 9.35505 5.75729 9.30577 5.78721C8.6932 6.15921 8.0818 6.5318 7.46571 6.89735C7.4041 6.93373 7.2932 6.96189 7.24215 6.93197C6.55858 6.53004 5.88206 6.11697 5.1627 5.68218L5.16211 5.68159Z" fill="#F34A25"/>
<path id="Vector_6" d="M6.61827 10.8069C6.05029 10.4642 5.53395 10.1168 4.98357 9.83343C4.60981 9.64097 4.47192 9.40921 4.4995 8.9844C4.54292 8.31726 4.51124 7.64542 4.51124 6.95129C4.57109 6.97535 4.61979 6.98826 4.66086 7.01349C5.26756 7.37845 5.87544 7.74224 6.47745 8.11541C6.54258 8.1559 6.61123 8.25271 6.61182 8.3243C6.6212 9.13461 6.61768 9.94491 6.61768 10.8074L6.61827 10.8069Z" fill="#F34A25"/>
<path id="Vector_7" d="M10.1333 6.92197C10.1333 7.78333 10.1351 8.59364 10.1298 9.40394C10.1298 9.46262 10.0987 9.54828 10.0541 9.57586C9.39399 9.98366 8.72862 10.3832 8.02627 10.808C8.02627 10.4284 8.02627 10.0899 8.02627 9.75189C8.02627 9.29187 8.02275 8.83244 8.02979 8.37243C8.03096 8.29791 8.05502 8.18701 8.10666 8.15474C8.76558 7.7446 9.43096 7.3462 10.1333 6.92139V6.92197Z" fill="#F34A25"/>
<path id="Vector_8" d="M19.2701 18.3788C19.2684 18.7743 18.9515 19.0829 18.5531 19.0765C18.1682 19.07 17.8654 18.7591 17.8672 18.3712C17.869 17.9757 18.1858 17.6671 18.5842 17.6736C18.9691 17.68 19.2719 17.991 19.2701 18.3788Z" fill="#F34A25"/>
</g>
<defs>
<clipPath id="clip0_1331_2199">
<rect width="24" height="23.9971" fill="white" transform="translate(0.199219)"/>
</clipPath>
</defs>
</svg>
