<svg width="27" height="22" viewBox="0 0 27 22" fill="none" xmlns="http://www.w3.org/2000/svg">
<g clip-path="url(#clip0_959_3844)">
<path d="M0.000660486 0.8963C0.240417 0.215339 0.742386 -0.0257384 1.43524 0.00200198C2.03165 0.0257795 2.63005 0.00530441 3.22779 0.00728586C4.04548 0.00992781 4.49659 0.459058 4.50583 1.27938C4.5098 1.60236 4.50583 1.92534 4.50583 2.26813C4.6518 2.26813 4.76474 2.26813 4.87769 2.26813C11.8379 2.26813 18.7987 2.26813 25.7589 2.26813C26.4003 2.26813 26.8382 2.58054 26.9716 3.14129C26.9993 3.25886 26.9987 3.38501 26.9987 3.5072C27 7.92783 27 12.3485 26.9993 16.7691C26.9993 17.5676 26.5429 18.026 25.7398 18.0267C23.2702 18.0286 20.8007 18.0273 18.3311 18.0273H18.0062C18.0062 18.1403 18.0062 18.2334 18.0062 18.3265C18.0062 18.9243 18.0095 19.522 18.0055 20.1191C18.0002 20.8833 17.5339 21.4123 16.8695 21.3965C16.3252 21.3832 15.7229 21.0021 15.742 20.1072C15.7546 19.5187 15.7447 18.9295 15.7447 18.3411C15.7447 18.2459 15.7447 18.1515 15.7447 18.0419H13.4997C13.4997 18.1244 13.4997 18.209 13.4997 18.2928C13.4997 18.9342 13.5023 19.5762 13.499 20.2175C13.4957 20.8925 13.0136 21.3978 12.3775 21.3998C11.7619 21.4011 11.2613 20.9057 11.2448 20.2479C11.2289 19.6158 11.2408 18.9824 11.2408 18.3496C11.2408 18.2545 11.2408 18.1594 11.2408 18.0458H9.01101C9.01101 18.1383 9.01101 18.2307 9.01101 18.3239C9.01101 18.9652 9.02224 19.6072 9.00704 20.2485C8.99185 20.8826 8.5632 21.3337 7.95225 21.3945C7.43113 21.4467 6.91925 21.0722 6.78451 20.5292C6.75347 20.4037 6.75347 20.2683 6.75281 20.1376C6.75017 19.4454 6.75149 18.7525 6.75149 18.0438H4.48734C4.48734 18.4593 4.50451 18.8622 4.48272 19.2631C4.45894 19.6964 4.21456 20.0055 3.82289 20.1719C3.43387 20.3377 3.0488 20.2974 2.70139 20.0411C2.44974 19.8555 2.29717 19.6052 2.26679 19.2902C2.25226 19.1416 2.24499 18.9923 2.24499 18.843C2.24367 13.4469 2.24433 8.05068 2.24433 2.65451V2.26483C1.88437 2.26483 1.5528 2.26549 1.22124 2.26483C0.619536 2.26284 0.286651 2.03696 0.0501969 1.47356C0.0416106 1.45309 0.0171726 1.43922 0 1.42205C0 1.24636 0 1.07067 0 0.894979L0.000660486 0.8963ZM13.5017 10.1332C13.5017 9.05198 13.5043 7.97142 13.501 6.89021C13.4983 6.11017 13.0327 5.64585 12.2514 5.64255C11.5658 5.63925 10.8802 5.62736 10.1953 5.64783C9.82869 5.6584 9.45684 5.69605 9.09951 5.77663C6.89877 6.27397 5.33474 8.44103 5.68414 10.834C5.97608 12.8366 7.79704 14.5439 9.81812 14.6133C10.6259 14.641 11.435 14.6384 12.2428 14.6351C13.0664 14.6318 13.5003 14.182 13.5017 13.3504C13.503 12.2785 13.5017 11.2058 13.5017 10.1339V10.1332ZM14.6357 10.1411C14.6324 12.6146 16.633 14.6192 19.1171 14.6331C21.5787 14.6463 23.6091 12.6318 23.6256 10.1576C23.6421 7.69798 21.5873 5.63793 19.1204 5.64255C16.6515 5.64717 14.6383 7.66628 14.635 10.1411H14.6357Z" fill="#F34A25"/>
<path d="M11.2385 12.4402C10.6256 12.3867 10.0265 12.4065 9.46644 12.2698C8.46976 12.0261 7.85881 11.1014 7.87533 10.108C7.89316 9.02549 8.66857 8.09553 9.70619 7.93899C10.2009 7.86436 10.7154 7.92644 11.2385 7.92644V12.4402Z" fill="#F34A25"/>
<path d="M19.1545 7.89549C20.4074 7.92918 21.3995 8.94434 21.3724 10.1662C21.3447 11.4377 20.3136 12.4264 19.0554 12.3901C17.823 12.3538 16.8441 11.3161 16.8778 10.0804C16.9108 8.8598 17.9484 7.86379 19.1545 7.89615V7.89549Z" fill="#F34A25"/>
</g>
<defs>
<clipPath id="clip0_959_3844">
<rect width="27" height="21.3997" fill="white"/>
</clipPath>
</defs>
</svg>
