<svg width="16" height="16" viewBox="0 0 16 16" fill="none" xmlns="http://www.w3.org/2000/svg">
<path d="M4.85463 2.14592C4.80819 2.09935 4.75301 2.06241 4.69227 2.0372C4.63152 2.012 4.5664 1.99902 4.50063 1.99902C4.43486 1.99902 4.36974 2.012 4.309 2.0372C4.24825 2.06241 4.19308 2.09935 4.14663 2.14592L1.14663 5.14592C1.05275 5.2398 1 5.36714 1 5.49992C1 5.63269 1.05275 5.76003 1.14663 5.85392C1.24052 5.9478 1.36786 6.00055 1.50063 6.00055C1.63341 6.00055 1.76074 5.9478 1.85463 5.85392L4.00063 3.70692V13.4999C4.00063 13.6325 4.05331 13.7597 4.14708 13.8535C4.24085 13.9472 4.36802 13.9999 4.50063 13.9999C4.63324 13.9999 4.76042 13.9472 4.85418 13.8535C4.94795 13.7597 5.00063 13.6325 5.00063 13.4999V3.70692L7.14663 5.85392C7.24052 5.9478 7.36786 6.00055 7.50063 6.00055C7.63341 6.00055 7.76075 5.9478 7.85463 5.85392C7.94852 5.76003 8.00126 5.63269 8.00126 5.49992C8.00126 5.36714 7.94852 5.2398 7.85463 5.14592L4.85463 2.14592ZM11.1526 13.8599C11.2459 13.9503 11.3707 14.0009 11.5006 14.0009C11.6305 14.0009 11.7554 13.9503 11.8486 13.8599L14.8486 10.9599C14.9441 10.8676 14.999 10.7412 15.0013 10.6084C15.0035 10.4756 14.9529 10.3474 14.8606 10.2519C14.7683 10.1564 14.6419 10.1015 14.5091 10.0993C14.3763 10.097 14.2481 10.1476 14.1526 10.2399L12.0006 12.3209V2.50092C12.0006 2.36831 11.948 2.24113 11.8542 2.14736C11.7604 2.0536 11.6332 2.00092 11.5006 2.00092C11.368 2.00092 11.2408 2.0536 11.1471 2.14736C11.0533 2.24113 11.0006 2.36831 11.0006 2.50092V12.3209L8.84863 10.2409C8.80161 10.1946 8.74589 10.1581 8.68468 10.1334C8.62347 10.1088 8.55799 10.0965 8.49201 10.0973C8.42603 10.098 8.36085 10.1119 8.30024 10.1379C8.23962 10.164 8.18477 10.2018 8.13884 10.2492C8.09291 10.2966 8.05682 10.3526 8.03263 10.414C8.00845 10.4754 7.99666 10.541 7.99795 10.6069C7.99923 10.6729 8.01356 10.738 8.0401 10.7984C8.06665 10.8588 8.1049 10.9134 8.15263 10.9589L11.1526 13.8599Z" fill="#9C9C9C"/>
</svg>
