<svg width="20" height="20" viewBox="0 0 20 20" fill="none" xmlns="http://www.w3.org/2000/svg">
<g clip-path="url(#clip0_932_3843)">
<path d="M16.4294 7.14293C16.4294 11.4286 10.0008 16.4286 10.0008 16.4286C10.0008 16.4286 3.57227 11.4286 3.57227 7.14293C3.57227 3.6415 6.49941 0.714355 10.0008 0.714355C13.5023 0.714355 16.4294 3.6415 16.4294 7.14293Z" stroke="black" stroke-width="1.50834" stroke-linecap="round" stroke-linejoin="round"/>
<path d="M10.0003 9.28571C10.5686 9.28571 11.1136 9.05995 11.5155 8.65809C11.9174 8.25622 12.1431 7.71118 12.1431 7.14286C12.1431 6.57454 11.9174 6.02949 11.5155 5.62763C11.1136 5.22576 10.5686 5 10.0003 5C9.43196 5 8.88691 5.22576 8.48505 5.62763C8.08319 6.02949 7.85742 6.57454 7.85742 7.14286C7.85742 7.71118 8.08319 8.25622 8.48505 8.65809C8.88691 9.05995 9.43196 9.28571 10.0003 9.28571Z" stroke="black" stroke-width="1.50834" stroke-linecap="round" stroke-linejoin="round"/>
<path d="M15.8248 14.2856H17.1434L19.2863 19.2856H0.714844L2.8577 14.2856H4.17627" stroke="black" stroke-width="1.50834" stroke-linecap="round" stroke-linejoin="round"/>
</g>
<defs>
<clipPath id="clip0_932_3843">
<rect width="20" height="20" fill="white"/>
</clipPath>
</defs>
</svg>
