<svg width="25" height="24" viewBox="0 0 25 24" fill="none" xmlns="http://www.w3.org/2000/svg">
<g clip-path="url(#clip0_693_1424)">
<path d="M21.3836 12.8571H7.36077L5.64648 4.28564H22.7893C22.9147 4.2861 23.0384 4.31406 23.1518 4.36753C23.2652 4.42101 23.3655 4.49871 23.4456 4.59515C23.5257 4.69159 23.5837 4.80443 23.6154 4.92571C23.6472 5.04699 23.6519 5.17376 23.6293 5.29707L22.2236 12.1542C22.1908 12.3525 22.0881 12.5324 21.9339 12.6614C21.7798 12.7903 21.5846 12.8598 21.3836 12.8571Z" stroke="black" stroke-width="1.71429" stroke-linecap="round" stroke-linejoin="round"/>
<path d="M5.64704 4.28575L4.92704 1.54289C4.88752 1.34929 4.78233 1.17528 4.62925 1.05033C4.47618 0.925369 4.28464 0.857137 4.08704 0.857178H1.36133" stroke="black" stroke-width="1.71429" stroke-linecap="round" stroke-linejoin="round"/>
<path d="M7.36133 12.8572L8.08133 16.4572C8.12085 16.6508 8.22605 16.8248 8.37912 16.9497C8.53219 17.0747 8.72373 17.1429 8.92133 17.1429H19.3613" stroke="black" stroke-width="1.71429" stroke-linecap="round" stroke-linejoin="round"/>
<path d="M18.5036 23.143C18.2763 23.143 18.0583 23.0527 17.8975 22.8919C17.7368 22.7312 17.6465 22.5132 17.6465 22.2859C17.6465 22.0585 17.7368 21.8405 17.8975 21.6798C18.0583 21.519 18.2763 21.4287 18.5036 21.4287C18.731 21.4287 18.949 21.519 19.1097 21.6798C19.2705 21.8405 19.3608 22.0585 19.3608 22.2859C19.3608 22.5132 19.2705 22.7312 19.1097 22.8919C18.949 23.0527 18.731 23.143 18.5036 23.143Z" stroke="black" stroke-width="1.71429" stroke-linecap="round" stroke-linejoin="round"/>
<path d="M9.93331 23.143C9.70599 23.143 9.48797 23.0527 9.32722 22.8919C9.16648 22.7312 9.07617 22.5132 9.07617 22.2859C9.07617 22.0585 9.16648 21.8405 9.32722 21.6798C9.48797 21.519 9.70599 21.4287 9.93331 21.4287C10.1606 21.4287 10.3787 21.519 10.5394 21.6798C10.7002 21.8405 10.7905 22.0585 10.7905 22.2859C10.7905 22.5132 10.7002 22.7312 10.5394 22.8919C10.3787 23.0527 10.1606 23.143 9.93331 23.143Z" stroke="black" stroke-width="1.71429" stroke-linecap="round" stroke-linejoin="round"/>
</g>
<defs>
<clipPath id="clip0_693_1424">
<rect width="24" height="24" fill="white" transform="translate(0.5)"/>
</clipPath>
</defs>
</svg>
