<svg width="25" height="24" viewBox="0 0 25 24" fill="none" xmlns="http://www.w3.org/2000/svg">
<g clip-path="url(#clip0_693_1416)">
<path d="M12.6431 13.8571C13.7798 13.8571 14.8699 13.4055 15.6736 12.6018C16.4773 11.7981 16.9288 10.708 16.9288 9.57136C16.9288 8.43472 16.4773 7.34463 15.6736 6.5409C14.8699 5.73717 13.7798 5.28564 12.6431 5.28564C11.5065 5.28564 10.4164 5.73717 9.61268 6.5409C8.80895 7.34463 8.35742 8.43472 8.35742 9.57136C8.35742 10.708 8.80895 11.7981 9.61268 12.6018C10.4164 13.4055 11.5065 13.8571 12.6431 13.8571Z" stroke="black" stroke-width="1.71429" stroke-linecap="round" stroke-linejoin="round"/>
<path d="M5.32227 20.5429C6.08725 19.2872 7.16239 18.2494 8.44433 17.5293C9.72628 16.8091 11.1719 16.4309 12.6423 16.4309C14.1126 16.4309 15.5583 16.8091 16.8402 17.5293C18.1221 18.2494 19.1973 19.2872 19.9623 20.5429" stroke="black" stroke-width="1.71429" stroke-linecap="round" stroke-linejoin="round"/>
<path d="M12.6429 23.2857C15.5981 23.2857 18.4324 22.1117 20.522 20.022C22.6117 17.9324 23.7857 15.0981 23.7857 12.1429C23.7857 9.18759 22.6117 6.35336 20.522 4.26367C18.4324 2.17398 15.5981 1 12.6429 1C9.68759 1 6.85336 2.17398 4.76367 4.26367C2.67398 6.35336 1.5 9.18759 1.5 12.1429C1.5 15.0981 2.67398 17.9324 4.76367 20.022C6.85336 22.1117 9.68759 23.2857 12.6429 23.2857Z" stroke="black" stroke-width="1.71429" stroke-linecap="round" stroke-linejoin="round"/>
</g>
<defs>
<clipPath id="clip0_693_1416">
<rect width="24" height="24" fill="white" transform="translate(0.5)"/>
</clipPath>
</defs>
</svg>
