<svg width="25" height="26" viewBox="0 0 25 26" fill="none" xmlns="http://www.w3.org/2000/svg">
<g clip-path="url(#clip0_313_98)">
<path d="M21.047 13.7771H7.07262L5.36426 5.02563H22.4479C22.5728 5.0261 22.6961 5.05464 22.8091 5.10924C22.9221 5.16385 23.022 5.24318 23.1019 5.34164C23.1817 5.44011 23.2394 5.55532 23.2711 5.67914C23.3027 5.80297 23.3075 5.9324 23.285 6.05831L21.8841 13.0595C21.8514 13.2619 21.749 13.4456 21.5954 13.5773C21.4418 13.709 21.2473 13.7798 21.047 13.7771Z" stroke="#F34A25" stroke-width="1.71429" stroke-linecap="round" stroke-linejoin="round"/>
<path d="M5.36465 5.02561L4.64714 2.22514C4.60776 2.02747 4.50293 1.84981 4.35038 1.72223C4.19784 1.59465 4.00696 1.52498 3.81004 1.52502H1.09375" stroke="#F34A25" stroke-width="1.71429" stroke-linecap="round" stroke-linejoin="round"/>
<path d="M7.07324 13.7771L7.79075 17.4527C7.83014 17.6504 7.93497 17.828 8.08751 17.9556C8.24006 18.0832 8.43094 18.1529 8.62785 18.1528H19.0318" stroke="#F34A25" stroke-width="1.71429" stroke-linecap="round" stroke-linejoin="round"/>
<path d="M18.1774 24.2789C17.9509 24.2789 17.7336 24.1867 17.5734 24.0225C17.4132 23.8584 17.3232 23.6358 17.3232 23.4037C17.3232 23.1716 17.4132 22.949 17.5734 22.7849C17.7336 22.6208 17.9509 22.5286 18.1774 22.5286C18.404 22.5286 18.6212 22.6208 18.7814 22.7849C18.9416 22.949 19.0316 23.1716 19.0316 23.4037C19.0316 23.6358 18.9416 23.8584 18.7814 24.0225C18.6212 24.1867 18.404 24.2789 18.1774 24.2789Z" stroke="#F34A25" stroke-width="1.71429" stroke-linecap="round" stroke-linejoin="round"/>
<path d="M9.63543 24.2789C9.40889 24.2789 9.19162 24.1867 9.03143 24.0225C8.87124 23.8584 8.78125 23.6358 8.78125 23.4037C8.78125 23.1716 8.87124 22.949 9.03143 22.7849C9.19162 22.6208 9.40889 22.5286 9.63543 22.5286C9.86197 22.5286 10.0792 22.6208 10.2394 22.7849C10.3996 22.949 10.4896 23.1716 10.4896 23.4037C10.4896 23.6358 10.3996 23.8584 10.2394 24.0225C10.0792 24.1867 9.86197 24.2789 9.63543 24.2789Z" stroke="#F34A25" stroke-width="1.71429" stroke-linecap="round" stroke-linejoin="round"/>
</g>
<defs>
<clipPath id="clip0_313_98">
<rect width="23.9171" height="24.5041" fill="white" transform="translate(0.236328 0.649902)"/>
</clipPath>
</defs>
</svg>
