<svg width="25" height="25" viewBox="0 0 25 25" fill="none" xmlns="http://www.w3.org/2000/svg">
<g id="tabler:edit">
<g id="Group">
<path id="Vector" d="M7.42969 7.21436H6.42969C5.89925 7.21436 5.39055 7.42507 5.01547 7.80014C4.6404 8.17521 4.42969 8.68392 4.42969 9.21436V18.2144C4.42969 18.7448 4.6404 19.2535 5.01547 19.6286C5.39055 20.0036 5.89925 20.2144 6.42969 20.2144H15.4297C15.9601 20.2144 16.4688 20.0036 16.8439 19.6286C17.219 19.2535 17.4297 18.7448 17.4297 18.2144V17.2144" stroke="black" stroke-width="1.5" stroke-linecap="round" stroke-linejoin="round"/>
<path id="Vector_2" d="M16.4297 5.21446L19.4297 8.21446M20.8147 6.79946C21.2085 6.40562 21.4298 5.87145 21.4298 5.31446C21.4298 4.75748 21.2085 4.22331 20.8147 3.82946C20.4208 3.43562 19.8867 3.21436 19.3297 3.21436C18.7727 3.21436 18.2385 3.43562 17.8447 3.82946L9.42969 12.2145V15.2145H12.4297L20.8147 6.79946Z" stroke="black" stroke-width="1.5" stroke-linecap="round" stroke-linejoin="round"/>
</g>
</g>
</svg>
