<svg width="24" height="27" viewBox="0 0 24 27" fill="none" xmlns="http://www.w3.org/2000/svg">
<g id="logos:facebook" clip-path="url(#clip0_1232_5816)">
<path id="Vector" d="M24 13.5C24 6.57142 18.6274 0.95459 12 0.95459C5.37262 0.95459 0 6.57133 0 13.5C0 19.7618 4.38825 24.952 10.125 25.8931V17.1265H7.07812V13.5H10.125V10.7361C10.125 7.59192 11.9166 5.85516 14.6575 5.85516C15.9705 5.85516 17.3438 6.10019 17.3438 6.10019V9.18754H15.8306C14.3398 9.18754 13.875 10.1546 13.875 11.1468V13.5H17.2031L16.6711 17.1265H13.875V25.8931C19.6117 24.952 24 19.7619 24 13.5Z" fill="#1877F2"/>
<path id="Vector_2" d="M16.6711 17.1263L17.2031 13.4999H13.875V11.1466C13.875 10.1543 14.3399 9.18737 15.8306 9.18737H17.3438V6.10001C17.3438 6.10001 15.9705 5.85498 14.6575 5.85498C11.9166 5.85498 10.125 7.59174 10.125 10.7359V13.4999H7.07812V17.1263H10.125V25.8929C10.7453 25.9945 11.3722 26.0455 12 26.0453C12.6278 26.0455 13.2547 25.9946 13.875 25.8929V17.1263H16.6711Z" fill="white"/>
</g>
<defs>
<clipPath id="clip0_1232_5816">
<rect width="24" height="25.0909" fill="white" transform="translate(0 0.95459)"/>
</clipPath>
</defs>
</svg>
