<svg width="24" height="25" viewBox="0 0 24 25" fill="none" xmlns="http://www.w3.org/2000/svg">
<g id="flat-color-icons:google">
<path id="Vector" d="M21.8055 10.4601H21V10.4168H12V14.5835H17.6515C16.827 17.009 14.6115 18.7502 12 18.7502C8.6865 18.7502 6 15.9517 6 12.5002C6 9.0486 8.6865 6.25016 12 6.25016C13.5295 6.25016 14.921 6.8512 15.9805 7.83298L18.809 4.88662C17.023 3.15277 14.634 2.0835 12 2.0835C6.4775 2.0835 2 6.74756 2 12.5002C2 18.2528 6.4775 22.9168 12 22.9168C17.5225 22.9168 22 18.2528 22 12.5002C22 11.8017 21.931 11.12 21.8055 10.4601Z" fill="#FFC107"/>
<path id="Vector_2" d="M3.15234 7.65172L6.43784 10.1616C7.32684 7.86891 9.47984 6.25016 11.9993 6.25016C13.5288 6.25016 14.9203 6.8512 15.9798 7.83297L18.8083 4.88662C17.0223 3.15277 14.6333 2.0835 11.9993 2.0835C8.15834 2.0835 4.82734 4.34235 3.15234 7.65172Z" fill="#FF3D00"/>
<path id="Vector_3" d="M12.0002 22.9165C14.5832 22.9165 16.9302 21.8868 18.7047 20.2124L15.6097 17.4842C14.5719 18.3063 13.3039 18.7509 12.0002 18.7499C9.39916 18.7499 7.19066 17.0223 6.35866 14.6113L3.09766 17.2285C4.75266 20.602 8.11366 22.9165 12.0002 22.9165Z" fill="#4CAF50"/>
<path id="Vector_4" d="M21.8055 10.4597H21V10.4165H12V14.5832H17.6515C17.2571 15.7376 16.5467 16.7463 15.608 17.4847L15.6095 17.4837L18.7045 20.2118C18.4855 20.4191 22 17.7082 22 12.4998C22 11.8014 21.931 11.1196 21.8055 10.4597Z" fill="#1976D2"/>
</g>
</svg>
