<svg width="25" height="25" viewBox="0 0 25 25" fill="none" xmlns="http://www.w3.org/2000/svg">
<g id="logout-1--arrow-exit-frame-leave-logout-rectangle-right">
<path id="Vector" d="M16.4286 18.1429V21.5714C16.4286 22.0261 16.248 22.4622 15.9265 22.7836C15.605 23.105 15.1689 23.2857 14.7143 23.2857H2.71429C2.25962 23.2857 1.82359 23.105 1.5021 22.7836C1.18061 22.4622 1 22.0261 1 21.5714V2.71429C1 2.25962 1.18061 1.82359 1.5021 1.5021C1.82359 1.18061 2.25962 1 2.71429 1H14.7143C15.1689 1 15.605 1.18061 15.9265 1.5021C16.248 1.82359 16.4286 2.25962 16.4286 2.71429V6.14286" stroke="#F34A25" stroke-width="1.71429" stroke-linecap="round" stroke-linejoin="round"/>
<path id="Vector_2" d="M11.2852 12.1431H23.2852" stroke="#F34A25" stroke-width="1.71429" stroke-linecap="round" stroke-linejoin="round"/>
<path id="Vector_3" d="M19.8555 8.71436L23.284 12.1429L19.8555 15.5715" stroke="#F34A25" stroke-width="1.71429" stroke-linecap="round" stroke-linejoin="round"/>
</g>
</svg>
