<svg width="24" height="24" viewBox="0 0 24 24" fill="none" xmlns="http://www.w3.org/2000/svg">
<g id="Ringing Bell Notification" clip-path="url(#clip0_2371_5722)">
<g id="ringing-bell-notification--notification-vibrate-ring-sound-alarm-alert-bell-noise">
<path id="Vector" d="M10.2852 22.7141H13.7137" stroke="#F34A25" stroke-width="1.71429" stroke-linecap="round" stroke-linejoin="round"/>
<path id="Vector_2" d="M18.856 9.85714C18.856 8.03851 18.1336 6.29438 16.8476 5.00841C15.5617 3.72245 13.8175 3 11.9989 3C10.1802 3 8.43612 3.72245 7.15015 5.00841C5.86419 6.29438 5.14174 8.03851 5.14174 9.85714V15.8571C5.14174 16.5391 4.87082 17.1933 4.38859 17.6755C3.90636 18.1577 3.25229 18.4286 2.57031 18.4286H21.4275C20.7455 18.4286 20.0913 18.1577 19.6091 17.6755C19.1269 17.1933 18.856 16.5391 18.856 15.8571V9.85714Z" stroke="#F34A25" stroke-width="1.71429" stroke-linecap="round" stroke-linejoin="round"/>
<path id="Vector_3" d="M0.855469 9.63422C0.856393 8.00246 1.24553 6.39434 1.99074 4.94268C2.73594 3.49102 3.81582 2.2375 5.14118 1.28564" stroke="#F34A25" stroke-width="1.71429" stroke-linecap="round" stroke-linejoin="round"/>
<path id="Vector_4" d="M23.1412 9.63422C23.1403 8.00246 22.7512 6.39434 22.006 4.94268C21.2608 3.49102 20.1808 2.2375 18.8555 1.28564" stroke="#F34A25" stroke-width="1.71429" stroke-linecap="round" stroke-linejoin="round"/>
</g>
</g>
<defs>
<clipPath id="clip0_2371_5722">
<rect width="24" height="24" fill="white"/>
</clipPath>
</defs>
</svg>
