<svg width="26" height="21" viewBox="0 0 26 21" fill="none" xmlns="http://www.w3.org/2000/svg">
<g id="bullet-list--points-bullet-unordered-list-lists-bullets">
<path id="Vector" d="M1.8137 3.41769C2.3235 3.41769 2.73678 3.00441 2.73678 2.49461C2.73678 1.98481 2.3235 1.57153 1.8137 1.57153C1.3039 1.57153 0.890625 1.98481 0.890625 2.49461C0.890625 3.00441 1.3039 3.41769 1.8137 3.41769Z" stroke="#F34A25" stroke-width="1.71429" stroke-linecap="round" stroke-linejoin="round"/>
<path id="Vector_2" d="M8.27344 2.49463H24.8888" stroke="#F34A25" stroke-width="1.71429" stroke-linecap="round" stroke-linejoin="round"/>
<path id="Vector_3" d="M1.8137 11.7253C2.3235 11.7253 2.73678 11.312 2.73678 10.8022C2.73678 10.2924 2.3235 9.87915 1.8137 9.87915C1.3039 9.87915 0.890625 10.2924 0.890625 10.8022C0.890625 11.312 1.3039 11.7253 1.8137 11.7253Z" stroke="#F34A25" stroke-width="1.71429" stroke-linecap="round" stroke-linejoin="round"/>
<path id="Vector_4" d="M8.27344 10.8022H24.8888" stroke="#F34A25" stroke-width="1.71429" stroke-linecap="round" stroke-linejoin="round"/>
<path id="Vector_5" d="M1.8137 20.0332C2.3235 20.0332 2.73678 19.6198 2.73678 19.1101C2.73678 18.6004 2.3235 18.187 1.8137 18.187C1.3039 18.187 0.890625 18.6004 0.890625 19.1101C0.890625 19.6198 1.3039 20.0332 1.8137 20.0332Z" stroke="#F34A25" stroke-width="1.71429" stroke-linecap="round" stroke-linejoin="round"/>
<path id="Vector_6" d="M8.27344 19.1101H24.8888" stroke="#F34A25" stroke-width="1.71429" stroke-linecap="round" stroke-linejoin="round"/>
</g>
</svg>
