<svg width="24" height="24" viewBox="0 0 24 24" fill="none" xmlns="http://www.w3.org/2000/svg">
<g id="Visible">
<g id="visible--eye-eyeball-open-view">
<path id="Vector" d="M22.6806 10.7079C22.9649 11.0623 23.1222 11.5227 23.1222 12C23.1222 12.4774 22.9649 12.9378 22.6806 13.2922C20.8806 15.4715 16.7834 19.7144 12.0006 19.7144C7.21772 19.7144 3.12058 15.4715 1.32057 13.2922C1.03628 12.9378 0.878906 12.4774 0.878906 12C0.878906 11.5227 1.03628 11.0623 1.32057 10.7079C3.12058 8.52855 7.21772 4.28564 12.0006 4.28564C16.7834 4.28564 20.8806 8.52855 22.6806 10.7079Z" stroke="#F34A25" stroke-width="1.71429" stroke-linecap="round" stroke-linejoin="round"/>
<path id="Vector_2" d="M11.9989 15.4284C13.8924 15.4284 15.4275 13.8934 15.4275 11.9999C15.4275 10.1063 13.8924 8.57129 11.9989 8.57129C10.1053 8.57129 8.57031 10.1063 8.57031 11.9999C8.57031 13.8934 10.1053 15.4284 11.9989 15.4284Z" stroke="#F34A25" stroke-width="1.71429" stroke-linecap="round" stroke-linejoin="round"/>
</g>
</g>
</svg>
