<svg width="202" height="44" viewBox="0 0 202 44" fill="none" xmlns="http://www.w3.org/2000/svg">
<g clip-path="url(#clip0_309_553)">
<path d="M31.4284 19.1429C31.4284 23.4286 24.9999 28.4286 24.9999 28.4286C24.9999 28.4286 18.5713 23.4286 18.5713 19.1429C18.5713 15.6415 21.4984 12.7144 24.9999 12.7144C28.5013 12.7144 31.4284 15.6415 31.4284 19.1429Z" stroke="white" stroke-width="1.50834" stroke-linecap="round" stroke-linejoin="round"/>
<path d="M24.9993 21.2857C25.5676 21.2857 26.1127 21.0599 26.5145 20.6581C26.9164 20.2562 27.1422 19.7112 27.1422 19.1429C27.1422 18.5745 26.9164 18.0295 26.5145 17.6276C26.1127 17.2258 25.5676 17 24.9993 17C24.431 17 23.8859 17.2258 23.4841 17.6276C23.0822 18.0295 22.8564 18.5745 22.8564 19.1429C22.8564 19.7112 23.0822 20.2562 23.4841 20.6581C23.8859 21.0599 24.431 21.2857 24.9993 21.2857Z" stroke="white" stroke-width="1.50834" stroke-linecap="round" stroke-linejoin="round"/>
<path d="M30.8239 26.2856H32.1424L34.2853 31.2856H15.7139L17.8567 26.2856H19.1753" stroke="white" stroke-width="1.50834" stroke-linecap="round" stroke-linejoin="round"/>
</g>
<path d="M45.072 27.596C44.9227 27.596 44.7787 27.5853 44.64 27.564C44.5013 27.5533 44.3467 27.5267 44.176 27.484L44.272 26.428C44.4533 26.4707 44.6293 26.492 44.8 26.492C45.28 26.492 45.664 26.3053 45.952 25.932C46.2507 25.548 46.4747 24.9613 46.624 24.172C46.7733 23.372 46.8693 22.348 46.912 21.1L47.072 16.3H54.672V27.5H53.504V17.004L53.808 17.324H47.824L48.112 16.988L47.968 21.068C47.9253 22.188 47.8453 23.1587 47.728 23.98C47.6107 24.7907 47.44 25.468 47.216 26.012C46.992 26.5453 46.704 26.9453 46.352 27.212C46 27.468 45.5733 27.596 45.072 27.596ZM61.7945 22.06C62.8505 22.0707 63.6505 22.3053 64.1945 22.764C64.7492 23.2227 65.0265 23.884 65.0265 24.748C65.0265 25.644 64.7278 26.332 64.1305 26.812C63.5438 27.292 62.6905 27.5267 61.5705 27.516L58.1785 27.5V19.1H59.3145V22.028L61.7945 22.06ZM61.5065 26.652C62.2852 26.6627 62.8718 26.508 63.2665 26.188C63.6718 25.8573 63.8745 25.3773 63.8745 24.748C63.8745 24.1187 63.6772 23.66 63.2825 23.372C62.8878 23.0733 62.2958 22.9187 61.5065 22.908L59.3145 22.876V26.62L61.5065 26.652ZM67.1941 27.5V19.1H70.9061C71.8555 19.1 72.6021 19.2813 73.1461 19.644C73.7008 20.0067 73.9781 20.54 73.9781 21.244C73.9781 21.9267 73.7168 22.4547 73.1941 22.828C72.6715 23.1907 71.9835 23.372 71.1301 23.372L71.3541 23.036C72.3568 23.036 73.0928 23.2227 73.5621 23.596C74.0315 23.9693 74.2661 24.508 74.2661 25.212C74.2661 25.9373 73.9995 26.5027 73.4661 26.908C72.9435 27.3027 72.1275 27.5 71.0181 27.5H67.1941ZM68.2981 26.604H70.9701C71.6848 26.604 72.2235 26.492 72.5861 26.268C72.9595 26.0333 73.1461 25.66 73.1461 25.148C73.1461 24.636 72.9808 24.2627 72.6501 24.028C72.3195 23.7933 71.7968 23.676 71.0821 23.676H68.2981V26.604ZM68.2981 22.828H70.8261C71.4768 22.828 71.9728 22.7053 72.3141 22.46C72.6661 22.2147 72.8421 21.8573 72.8421 21.388C72.8421 20.9187 72.6661 20.5667 72.3141 20.332C71.9728 20.0973 71.4768 19.98 70.8261 19.98H68.2981V22.828ZM76.9285 27.5V19.1H78.0645V27.5H76.9285ZM77.5045 17.244C77.2698 17.244 77.0725 17.164 76.9125 17.004C76.7525 16.844 76.6725 16.652 76.6725 16.428C76.6725 16.204 76.7525 16.0173 76.9125 15.868C77.0725 15.708 77.2698 15.628 77.5045 15.628C77.7392 15.628 77.9365 15.7027 78.0965 15.852C78.2565 16.0013 78.3365 16.188 78.3365 16.412C78.3365 16.6467 78.2565 16.844 78.0965 17.004C77.9472 17.164 77.7498 17.244 77.5045 17.244ZM81.3035 27.5V19.1H85.0155C85.9648 19.1 86.7115 19.2813 87.2555 19.644C87.8102 20.0067 88.0875 20.54 88.0875 21.244C88.0875 21.9267 87.8262 22.4547 87.3035 22.828C86.7808 23.1907 86.0928 23.372 85.2395 23.372L85.4635 23.036C86.4662 23.036 87.2022 23.2227 87.6715 23.596C88.1408 23.9693 88.3755 24.508 88.3755 25.212C88.3755 25.9373 88.1088 26.5027 87.5755 26.908C87.0528 27.3027 86.2368 27.5 85.1275 27.5H81.3035ZM82.4075 26.604H85.0795C85.7942 26.604 86.3328 26.492 86.6955 26.268C87.0688 26.0333 87.2555 25.66 87.2555 25.148C87.2555 24.636 87.0902 24.2627 86.7595 24.028C86.4288 23.7933 85.9062 23.676 85.1915 23.676H82.4075V26.604ZM82.4075 22.828H84.9355C85.5862 22.828 86.0822 22.7053 86.4235 22.46C86.7755 22.2147 86.9515 21.8573 86.9515 21.388C86.9515 20.9187 86.7755 20.5667 86.4235 20.332C86.0822 20.0973 85.5862 19.98 84.9355 19.98H82.4075V22.828Z" fill="white"/>
<path d="M137.03 19.4165L143.03 25.4165L149.03 19.4165" stroke="white" stroke-width="1.83297" stroke-linecap="round" stroke-linejoin="round"/>
<defs>
<clipPath id="clip0_309_553">
<rect width="20" height="20" fill="white" transform="translate(15 12)"/>
</clipPath>
</defs>
</svg>
