<svg width="31" height="31" viewBox="0 0 31 31" fill="none" xmlns="http://www.w3.org/2000/svg">
<path d="M6.98981 6.28093C10.6365 6.09364 13.4727 6 15.499 6C17.5253 6 20.3628 6.09364 24.0115 6.28161C24.9663 6.33076 25.8714 6.73562 26.5586 7.42101C27.2459 8.1064 27.6686 9.02574 27.7484 10.0083C27.9155 12.0671 27.999 13.8802 27.999 15.4484C27.999 17.0356 27.9135 18.8739 27.7424 20.9639C27.663 21.9352 27.2484 22.8448 26.5739 23.5276C25.8994 24.2103 25.0098 24.6208 24.0668 24.6845C20.9477 24.8948 18.0918 25 15.499 25C12.9069 25 10.0517 24.8948 6.93455 24.6845C5.99183 24.6209 5.10249 24.2107 4.42804 23.5283C3.75358 22.846 3.33876 21.9368 3.25889 20.9659C3.08587 18.8603 2.99902 17.0207 2.99902 15.4484C2.99902 13.8945 3.08389 12.0807 3.25231 10.0063C3.33237 9.02395 3.75525 8.10493 4.44247 7.41982C5.1297 6.73471 6.03458 6.33004 6.98915 6.28093H6.98981Z" stroke="white" stroke-width="2" stroke-linejoin="round"/>
<path d="M13.5625 12.6649V18.3456C13.5625 18.4457 13.5895 18.5439 13.6408 18.6297C13.6922 18.7156 13.7658 18.786 13.8539 18.8334C13.942 18.8807 14.0413 18.9033 14.1413 18.8988C14.2412 18.8942 14.338 18.8626 14.4215 18.8074L18.682 15.9916C18.7582 15.9414 18.8207 15.8731 18.8641 15.7929C18.9075 15.7127 18.9305 15.623 18.9308 15.5318C18.9312 15.4406 18.9091 15.3507 18.8663 15.2701C18.8236 15.1896 18.7616 15.1208 18.6859 15.07L14.4247 12.2051C14.3414 12.1491 14.2445 12.1168 14.1443 12.1117C14.0441 12.1066 13.9444 12.1288 13.8558 12.1759C13.7672 12.2231 13.6932 12.2934 13.6415 12.3795C13.5898 12.4655 13.5625 12.5639 13.5625 12.6642V12.6649Z" stroke="white" stroke-width="2" stroke-linejoin="round"/>
</svg>
