<svg width="20" height="20" viewBox="0 0 20 20" fill="none" xmlns="http://www.w3.org/2000/svg">
<g clip-path="url(#clip0_309_555)">
<path d="M16.4284 7.14293C16.4284 11.4286 9.99986 16.4286 9.99986 16.4286C9.99986 16.4286 3.57129 11.4286 3.57129 7.14293C3.57129 3.6415 6.49843 0.714355 9.99986 0.714355C13.5013 0.714355 16.4284 3.6415 16.4284 7.14293Z" stroke="white" stroke-width="1.50834" stroke-linecap="round" stroke-linejoin="round"/>
<path d="M9.9993 9.28571C10.5676 9.28571 11.1127 9.05995 11.5145 8.65809C11.9164 8.25622 12.1422 7.71118 12.1422 7.14286C12.1422 6.57454 11.9164 6.02949 11.5145 5.62763C11.1127 5.22576 10.5676 5 9.9993 5C9.43098 5 8.88594 5.22576 8.48407 5.62763C8.08221 6.02949 7.85645 6.57454 7.85645 7.14286C7.85645 7.71118 8.08221 8.25622 8.48407 8.65809C8.88594 9.05995 9.43098 9.28571 9.9993 9.28571Z" stroke="white" stroke-width="1.50834" stroke-linecap="round" stroke-linejoin="round"/>
<path d="M15.8239 14.2856H17.1424L19.2853 19.2856H0.713867L2.85672 14.2856H4.1753" stroke="white" stroke-width="1.50834" stroke-linecap="round" stroke-linejoin="round"/>
</g>
<defs>
<clipPath id="clip0_309_555">
<rect width="20" height="20" fill="white"/>
</clipPath>
</defs>
</svg>
