<svg width="165" height="59" viewBox="0 0 165 59" fill="none" xmlns="http://www.w3.org/2000/svg">
<path d="M56.976 12.876L45.895 45.9243H36.0452L29.2249 25.0017L22.2263 45.9243H12.3604L1.22266 12.876H10.7322L17.7875 34.4851L25.1343 12.876H33.6475L40.7595 34.8922L48.1063 12.876H56.976Z" fill="white"/>
<path d="M108.016 45.9482L119.097 12.8999H128.954L135.775 33.8225L142.773 12.8999H152.631L163.769 45.9482H154.259L147.204 24.3391L139.857 45.9482H131.344L124.232 23.932L116.885 45.9482H108.016Z" fill="white"/>
<path d="M69.0457 40.4403C65.4411 36.9039 63.6348 31.8589 63.6348 25.3051V0.263428H74.1326V24.9139C74.1326 32.9206 77.5022 36.9199 84.2415 36.9199C87.5221 36.9199 90.0331 35.954 91.7585 34.0142C93.4838 32.0744 94.3505 29.041 94.3505 24.9139V0.263428H104.719V25.2971C104.719 31.8509 102.912 36.896 99.3078 40.4323C95.7033 43.9686 90.6569 45.7328 84.1767 45.7328C77.6966 45.7328 72.6502 43.9686 69.0457 40.4403Z" fill="#F34A25"/>
<path d="M84.4547 58.732C87.328 58.732 89.6574 56.4207 89.6574 53.5695C89.6574 50.7183 87.328 48.407 84.4547 48.407C81.5813 48.407 79.252 50.7183 79.252 53.5695C79.252 56.4207 81.5813 58.732 84.4547 58.732Z" fill="#F34A25"/>
</svg>
