<svg width="107" height="66" viewBox="0 0 107 66" fill="none" xmlns="http://www.w3.org/2000/svg">
<g id="Layer_1" clip-path="url(#clip0_932_3830)">
<path id="Vector" d="M5.48875 52.0621L0 9.79862H7.31726L10.2435 35.6272L13.9553 9.85004H19.7563L23.6225 35.5726L26.5488 9.79541H33.763L28.3258 52.0589H21.0085L16.8783 25.2919L12.9573 52.0589H5.48231L5.48875 52.0621Z" fill="#231F20"/>
<path id="Vector_2" d="M101.511 9.79858L106.999 52.0621H99.6821L96.7559 26.2335L93.0441 52.0107H87.2431L83.3768 26.2881L80.4506 52.0653H73.2363L78.6736 9.8018H85.9908L90.1211 36.5688L94.0421 9.8018H101.517L101.511 9.79858Z" fill="#231F20"/>
<path id="Vector_3" d="M53.4999 52.7691C49.6368 52.7691 46.6333 52.0621 44.4861 50.6481C42.3389 49.2341 40.8581 47.2191 40.0436 44.6063C39.2292 41.9936 38.8203 38.8634 38.8203 35.2223V0H48.0916V36.3149C48.0916 37.9443 48.1979 39.474 48.4136 40.9105C48.6292 42.3471 49.1314 43.504 49.9266 44.3814C50.7217 45.2587 51.9128 45.699 53.4999 45.699C55.1739 45.699 56.3843 45.2587 57.1376 44.3814C57.8877 43.504 58.3834 42.3471 58.6184 40.9105C58.8534 39.474 58.9725 37.9443 58.9725 36.3149V0H68.1795V35.2223C68.1795 38.8634 67.7706 41.9936 66.9562 44.6063C66.1385 47.2191 64.6705 49.2341 62.5459 50.6481C60.4212 52.0621 57.4048 52.7691 53.4999 52.7691Z" fill="#F04C27"/>
<path id="Vector_4" d="M53.5 66C56.2614 66 58.5 63.7614 58.5 61C58.5 58.2386 56.2614 56 53.5 56C50.7386 56 48.5 58.2386 48.5 61C48.5 63.7614 50.7386 66 53.5 66Z" fill="#F04C27"/>
</g>
<defs>
<clipPath id="clip0_932_3830">
<rect width="107" height="66" fill="white"/>
</clipPath>
</defs>
</svg>
