<svg width="24" height="24" viewBox="0 0 24 24" fill="none" xmlns="http://www.w3.org/2000/svg">
<g clip-path="url(#clip0_309_577)">
<path d="M20.8836 12.8571H6.86077L5.14648 4.28564H22.2893C22.4147 4.2861 22.5384 4.31406 22.6518 4.36753C22.7652 4.42101 22.8655 4.49871 22.9456 4.59515C23.0257 4.69159 23.0837 4.80443 23.1154 4.92571C23.1472 5.04699 23.1519 5.17376 23.1293 5.29707L21.7236 12.1542C21.6908 12.3525 21.5881 12.5324 21.4339 12.6614C21.2798 12.7903 21.0846 12.8598 20.8836 12.8571Z" stroke="white" stroke-width="1.71429" stroke-linecap="round" stroke-linejoin="round"/>
<path d="M5.14607 4.28575L4.42607 1.54289C4.38655 1.34929 4.28135 1.17528 4.12828 1.05033C3.97521 0.925369 3.78366 0.857137 3.58607 0.857178H0.860352" stroke="white" stroke-width="1.71429" stroke-linecap="round" stroke-linejoin="round"/>
<path d="M6.86035 12.8572L7.58035 16.4572C7.61987 16.6508 7.72507 16.8248 7.87814 16.9497C8.03121 17.0747 8.22275 17.1429 8.42035 17.1429H18.8604" stroke="white" stroke-width="1.71429" stroke-linecap="round" stroke-linejoin="round"/>
<path d="M18.0036 23.143C17.7763 23.143 17.5583 23.0527 17.3975 22.8919C17.2368 22.7312 17.1465 22.5132 17.1465 22.2859C17.1465 22.0585 17.2368 21.8405 17.3975 21.6798C17.5583 21.519 17.7763 21.4287 18.0036 21.4287C18.231 21.4287 18.449 21.519 18.6097 21.6798C18.7705 21.8405 18.8608 22.0585 18.8608 22.2859C18.8608 22.5132 18.7705 22.7312 18.6097 22.8919C18.449 23.0527 18.231 23.143 18.0036 23.143Z" stroke="white" stroke-width="1.71429" stroke-linecap="round" stroke-linejoin="round"/>
<path d="M9.43136 23.143C9.20403 23.143 8.98602 23.0527 8.82527 22.8919C8.66452 22.7312 8.57422 22.5132 8.57422 22.2859C8.57422 22.0585 8.66452 21.8405 8.82527 21.6798C8.98602 21.519 9.20403 21.4287 9.43136 21.4287C9.65869 21.4287 9.87671 21.519 10.0375 21.6798C10.1982 21.8405 10.2885 22.0585 10.2885 22.2859C10.2885 22.5132 10.1982 22.7312 10.0375 22.8919C9.87671 23.0527 9.65869 23.143 9.43136 23.143Z" stroke="white" stroke-width="1.71429" stroke-linecap="round" stroke-linejoin="round"/>
</g>
<defs>
<clipPath id="clip0_309_577">
<rect width="24" height="24" fill="white"/>
</clipPath>
</defs>
</svg>
