<svg width="19" height="19" viewBox="0 0 19 19" fill="none" xmlns="http://www.w3.org/2000/svg">
<path d="M5.11714 11.7792C4.9824 11.9091 4.79965 11.9822 4.6091 11.9822C4.41855 11.9822 4.2358 11.9091 4.10106 11.7792C3.96632 11.6492 3.89062 11.4728 3.89062 11.289C3.89062 11.1052 3.96632 10.9289 4.10106 10.7989L8.88259 6.1857C8.94922 6.12119 9.0284 6.07001 9.11558 6.03508C9.20276 6.00016 9.29623 5.98218 9.39063 5.98218C9.48502 5.98218 9.57849 6.00016 9.66567 6.03508C9.75285 6.07001 9.83203 6.12119 9.89866 6.1857L14.6802 10.7989C14.8149 10.9289 14.8906 11.1052 14.8906 11.289C14.8906 11.4728 14.8149 11.6492 14.6802 11.7792C14.5454 11.9091 14.3627 11.9822 14.1722 11.9822C13.9816 11.9822 13.7989 11.9091 13.6641 11.7792L9.39122 7.65672L5.11714 11.7792Z" fill="#F34A25"/>
<circle cx="9.5" cy="9.5" r="9" stroke="#F34A25"/>
</svg>
