<svg width="19" height="19" viewBox="0 0 19 19" fill="none" xmlns="http://www.w3.org/2000/svg">
<circle cx="9.5" cy="9.5" r="9" transform="rotate(180 9.5 9.5)" stroke="black"/>
<path d="M13.7735 7.20302C13.9082 7.07303 14.091 7 14.2815 7C14.4721 7 14.6548 7.07303 14.7896 7.20302C14.9243 7.33302 15 7.50933 15 7.69317C15 7.87701 14.9243 8.05333 14.7896 8.18332L10.008 12.7965C9.9414 12.861 9.86223 12.9122 9.77505 12.9471C9.68787 12.982 9.5944 13 9.5 13C9.4056 13 9.31213 12.982 9.22495 12.9471C9.13777 12.9122 9.0586 12.861 8.99196 12.7965L4.21044 8.18332C4.0757 8.05333 4 7.87701 4 7.69317C4 7.50933 4.0757 7.33302 4.21044 7.20303C4.34518 7.07303 4.52792 7 4.71847 7C4.90902 7 5.09177 7.07303 5.22651 7.20303L9.4994 11.3255L13.7735 7.20302Z" fill="black"/>
</svg>
