<svg width="12" height="12" viewBox="0 0 12 12" fill="none" xmlns="http://www.w3.org/2000/svg">
<g id="streamline:interface-favorite-star-reward-rating-rate-social-star-media-favorite-like-stars" clip-path="url(#clip0_1109_375)">
<path id="Vector" d="M6.81709 1.52652L8.06775 4.05144C8.09619 4.11553 8.14094 4.17104 8.19752 4.21244C8.25411 4.25385 8.32056 4.2797 8.39025 4.28742L11.1511 4.69644C11.2311 4.70671 11.3064 4.73952 11.3684 4.79103C11.4304 4.84254 11.4765 4.91062 11.5012 4.98732C11.526 5.06403 11.5284 5.14619 11.5082 5.22422C11.488 5.30224 11.446 5.37291 11.3871 5.42796L9.39707 7.40227C9.34628 7.44972 9.30816 7.50912 9.28618 7.57506C9.2642 7.641 9.25905 7.71139 9.27122 7.77983L9.75103 10.5565C9.76492 10.6362 9.75614 10.7183 9.72568 10.7934C9.69523 10.8684 9.64432 10.9334 9.57876 10.9809C9.51319 11.0285 9.4356 11.0566 9.35481 11.0622C9.27402 11.0679 9.19327 11.0507 9.12177 11.0127L6.63617 9.69908C6.57253 9.66784 6.50257 9.65159 6.43166 9.65159C6.36076 9.65159 6.2908 9.66784 6.22715 9.69908L3.74156 11.0127C3.67005 11.0507 3.58931 11.0679 3.50852 11.0622C3.42773 11.0566 3.35014 11.0285 3.28457 10.9809C3.21901 10.9334 3.1681 10.8684 3.13764 10.7934C3.10719 10.7183 3.09841 10.6362 3.1123 10.5565L3.59211 7.74837C3.60427 7.67993 3.59913 7.60954 3.57715 7.5436C3.55517 7.47766 3.51705 7.41826 3.46626 7.37081L1.45262 5.42796C1.39304 5.3714 1.35115 5.29878 1.33201 5.2189C1.31286 5.13901 1.3173 5.05529 1.34477 4.97787C1.37224 4.90046 1.42157 4.83267 1.48678 4.78272C1.55199 4.73277 1.63029 4.7028 1.71219 4.69644L4.47308 4.28742C4.54277 4.2797 4.60922 4.25385 4.6658 4.21244C4.72239 4.17104 4.76713 4.11553 4.79558 4.05144L6.04624 1.52652C6.0803 1.45298 6.13468 1.39072 6.20298 1.34709C6.27127 1.30346 6.35062 1.28027 6.43166 1.28027C6.51271 1.28027 6.59206 1.30346 6.66035 1.34709C6.72864 1.39072 6.78303 1.45298 6.81709 1.52652Z" stroke="#F3AD25" stroke-width="0.786579" stroke-linecap="round" stroke-linejoin="round"/>
</g>
<defs>
<clipPath id="clip0_1109_375">
<rect width="11.0121" height="11.0121" fill="white" transform="translate(0.925781 0.668945)"/>
</clipPath>
</defs>
</svg>
