<svg width="12" height="12" viewBox="0 0 12 12" fill="none" xmlns="http://www.w3.org/2000/svg">
<g id="streamline:interface-favorite-star-reward-rating-rate-social-star-media-favorite-like-stars" clip-path="url(#clip0_1109_373)">
<path id="Vector" d="M6.08662 1.52603L7.33728 4.05095C7.36573 4.11504 7.41047 4.17055 7.46706 4.21196C7.52364 4.25336 7.59009 4.27921 7.65978 4.28693L10.4207 4.69595C10.5006 4.70622 10.576 4.73903 10.638 4.79054C10.7 4.84205 10.746 4.91013 10.7708 4.98684C10.7955 5.06354 10.7979 5.14571 10.7777 5.22373C10.7575 5.30175 10.7155 5.37242 10.6566 5.42747L8.6666 7.40178C8.61581 7.44924 8.57769 7.50863 8.55571 7.57457C8.53373 7.64051 8.52859 7.7109 8.54075 7.77934L9.02056 10.556C9.03445 10.6357 9.02567 10.7178 8.99522 10.7929C8.96476 10.8679 8.91385 10.9329 8.84829 10.9804C8.78272 11.028 8.70513 11.0561 8.62434 11.0618C8.54355 11.0674 8.46281 11.0502 8.3913 11.0122L5.90571 9.69859C5.84206 9.66735 5.7721 9.6511 5.7012 9.6511C5.63029 9.6511 5.56033 9.66735 5.49668 9.69859L3.01109 11.0122C2.93958 11.0502 2.85884 11.0674 2.77805 11.0618C2.69726 11.0561 2.61967 11.028 2.5541 10.9804C2.48854 10.9329 2.43763 10.8679 2.40717 10.7929C2.37672 10.7178 2.36794 10.6357 2.38183 10.556L2.86164 7.74788C2.8738 7.67944 2.86866 7.60905 2.84668 7.54311C2.8247 7.47717 2.78658 7.41777 2.73579 7.37032L0.722148 5.42747C0.662575 5.37091 0.620679 5.29829 0.601537 5.21841C0.582395 5.13852 0.586828 5.0548 0.614298 4.97739C0.641768 4.89997 0.691097 4.83218 0.75631 4.78223C0.821522 4.73228 0.89982 4.70231 0.981719 4.69595L3.74261 4.28693C3.8123 4.27921 3.87875 4.25336 3.93534 4.21196C3.99192 4.17055 4.03667 4.11504 4.06511 4.05095L5.31577 1.52603C5.34983 1.4525 5.40421 1.39024 5.47251 1.3466C5.5408 1.30297 5.62015 1.27979 5.7012 1.27979C5.78224 1.27979 5.86159 1.30297 5.92988 1.3466C5.99818 1.39024 6.05256 1.4525 6.08662 1.52603Z" fill="#F3AD25"/>
</g>
<defs>
<clipPath id="clip0_1109_373">
<rect width="11.0121" height="11.0121" fill="white" transform="translate(0.195312 0.668945)"/>
</clipPath>
</defs>
</svg>
