<svg width="23" height="24" viewBox="0 0 23 24" fill="none" xmlns="http://www.w3.org/2000/svg">
<g id="Shopping Cart 3" clip-path="url(#clip0_3047_16520)">
<g id="shopping-cart-2--shopping-cart-checkout">
<path id="Vector" d="M19.5399 12.9787H6.73006L5.16406 4.95654H20.824C20.9386 4.95697 21.0516 4.98314 21.1552 5.03319C21.2588 5.08324 21.3504 5.15596 21.4235 5.24622C21.4967 5.33648 21.5496 5.44209 21.5786 5.55559C21.6076 5.6691 21.612 5.78774 21.5914 5.90316L20.3073 12.3209C20.2773 12.5065 20.1834 12.6749 20.0426 12.7956C19.9018 12.9162 19.7235 12.9812 19.5399 12.9787Z" stroke="black" stroke-width="1.58133" stroke-linecap="round" stroke-linejoin="round"/>
<path id="Vector_2" d="M5.165 4.95643L4.50728 2.38933C4.47117 2.20813 4.37508 2.04528 4.23525 1.92833C4.09542 1.81138 3.92044 1.74752 3.73994 1.74756H1.25" stroke="black" stroke-width="1.58133" stroke-linecap="round" stroke-linejoin="round"/>
<path id="Vector_3" d="M6.73047 12.9785L7.38819 16.3478C7.42429 16.529 7.52039 16.6919 7.66022 16.8088C7.80005 16.9258 7.97502 16.9896 8.15553 16.9896H17.6925" stroke="black" stroke-width="1.58133" stroke-linecap="round" stroke-linejoin="round"/>
<path id="Vector_4" d="M16.9119 22.6052C16.7042 22.6052 16.5051 22.5206 16.3582 22.3702C16.2114 22.2198 16.1289 22.0157 16.1289 21.8029C16.1289 21.5902 16.2114 21.3861 16.3582 21.2357C16.5051 21.0853 16.7042 21.0007 16.9119 21.0007C17.1196 21.0007 17.3187 21.0853 17.4656 21.2357C17.6124 21.3861 17.6949 21.5902 17.6949 21.8029C17.6949 22.0157 17.6124 22.2198 17.4656 22.3702C17.3187 22.5206 17.1196 22.6052 16.9119 22.6052Z" stroke="black" stroke-width="1.58133" stroke-linecap="round" stroke-linejoin="round"/>
<path id="Vector_5" d="M9.07987 22.6052C8.87221 22.6052 8.67305 22.5206 8.52621 22.3702C8.37937 22.2198 8.29688 22.0157 8.29688 21.8029C8.29688 21.5902 8.37937 21.3861 8.52621 21.2357C8.67305 21.0853 8.87221 21.0007 9.07987 21.0007C9.28754 21.0007 9.4867 21.0853 9.63354 21.2357C9.78038 21.3861 9.86287 21.5902 9.86287 21.8029C9.86287 22.0157 9.78038 22.2198 9.63354 22.3702C9.4867 22.5206 9.28754 22.6052 9.07987 22.6052Z" stroke="black" stroke-width="1.58133" stroke-linecap="round" stroke-linejoin="round"/>
</g>
</g>
<defs>
<clipPath id="clip0_3047_16520">
<rect width="22.9167" height="23.8333" fill="white" transform="translate(0.0820312 0.083252)"/>
</clipPath>
</defs>
</svg>
