<svg width="16" height="17" viewBox="0 0 16 17" fill="none" xmlns="http://www.w3.org/2000/svg">
<g id="fluent:arrow-sort-16-regular">
<path id="Vector" d="M4.85463 2.64592C4.80819 2.59935 4.75301 2.56241 4.69227 2.5372C4.63152 2.512 4.5664 2.49902 4.50063 2.49902C4.43486 2.49902 4.36974 2.512 4.309 2.5372C4.24825 2.56241 4.19308 2.59935 4.14663 2.64592L1.14663 5.64592C1.05275 5.7398 1 5.86714 1 5.99992C1 6.13269 1.05275 6.26003 1.14663 6.35392C1.24052 6.4478 1.36786 6.50055 1.50063 6.50055C1.63341 6.50055 1.76074 6.4478 1.85463 6.35392L4.00063 4.20692V13.9999C4.00063 14.1325 4.05331 14.2597 4.14708 14.3535C4.24085 14.4472 4.36802 14.4999 4.50063 14.4999C4.63324 14.4999 4.76042 14.4472 4.85418 14.3535C4.94795 14.2597 5.00063 14.1325 5.00063 13.9999V4.20692L7.14663 6.35392C7.24052 6.4478 7.36786 6.50055 7.50063 6.50055C7.63341 6.50055 7.76075 6.4478 7.85463 6.35392C7.94852 6.26003 8.00126 6.13269 8.00126 5.99992C8.00126 5.86714 7.94852 5.7398 7.85463 5.64592L4.85463 2.64592ZM11.1526 14.3599C11.2459 14.4503 11.3707 14.5009 11.5006 14.5009C11.6305 14.5009 11.7554 14.4503 11.8486 14.3599L14.8486 11.4599C14.9441 11.3676 14.999 11.2412 15.0013 11.1084C15.0035 10.9756 14.9529 10.8474 14.8606 10.7519C14.7683 10.6564 14.6419 10.6015 14.5091 10.5993C14.3763 10.597 14.2481 10.6476 14.1526 10.7399L12.0006 12.8209V3.00092C12.0006 2.86831 11.948 2.74113 11.8542 2.64736C11.7604 2.5536 11.6332 2.50092 11.5006 2.50092C11.368 2.50092 11.2408 2.5536 11.1471 2.64736C11.0533 2.74113 11.0006 2.86831 11.0006 3.00092V12.8209L8.84863 10.7409C8.80161 10.6946 8.74589 10.6581 8.68468 10.6334C8.62347 10.6088 8.55799 10.5965 8.49201 10.5973C8.42603 10.598 8.36085 10.6119 8.30024 10.6379C8.23962 10.664 8.18477 10.7018 8.13884 10.7492C8.09291 10.7966 8.05682 10.8526 8.03263 10.914C8.00845 10.9754 7.99666 11.041 7.99795 11.1069C7.99923 11.1729 8.01356 11.238 8.0401 11.2984C8.06665 11.3588 8.1049 11.4134 8.15263 11.4589L11.1526 14.3599Z" fill="#9C9C9C"/>
</g>
</svg>
