<svg width="29" height="29" viewBox="0 0 29 29" fill="none" xmlns="http://www.w3.org/2000/svg">
<g id="facebook-2870 1" clip-path="url(#clip0_932_3901)">
<g id="Group">
<path id="Vector" d="M14.4846 28.808C22.3957 28.808 28.809 22.3947 28.809 14.4836C28.809 6.57244 22.3957 0.15918 14.4846 0.15918C6.57341 0.15918 0.160156 6.57244 0.160156 14.4836C0.160156 22.3947 6.57341 28.808 14.4846 28.808Z" fill="#393939"/>
<path id="Vector_2" d="M15.9628 24.0329V15.3214H18.8869L19.3246 11.9265H15.9628V9.75905C15.9628 8.77608 16.2356 8.10634 17.6451 8.10634L19.443 8.1057V5.06924C19.132 5.02786 18.065 4.93555 16.8232 4.93555C14.2311 4.93555 12.4568 6.5176 12.4568 9.42323V11.9268H9.52539V15.3217H12.4568V24.0332L15.9628 24.0329Z" fill="white"/>
</g>
</g>
<defs>
<clipPath id="clip0_932_3901">
<rect width="29" height="29" fill="white"/>
</clipPath>
</defs>
</svg>
