<svg width="29" height="29" viewBox="0 0 29 29" fill="none" xmlns="http://www.w3.org/2000/svg">
<g id="icons8-instagram-circle 1" clip-path="url(#clip0_932_3905)">
<circle id="Ellipse 99" cx="14.5007" cy="14.5002" r="13.2917" fill="white"/>
<path id="Vector" d="M14.3248 0C6.42632 0 0 6.42632 0 14.3248C0 22.2233 6.42632 28.6496 14.3248 28.6496C22.2233 28.6496 28.6496 22.2233 28.6496 14.3248C28.6496 6.42632 22.2233 0 14.3248 0ZM10.6511 4.40763H17.9964C21.4398 4.40763 24.242 7.20869 24.242 10.6511V17.9964C24.242 21.4398 21.4409 24.242 17.9985 24.242H10.6532C7.20974 24.242 4.40763 21.4409 4.40763 17.9985V10.6532C4.40763 7.20974 7.20869 4.40763 10.6511 4.40763ZM10.6511 6.61144C8.4241 6.61144 6.61144 8.42515 6.61144 10.6532V17.9985C6.61144 20.2255 8.42515 22.0381 10.6532 22.0381H17.9985C20.2255 22.0381 22.0381 20.2244 22.0381 17.9964V10.6511C22.0381 8.4241 20.2244 6.61144 17.9964 6.61144H10.6511ZM19.4685 8.44724C19.874 8.44724 20.2023 8.77562 20.2023 9.18112C20.2023 9.58663 19.874 9.91716 19.4685 9.91716C19.063 9.91716 18.7324 9.58663 18.7324 9.18112C18.7324 8.77562 19.063 8.44724 19.4685 8.44724ZM14.3248 8.81526C17.3627 8.81526 19.8343 11.2868 19.8343 14.3248C19.8343 17.3627 17.3627 19.8343 14.3248 19.8343C11.2868 19.8343 8.81526 17.3627 8.81526 14.3248C8.81526 11.2868 11.2868 8.81526 14.3248 8.81526ZM14.3248 11.0191C13.4481 11.0191 12.6072 11.3673 11.9873 11.9873C11.3673 12.6072 11.0191 13.4481 11.0191 14.3248C11.0191 15.2015 11.3673 16.0423 11.9873 16.6623C12.6072 17.2822 13.4481 17.6305 14.3248 17.6305C15.2015 17.6305 16.0423 17.2822 16.6623 16.6623C17.2822 16.0423 17.6305 15.2015 17.6305 14.3248C17.6305 13.4481 17.2822 12.6072 16.6623 11.9873C16.0423 11.3673 15.2015 11.0191 14.3248 11.0191Z" fill="#393939"/>
</g>
<defs>
<clipPath id="clip0_932_3905">
<rect width="29" height="29" fill="white"/>
</clipPath>
</defs>
</svg>
