<svg width="29" height="29" viewBox="0 0 29 29" fill="none" xmlns="http://www.w3.org/2000/svg">
<g id="Telegram" clip-path="url(#clip0_932_3897)">
<g id="telegram">
<circle id="Ellipse 99" cx="14.5007" cy="14.4997" r="13.2917" fill="white"/>
<path id="Subtract" fill-rule="evenodd" clip-rule="evenodd" d="M0.517578 14.4997C0.517578 12.6636 0.879237 10.8454 1.58191 9.14899C2.28457 7.45259 3.31449 5.91121 4.61285 4.61285C5.91121 3.31449 7.45259 2.28457 9.14899 1.58191C10.8454 0.879237 12.6636 0.517578 14.4997 0.517578C16.3359 0.517578 18.1541 0.879237 19.8505 1.58191C21.5468 2.28457 23.0882 3.31449 24.3866 4.61285C25.685 5.91121 26.7149 7.45259 27.4175 9.14899C28.1202 10.8454 28.4819 12.6636 28.4819 14.4997C28.4819 18.208 27.0087 21.7644 24.3866 24.3866C21.7644 27.0087 18.208 28.4819 14.4997 28.4819C10.7914 28.4819 7.23501 27.0087 4.61285 24.3866C1.99069 21.7644 0.517578 18.208 0.517578 14.4997ZM19.1646 22.918L21.3292 6.48744L4.41601 14.6385L9.42265 16.4531L14.9865 12.1528C15.0942 12.0697 15.2173 12.0086 15.3486 11.9731C15.4799 11.9375 15.617 11.9282 15.7519 11.9456C15.8868 11.963 16.017 12.0068 16.135 12.0745C16.253 12.1422 16.3565 12.2325 16.4396 12.3403C16.5227 12.448 16.5838 12.571 16.6193 12.7023C16.6549 12.8337 16.6642 12.9707 16.6468 13.1056C16.6294 13.2406 16.5856 13.3708 16.5179 13.4888C16.4502 13.6068 16.3599 13.7103 16.2521 13.7934L11.637 17.3583V23.005L15.1274 19.6824L19.1646 22.9159V22.918Z" fill="#393939"/>
</g>
</g>
<defs>
<clipPath id="clip0_932_3897">
<rect width="29" height="29" fill="white"/>
</clipPath>
</defs>
</svg>
