<svg width="20" height="20" viewBox="0 0 20 20" fill="none" xmlns="http://www.w3.org/2000/svg">
<g id="fluent:wallet-credit-card-32-regular">
<path id="Vector" d="M11.8519 2.61743C11.8774 2.5851 11.9091 2.55814 11.9452 2.53811C11.9812 2.51808 12.0208 2.50538 12.0618 2.50073C12.1027 2.49608 12.1442 2.49958 12.1838 2.51103C12.2234 2.52248 12.2603 2.54165 12.2925 2.56743L12.9675 3.10868L10.4994 6.24993H12.0894L13.9444 3.88993L15.5094 5.14368C15.5422 5.16993 15.5693 5.20253 15.5892 5.23953C15.6091 5.27652 15.6214 5.31714 15.6252 5.35897C15.6291 5.40081 15.6245 5.44299 15.6116 5.48299C15.5988 5.52299 15.5781 5.56 15.5506 5.5918L14.9831 6.24993H16.6169C16.8321 5.92478 16.9179 5.53092 16.8575 5.14572C16.7972 4.76051 16.595 4.41179 16.2906 4.16805L13.0737 1.5918C12.9131 1.46314 12.7285 1.3675 12.5307 1.31038C12.333 1.25326 12.1258 1.23578 11.9213 1.25895C11.7167 1.28213 11.5188 1.34549 11.3388 1.44541C11.1588 1.54533 11.0003 1.67983 10.8725 1.84118L7.38062 6.24993H8.975L11.8519 2.61743ZM13.125 11.8749C12.9592 11.8749 12.8003 11.9408 12.6831 12.058C12.5658 12.1752 12.5 12.3342 12.5 12.4999C12.5 12.6657 12.5658 12.8247 12.6831 12.9419C12.8003 13.0591 12.9592 13.1249 13.125 13.1249H15C15.1658 13.1249 15.3247 13.0591 15.4419 12.9419C15.5592 12.8247 15.625 12.6657 15.625 12.4999C15.625 12.3342 15.5592 12.1752 15.4419 12.058C15.3247 11.9408 15.1658 11.8749 15 11.8749H13.125ZM3.75 4.37493C3.25272 4.37493 2.77581 4.57247 2.42417 4.9241C2.07254 5.27573 1.875 5.75265 1.875 6.24993V15.3124C1.875 16.0584 2.17132 16.7737 2.69876 17.3012C3.22621 17.8286 3.94158 18.1249 4.6875 18.1249H15.3125C16.0584 18.1249 16.7738 17.8286 17.3012 17.3012C17.8287 16.7737 18.125 16.0584 18.125 15.3124V9.68743C18.125 8.94151 17.8287 8.22614 17.3012 7.69869C16.7738 7.17125 16.0584 6.87493 15.3125 6.87493H3.75C3.58424 6.87493 3.42527 6.80908 3.30806 6.69187C3.19085 6.57466 3.125 6.41569 3.125 6.24993C3.125 6.08417 3.19085 5.9252 3.30806 5.80799C3.42527 5.69078 3.58424 5.62493 3.75 5.62493H6.6125L7.61 4.37493H3.75ZM3.125 15.3124V8.01868C3.32062 8.08743 3.53125 8.12493 3.75 8.12493H15.3125C15.7269 8.12493 16.1243 8.28955 16.4174 8.58257C16.7104 8.8756 16.875 9.27303 16.875 9.68743V15.3124C16.875 15.7268 16.7104 16.1243 16.4174 16.4173C16.1243 16.7103 15.7269 16.8749 15.3125 16.8749H4.6875C4.2731 16.8749 3.87567 16.7103 3.58265 16.4173C3.28962 16.1243 3.125 15.7268 3.125 15.3124Z" fill="#777777"/>
</g>
</svg>
