<svg width="41" height="41" viewBox="0 0 41 41" fill="none" xmlns="http://www.w3.org/2000/svg">
<g id="streamline:interface-favorite-star-reward-rating-rate-social-star-media-favorite-like-stars">
<path id="Vector" d="M21.8999 3.48919L26.4427 12.6606C26.5461 12.8934 26.7086 13.095 26.9141 13.2454C27.1197 13.3958 27.361 13.4897 27.6142 13.5178L37.6427 15.0035C37.9331 15.0408 38.2069 15.16 38.432 15.3471C38.6572 15.5342 38.8245 15.7815 38.9144 16.0601C39.0043 16.3387 39.013 16.6372 38.9396 16.9206C38.8662 17.204 38.7137 17.4607 38.4999 17.6606L31.2713 24.8321C31.0868 25.0044 30.9484 25.2202 30.8685 25.4597C30.7887 25.6992 30.77 25.9549 30.8142 26.2035L32.557 36.2892C32.6075 36.579 32.5756 36.8772 32.465 37.1497C32.3543 37.4223 32.1694 37.6583 31.9313 37.831C31.6931 38.0037 31.4113 38.106 31.1178 38.1264C30.8243 38.1468 30.5311 38.0844 30.2713 37.9463L21.2427 33.1749C21.0116 33.0614 20.7574 33.0024 20.4999 33.0024C20.2423 33.0024 19.9882 33.0614 19.757 33.1749L10.7285 37.9463C10.4687 38.0844 10.1754 38.1468 9.88196 38.1264C9.5885 38.106 9.30666 38.0037 9.0685 37.831C8.83034 37.6583 8.64543 37.4223 8.5348 37.1497C8.42418 36.8772 8.39228 36.579 8.44274 36.2892L10.1856 26.0892C10.2298 25.8406 10.2111 25.5849 10.1312 25.3454C10.0514 25.1059 9.91294 24.8901 9.72846 24.7178L2.41417 17.6606C2.19778 17.4552 2.0456 17.1914 1.97607 16.9012C1.90654 16.6111 1.92264 16.307 2.02242 16.0258C2.1222 15.7446 2.30138 15.4983 2.53826 15.3169C2.77514 15.1354 3.05954 15.0266 3.35703 15.0035L13.3856 13.5178C13.6387 13.4897 13.8801 13.3958 14.0856 13.2454C14.2912 13.095 14.4537 12.8934 14.557 12.6606L19.0999 3.48919C19.2236 3.22208 19.4211 2.99593 19.6692 2.83743C19.9173 2.67894 20.2055 2.59473 20.4999 2.59473C20.7943 2.59473 21.0825 2.67894 21.3306 2.83743C21.5786 2.99593 21.7762 3.22208 21.8999 3.48919Z" fill="#7C7C7C"/>
</g>
</svg>
