<svg width="20" height="20" viewBox="0 0 20 20" fill="none" xmlns="http://www.w3.org/2000/svg">
<g id="solar:shop-2-outline">
<path id="Vector" fill-rule="evenodd" clip-rule="evenodd" d="M6.19518 1.0415H13.8035C14.2785 1.0415 14.6818 1.0415 15.0143 1.07567C15.3693 1.11234 15.6977 1.19234 16.0077 1.384C16.3168 1.57567 16.5352 1.83317 16.7268 2.134C16.906 2.41734 17.0868 2.77734 17.2993 3.20234L17.3127 3.22984C17.321 3.2465 17.3285 3.26234 17.3352 3.27984L18.5043 6.23567C18.6443 6.58817 18.7985 7.02734 18.8435 7.47567C18.8893 7.93567 18.8268 8.4615 18.466 8.91734C18.1671 9.29704 17.7558 9.57265 17.291 9.70484V17.7082H18.3327C18.4984 17.7082 18.6574 17.774 18.7746 17.8912C18.8918 18.0084 18.9577 18.1674 18.9577 18.3332C18.9577 18.4989 18.8918 18.6579 18.7746 18.7751C18.6574 18.8923 18.4984 18.9582 18.3327 18.9582H1.66602C1.50026 18.9582 1.34128 18.8923 1.22407 18.7751C1.10686 18.6579 1.04102 18.4989 1.04102 18.3332C1.04102 18.1674 1.10686 18.0084 1.22407 17.8912C1.34128 17.774 1.50026 17.7082 1.66602 17.7082H2.70768V9.70484C2.24298 9.57282 1.83179 9.29752 1.53268 8.91817C1.17268 8.4615 1.10935 7.93484 1.15518 7.4765C1.20018 7.0265 1.35518 6.58817 1.49352 6.23567L2.66352 3.279C2.67028 3.26201 2.67778 3.24533 2.68602 3.229L2.69935 3.20234C2.91185 2.77734 3.09185 2.4165 3.27185 2.134C3.46352 1.83317 3.68185 1.57567 3.99102 1.384C4.30102 1.19234 4.62935 1.11234 4.98352 1.07567C5.31685 1.0415 5.72018 1.0415 6.19518 1.0415ZM14.9993 9.07234C15.283 9.37363 15.643 9.59248 16.041 9.70567V17.7082H12.7077V15.3898C12.7077 15.0232 12.7077 14.7065 12.6843 14.4482C12.6593 14.1732 12.6043 13.9015 12.4568 13.6457C12.2922 13.3605 12.0554 13.1237 11.7702 12.959C11.5143 12.8115 11.2427 12.7565 10.9685 12.7315C10.7085 12.7082 10.3927 12.7082 10.0268 12.7082H9.97268C9.60602 12.7082 9.28935 12.7082 9.03102 12.7315C8.75602 12.7565 8.48435 12.8115 8.22852 12.959C7.9433 13.1236 7.70646 13.3605 7.54185 13.6457C7.39435 13.9015 7.33935 14.1732 7.31435 14.4473C7.29102 14.7073 7.29102 15.0232 7.29102 15.389V17.7082H3.95768V9.70484C4.35563 9.59188 4.71558 9.37332 4.99935 9.07234C5.21329 9.29971 5.47155 9.48083 5.75821 9.60452C6.04486 9.72821 6.35382 9.79185 6.66602 9.7915C7.32268 9.7915 7.91518 9.51567 8.33268 9.07234C8.54662 9.29971 8.80489 9.48083 9.09154 9.60452C9.37819 9.72821 9.68715 9.79185 9.99935 9.7915C10.3116 9.79195 10.6206 9.72835 10.9072 9.60466C11.1939 9.48096 11.4521 9.29979 11.666 9.07234C11.88 9.29971 12.1382 9.48083 12.4249 9.60452C12.7115 9.72821 13.0205 9.79185 13.3327 9.7915C13.6449 9.79195 13.9539 9.72835 14.2406 9.60466C14.5272 9.48096 14.7855 9.29979 14.9993 9.07234ZM8.54102 17.7082H11.4577V15.4165C11.4577 15.0157 11.4577 14.7565 11.4393 14.5607C11.4227 14.3732 11.3935 14.3048 11.3735 14.2707C11.3187 14.1759 11.24 14.0971 11.1452 14.0423C11.1118 14.0223 11.0427 13.994 10.8552 13.9765C10.5703 13.9589 10.2848 13.9528 9.99935 13.9582C9.59852 13.9582 9.33935 13.9582 9.14351 13.9765C8.95602 13.9932 8.88768 14.0223 8.85352 14.0423C8.75872 14.0971 8.67998 14.1759 8.62518 14.2707C8.60518 14.304 8.57602 14.3732 8.55935 14.5607C8.54185 14.7565 8.54102 15.0157 8.54102 15.4165V17.7082ZM5.62435 7.49984C5.62435 7.7761 5.7341 8.04106 5.92945 8.23641C6.1248 8.43176 6.38975 8.5415 6.66602 8.5415C6.94228 8.5415 7.20723 8.43176 7.40259 8.23641C7.59794 8.04106 7.70768 7.7761 7.70768 7.49984C7.70768 7.33408 7.77353 7.17511 7.89074 7.0579C8.00795 6.94069 8.16692 6.87484 8.33268 6.87484C8.49844 6.87484 8.65741 6.94069 8.77462 7.0579C8.89183 7.17511 8.95768 7.33408 8.95768 7.49984C8.95768 7.7761 9.06743 8.04106 9.26278 8.23641C9.45813 8.43176 9.72308 8.5415 9.99935 8.5415C10.2756 8.5415 10.5406 8.43176 10.7359 8.23641C10.9313 8.04106 11.041 7.7761 11.041 7.49984C11.041 7.33408 11.1069 7.17511 11.2241 7.0579C11.3413 6.94069 11.5003 6.87484 11.666 6.87484C11.8318 6.87484 11.9907 6.94069 12.108 7.0579C12.2252 7.17511 12.291 7.33408 12.291 7.49984C12.291 7.7761 12.4008 8.04106 12.5961 8.23641C12.7915 8.43176 13.0564 8.5415 13.3327 8.5415C13.6089 8.5415 13.8739 8.43176 14.0693 8.23641C14.2646 8.04106 14.3743 7.7761 14.3743 7.49984C14.3743 7.33408 14.4402 7.17511 14.5574 7.0579C14.6746 6.94069 14.8336 6.87484 14.9993 6.87484C15.1651 6.87484 15.3241 6.94069 15.4413 7.0579C15.5585 7.17511 15.6243 7.33408 15.6243 7.49984C15.6244 7.71633 15.6919 7.92743 15.8175 8.10377C15.9431 8.28012 16.1205 8.41295 16.3251 8.4838C16.5297 8.55465 16.7513 8.55999 16.959 8.4991C17.1668 8.4382 17.3504 8.31408 17.4843 8.144C17.5793 8.024 17.626 7.859 17.5993 7.60067C17.5727 7.33234 17.4735 7.02734 17.3427 6.69567L16.1827 3.764C15.9593 3.31817 15.8102 3.02234 15.6718 2.80567C15.5385 2.59567 15.4435 2.50484 15.3502 2.44734C15.2577 2.389 15.1335 2.34484 14.886 2.319C14.6243 2.29234 14.286 2.2915 13.7727 2.2915H6.22602C5.71185 2.2915 5.37352 2.2915 5.11268 2.319C4.86518 2.34484 4.74102 2.38984 4.64852 2.44734C4.55518 2.50484 4.46018 2.59567 4.32685 2.80567C4.18768 3.02234 4.03935 3.31817 3.81602 3.764L2.65602 6.69567C2.52518 7.02734 2.42602 7.33234 2.39935 7.60067C2.37352 7.859 2.41935 8.024 2.51435 8.144C2.6483 8.31408 2.83192 8.4382 3.03968 8.4991C3.24743 8.55999 3.469 8.55465 3.67357 8.4838C3.87815 8.41295 4.05557 8.28012 4.18116 8.10377C4.30675 7.92743 4.37428 7.71633 4.37435 7.49984C4.37435 7.33408 4.4402 7.17511 4.55741 7.0579C4.67462 6.94069 4.83359 6.87484 4.99935 6.87484C5.16511 6.87484 5.32408 6.94069 5.44129 7.0579C5.5585 7.17511 5.62435 7.33408 5.62435 7.49984Z" fill="#7C7C7C"/>
</g>
</svg>
