<svg width="20" height="20" viewBox="0 0 20 20" fill="none" xmlns="http://www.w3.org/2000/svg">
<g id="fluent:warning-28-regular">
<path id="Vector" d="M10.7135 14.2859C10.7135 14.4754 10.6383 14.657 10.5043 14.791C10.3704 14.925 10.1887 15.0002 9.99923 15.0002C9.80979 15.0002 9.62811 14.925 9.49415 14.791C9.3602 14.657 9.28495 14.4754 9.28495 14.2859C9.28495 14.0965 9.3602 13.9148 9.49415 13.7808C9.62811 13.6469 9.80979 13.5716 9.99923 13.5716C10.1887 13.5716 10.3704 13.6469 10.5043 13.7808C10.6383 13.9148 10.7135 14.0965 10.7135 14.2859ZM9.46352 11.9645C9.46352 12.1066 9.51996 12.2428 9.62042 12.3433C9.72089 12.4438 9.85715 12.5002 9.99923 12.5002C10.1413 12.5002 10.2776 12.4438 10.378 12.3433C10.4785 12.2428 10.5349 12.1066 10.5349 11.9645V7.32164C10.5349 7.17955 10.4785 7.04329 10.378 6.94283C10.2776 6.84236 10.1413 6.78592 9.99923 6.78592C9.85715 6.78592 9.72089 6.84236 9.62042 6.94283C9.51996 7.04329 9.46352 7.17955 9.46352 7.32164V11.9645ZM8.27923 2.97878C9.02637 1.62592 10.9721 1.62521 11.7192 2.97878L18.3264 14.9431C19.0492 16.2523 18.1021 17.8574 16.6071 17.8574H3.39709C1.90209 17.8574 0.954231 16.2531 1.67709 14.9438L8.27923 2.97878ZM10.7807 3.49664C10.7035 3.35699 10.5903 3.24059 10.4529 3.15952C10.3154 3.07846 10.1588 3.03571 9.99923 3.03571C9.83968 3.03571 9.68304 3.07846 9.54561 3.15952C9.40818 3.24059 9.29499 3.35699 9.2178 3.49664L2.61494 15.4616C2.5399 15.5976 2.50162 15.7508 2.50389 15.9061C2.50615 16.0614 2.54889 16.2134 2.62787 16.3471C2.70685 16.4808 2.81934 16.5917 2.95424 16.6686C3.08914 16.7456 3.24178 16.786 3.39709 16.7859H16.6064C16.7616 16.7859 16.9142 16.7453 17.049 16.6683C17.1838 16.5913 17.2962 16.4805 17.3751 16.3468C17.454 16.2131 17.4966 16.0611 17.4989 15.9059C17.5011 15.7507 17.4628 15.5976 17.3878 15.4616L10.7807 3.49664Z" fill="#777777"/>
</g>
</svg>
