<svg width="40" height="40" viewBox="0 0 40 40" fill="none" xmlns="http://www.w3.org/2000/svg">
<path d="M21.3999 3.11419L25.9427 12.2856C26.0461 12.5184 26.2086 12.72 26.4141 12.8704C26.6197 13.0208 26.861 13.1147 27.1142 13.1428L37.1427 14.6285C37.4331 14.6658 37.7069 14.785 37.932 14.9721C38.1572 15.1592 38.3245 15.4065 38.4144 15.6851C38.5043 15.9637 38.513 16.2622 38.4396 16.5456C38.3662 16.829 38.2137 17.0857 37.9999 17.2856L30.7713 24.4571C30.5868 24.6294 30.4484 24.8452 30.3685 25.0847C30.2887 25.3242 30.27 25.5799 30.3142 25.8285L32.057 35.9142C32.1075 36.204 32.0756 36.5022 31.965 36.7747C31.8543 37.0473 31.6694 37.2833 31.4313 37.456C31.1931 37.6287 30.9113 37.731 30.6178 37.7514C30.3243 37.7718 30.0311 37.7094 29.7713 37.5713L20.7427 32.7999C20.5116 32.6864 20.2574 32.6274 19.9999 32.6274C19.7423 32.6274 19.4882 32.6864 19.257 32.7999L10.2285 37.5713C9.96871 37.7094 9.67542 37.7718 9.38196 37.7514C9.0885 37.731 8.80666 37.6287 8.5685 37.456C8.33034 37.2833 8.14543 37.0473 8.0348 36.7747C7.92418 36.5022 7.89228 36.204 7.94274 35.9142L9.6856 25.7142C9.72977 25.4656 9.71109 25.2099 9.63125 24.9704C9.5514 24.7309 9.41294 24.5151 9.22846 24.3428L1.91417 17.2856C1.69778 17.0802 1.5456 16.8164 1.47607 16.5262C1.40654 16.2361 1.42264 15.932 1.52242 15.6508C1.6222 15.3696 1.80138 15.1233 2.03826 14.9419C2.27514 14.7604 2.55954 14.6516 2.85703 14.6285L12.8856 13.1428C13.1387 13.1147 13.3801 13.0208 13.5856 12.8704C13.7912 12.72 13.9537 12.5184 14.057 12.2856L18.5999 3.11419C18.7236 2.84708 18.9211 2.62093 19.1692 2.46243C19.4173 2.30394 19.7055 2.21973 19.9999 2.21973C20.2943 2.21973 20.5825 2.30394 20.8306 2.46243C21.0786 2.62093 21.2762 2.84708 21.3999 3.11419Z" fill="#F3AD25"/>
</svg>
